<svg width="64" height="64" viewBox="0 0 64 64" fill="none" xmlns="http://www.w3.org/2000/svg">
<path d="M59 24.6929H53.8106C53.4707 23.6787 53.0625 22.6914 52.5899 21.7432L56.2588 18.0752C56.8252 17.5083 57.1377 16.7549 57.1377 15.9536C57.1377 15.1523 56.8252 14.3989 56.2588 13.8325L53.5791 11.1533C53.1885 10.7627 52.5557 10.7627 52.1651 11.1533C51.7744 11.5439 51.7744 12.1772 52.1651 12.5674L54.8447 15.2471C55.0342 15.4356 55.1377 15.6865 55.1377 15.9536C55.1377 16.2207 55.0342 16.4717 54.8447 16.6606L50.6582 20.8467C50.3457 21.1592 50.2754 21.6401 50.4854 22.0293C51.1592 23.2744 51.709 24.603 52.1201 25.9795C52.2471 26.4028 52.6358 26.6929 53.0782 26.6929H59C59.5518 26.6929 60 27.1416 60 27.6929V36.3071C60 36.8584 59.5518 37.3071 59 37.3071H53.0782C52.6358 37.3071 52.2471 37.5972 52.1201 38.0205C51.709 39.397 51.1592 40.7256 50.4854 41.9707C50.2754 42.3599 50.3457 42.8408 50.6582 43.1533L54.8447 47.3399C55.0342 47.5283 55.1377 47.7793 55.1377 48.0464C55.1377 48.3135 55.0342 48.5645 54.8447 48.7534L48.7539 54.8442C48.3633 55.2339 47.7295 55.2354 47.3389 54.8447L43.1533 50.6582C42.8399 50.3443 42.3584 50.2749 41.9707 50.4859C40.7266 51.1587 39.3975 51.708 38.0205 52.1197C37.5967 52.2461 37.3066 52.6358 37.3066 53.0777V59C37.3066 59.5513 36.8584 60 36.3066 60H27.6934C27.1416 60 26.6934 59.5513 26.6934 59V53.0777C26.6934 52.6358 26.4033 52.2461 25.9795 52.1197C24.6025 51.708 23.2734 51.1587 22.0293 50.4859C21.6416 50.2759 21.1602 50.3452 20.8467 50.6582L16.6611 54.8443C16.2715 55.2339 15.6377 55.2354 15.2461 54.8447L9.15526 48.7529C8.96581 48.5645 8.86229 48.3135 8.86229 48.0464C8.86229 47.7793 8.96581 47.5283 9.15526 47.3394L13.3418 43.1533C13.6543 42.8408 13.7246 42.3599 13.5146 41.9707C12.8408 40.7256 12.291 39.397 11.8799 38.0205C11.7529 37.5972 11.3642 37.3071 10.9219 37.3071H5C4.44824 37.3071 4 36.8584 4 36.3071V27.6929C4 27.1416 4.44824 26.6929 5 26.6929H10.9219C11.3643 26.6929 11.7529 26.4028 11.8799 25.9795C12.291 24.603 12.8408 23.2744 13.5147 22.0293C13.7246 21.6401 13.6543 21.1592 13.3418 20.8467L9.15529 16.6602C8.96584 16.4717 8.86232 16.2207 8.86232 15.9536C8.86232 15.6865 8.96584 15.4355 9.15529 15.2466L15.2461 9.15577C15.6358 8.76612 16.2696 8.76466 16.6611 9.15528L20.8467 13.3418C21.1592 13.6548 21.6406 13.7236 22.0293 13.5142C23.2735 12.8413 24.6026 12.292 25.9795 11.8804C26.4034 11.7539 26.6934 11.3643 26.6934 10.9224V5C26.6934 4.44873 27.1416 4 27.6934 4H36.3067C36.8584 4 37.3067 4.44873 37.3067 5V10.9224C37.3067 11.3643 37.5967 11.7539 38.0205 11.8804C39.3975 12.292 40.7266 12.8413 41.9707 13.5142C42.3712 13.7023 42.8212 13.6343 43.1534 13.3418L47.3389 9.15576C47.7305 8.76465 48.3643 8.7666 48.7539 9.15576C49.1446 9.54541 49.7774 9.5459 50.168 9.15527C50.5586 8.76464 50.5586 8.13134 50.168 7.74072C48.9971 6.5708 47.0938 6.57324 45.9249 7.74121L42.2418 11.4251C41.2953 10.9537 40.3194 10.5287 39.3067 10.1899V5C39.3067 3.3457 37.961 2 36.3067 2H27.6934C26.0391 2 24.6934 3.3457 24.6934 5V10.1899C23.6788 10.5293 22.6915 10.9375 21.7432 11.4097L18.0752 7.74072C16.9043 6.5708 15.001 6.57324 13.8321 7.74121L7.74126 13.832C7.17485 14.3989 6.86235 15.1523 6.86235 15.9536C6.86235 16.7549 7.17485 17.5083 7.74126 18.0747L11.4102 21.7432C10.9375 22.6914 10.5294 23.6787 10.1895 24.6929H5C3.3457 24.6929 2 26.0386 2 27.6929V36.3071C2 37.9614 3.3457 39.3071 5 39.3071H10.1895C10.5293 40.3213 10.9375 41.3086 11.4101 42.2568L7.7412 45.9248C7.17479 46.4917 6.86229 47.2451 6.86229 48.0464C6.86229 48.8477 7.17479 49.6011 7.7412 50.1675L13.832 56.2593C15.0029 57.4287 16.9062 57.4272 18.0752 56.2588L21.7432 52.5903C22.6914 53.0625 23.6787 53.4707 24.6933 53.8101V59C24.6933 60.6543 26.039 62 27.6933 62H36.3066C37.9609 62 39.3066 60.6543 39.3066 59V53.8101C40.3213 53.4707 41.3086 53.0625 42.2568 52.5903L45.9248 56.2593C47.0957 57.4287 48.999 57.4272 50.168 56.2588L56.2588 50.168C56.8252 49.6011 57.1377 48.8477 57.1377 48.0464C57.1377 47.2451 56.8252 46.4917 56.2588 45.9253L52.5898 42.2568C53.0625 41.3086 53.4707 40.3213 53.8105 39.3071H59C60.6543 39.3071 62 37.9614 62 36.3071V27.6929C62 26.0386 60.6543 24.6929 59 24.6929Z" fill="url(#paint0_linear_6_301)"/>
<path d="M18.9033 42.8853C18.5 43.2627 18.4795 43.8955 18.8564 44.2983C22.248 47.9219 27.0381 50 32 50C41.9248 50 50 41.9253 50 32C50 22.0747 41.9248 14 32 14C22.0752 14 14 22.0747 14 32C14 34.9966 14.751 37.9639 16.1728 40.5806C16.4375 41.0654 17.0449 41.2437 17.5293 40.9819C18.0147 40.7183 18.1943 40.1108 17.9307 39.6255C16.668 37.3013 16 34.6641 16 32C16 23.1777 23.1777 16 32 16C40.8223 16 48 23.1777 48 32C48 40.8223 40.8223 48 32 48C27.5899 48 23.3311 46.1528 20.3174 42.9321C19.9395 42.5288 19.3076 42.5088 18.9033 42.8853Z" fill="url(#paint1_linear_6_301)"/>
<path d="M21.6211 38.3384L22.7169 35.29H27.2714L28.3672 38.3384C28.5147 38.7461 28.8985 39.0005 29.3086 39.0005C29.4209 39.0005 29.5352 38.9815 29.6465 38.9409C30.167 38.7544 30.4365 38.1812 30.25 37.6616L28.9873 34.1497C28.9673 34.0127 28.9226 33.8889 28.8529 33.7759L25.9356 25.6616C25.792 25.2646 25.416 25 24.9942 25C24.5723 25 24.1963 25.2646 24.0528 25.6616L19.7383 37.6616C19.5518 38.1812 19.8213 38.7544 20.3418 38.9409C20.8584 39.1284 21.4326 38.8579 21.6211 38.3384ZM24.9942 28.9556L26.5524 33.29H23.4359L24.9942 28.9556Z" fill="url(#paint2_linear_6_301)"/>
<path d="M33.5684 38V33H37.0537C39.2598 33 41.0537 31.2056 41.0537 29C41.0537 26.7944 39.2598 25 37.0537 25H32.5684C32.0156 25 31.5684 25.4477 31.5684 26V38C31.5684 38.5522 32.0156 39 32.5684 39C33.1211 39 33.5684 38.5522 33.5684 38ZM39.0537 29C39.0537 30.103 38.1563 31 37.0537 31H33.5684V27H37.0537C38.1563 27 39.0537 27.897 39.0537 29Z" fill="url(#paint3_linear_6_301)"/>
<path d="M44.3203 38V26C44.3203 25.4477 43.873 25 43.3203 25C42.7676 25 42.3203 25.4477 42.3203 26V38C42.3203 38.5522 42.7676 39 43.3203 39C43.873 39 44.3203 38.5522 44.3203 38Z" fill="url(#paint4_linear_6_301)"/>
<defs>
<linearGradient id="paint0_linear_6_301" x1="2" y1="-14.1538" x2="82.1651" y2="8.94759" gradientUnits="userSpaceOnUse">
<stop stop-color="#D06D00"/>
<stop offset="1" stop-color="#F3C55B"/>
</linearGradient>
<linearGradient id="paint1_linear_6_301" x1="14" y1="4.30769" x2="62.099" y2="18.1686" gradientUnits="userSpaceOnUse">
<stop stop-color="#D06D00"/>
<stop offset="1" stop-color="#F3C55B"/>
</linearGradient>
<linearGradient id="paint2_linear_6_301" x1="19.6792" y1="21.2306" x2="34.3584" y2="24.4424" gradientUnits="userSpaceOnUse">
<stop stop-color="#D06D00"/>
<stop offset="1" stop-color="#F3C55B"/>
</linearGradient>
<linearGradient id="paint3_linear_6_301" x1="31.5684" y1="21.2308" x2="44.79" y2="23.8122" gradientUnits="userSpaceOnUse">
<stop stop-color="#D06D00"/>
<stop offset="1" stop-color="#F3C55B"/>
</linearGradient>
<linearGradient id="paint4_linear_6_301" x1="42.3203" y1="21.2308" x2="45.2095" y2="21.3497" gradientUnits="userSpaceOnUse">
<stop stop-color="#D06D00"/>
<stop offset="1" stop-color="#F3C55B"/>
</linearGradient>
</defs>
</svg>
