<svg width="64" height="64" viewBox="0 0 64 64" fill="none" xmlns="http://www.w3.org/2000/svg">
<g clip-path="url(#clip0_6_246)">
<path d="M41.3334 18.6666C42.0694 18.6666 42.6668 18.0706 42.6668 17.3333V5.33325C42.6666 2.392 40.2746 0 37.3334 0H5.33337C2.392 0 0 2.392 0 5.33337V58.6668C0 61.608 2.392 64 5.33337 64H37.3334C40.2747 64 42.6668 61.608 42.6668 58.6666V46.6666C42.6668 45.9293 42.0694 45.3332 41.3334 45.3332C40.5974 45.3332 40 45.9294 40 46.6666V58.6666C40 60.1373 38.804 61.3332 37.3334 61.3332H5.33337C3.86275 61.3332 2.66675 60.1373 2.66675 58.6666V5.33337C2.66675 3.86275 3.86275 2.66675 5.33337 2.66675H37.3334C38.804 2.66675 40 3.86275 40 5.33337V17.3334C40 18.0706 40.5974 18.6666 41.3334 18.6666Z" fill="url(#paint0_linear_6_246)"/>
<path d="M34.6666 8H8C7.264 8 6.66663 8.596 6.66663 9.33337C6.66663 10.0707 7.264 10.6667 8 10.6667H34.6666C35.4026 10.6667 36 10.0707 36 9.33337C36 8.596 35.4026 8 34.6666 8Z" fill="url(#paint1_linear_6_246)"/>
<path d="M34.6666 53.3334H8C7.264 53.3334 6.66663 53.9294 6.66663 54.6668C6.66663 55.4041 7.264 56 8 56H34.6666C35.4026 56 36 55.404 36 54.6666C36 53.9293 35.4026 53.3334 34.6666 53.3334Z" fill="url(#paint2_linear_6_246)"/>
<path d="M58.6666 0H46.6666C45.9306 0 45.3333 0.596 45.3333 1.33337C45.3333 2.07075 45.9306 2.66675 46.6666 2.66675H58.6666C60.1373 2.66675 61.3333 3.86275 61.3333 5.33337V58.6668C61.3333 60.1374 60.1373 61.3334 58.6666 61.3334H46.6666C45.9306 61.3334 45.3333 61.9294 45.3333 62.6668C45.3333 63.4041 45.9306 64 46.6666 64H58.6666C61.608 64 64 61.608 64 58.6666V5.33337C64 2.392 61.608 0 58.6666 0Z" fill="url(#paint3_linear_6_246)"/>
<path d="M56 8H48C47.264 8 46.6666 8.596 46.6666 9.33337C46.6666 10.0707 47.264 10.6667 48 10.6667H56C56.736 10.6667 57.3334 10.0707 57.3334 9.33337C57.3334 8.596 56.736 8 56 8Z" fill="url(#paint4_linear_6_246)"/>
<path d="M56 53.3334H48C47.264 53.3334 46.6666 53.9294 46.6666 54.6668C46.6666 55.4041 47.264 56 48 56H56C56.736 56 57.3334 55.404 57.3334 54.6666C57.3334 53.9293 56.736 53.3334 56 53.3334Z" fill="url(#paint5_linear_6_246)"/>
<path d="M23.6094 37.724L17.8854 32L23.6094 26.276C24.1308 25.7547 24.1308 24.912 23.6094 24.3907C23.088 23.8693 22.2454 23.8693 21.724 24.3907L15.0574 31.0573C14.536 31.5787 14.536 32.4213 15.0574 32.9427L21.724 39.6093C21.984 39.8693 22.3254 39.9999 22.6667 39.9999C23.0079 39.9999 23.3493 39.8693 23.6093 39.6093C24.1307 39.088 24.1307 38.2454 23.6094 37.724Z" fill="url(#paint6_linear_6_246)"/>
<path d="M48.9427 31.0574L42.276 24.3908C41.7547 23.8694 40.912 23.8694 40.3907 24.3908C39.8693 24.9122 39.8693 25.7548 40.3907 26.2762L46.1147 32L40.3907 37.724C39.8693 38.2454 39.8693 39.088 40.3907 39.6094C40.6507 39.8694 40.992 40 41.3333 40C41.6747 40 42.0159 39.8694 42.2759 39.6094L48.9425 32.9428C49.464 32.4214 49.464 31.5787 48.9427 31.0574Z" fill="url(#paint7_linear_6_246)"/>
<path d="M35.264 24.1414C34.604 23.8134 33.804 24.0788 33.4746 24.7374L26.808 38.0708C26.4786 38.7294 26.7454 39.5308 27.404 39.8601C27.5946 39.9548 27.7986 40.0001 27.9986 40.0001C28.488 40.0001 28.9586 39.7308 29.1933 39.2641L35.8599 25.9308C36.1894 25.272 35.9226 24.4706 35.264 24.1414Z" fill="url(#paint8_linear_6_246)"/>
</g>
<defs>
<linearGradient id="paint0_linear_6_246" x1="-6.59918e-07" y1="-17.2308" x2="59.5428" y2="-5.79164" gradientUnits="userSpaceOnUse">
<stop stop-color="#D06D00"/>
<stop offset="1" stop-color="#F3C55B"/>
</linearGradient>
<linearGradient id="paint1_linear_6_246" x1="6.66663" y1="7.28203" x2="10.5087" y2="19.4608" gradientUnits="userSpaceOnUse">
<stop stop-color="#D06D00"/>
<stop offset="1" stop-color="#F3C55B"/>
</linearGradient>
<linearGradient id="paint2_linear_6_246" x1="6.66663" y1="52.6154" x2="10.5084" y2="64.7937" gradientUnits="userSpaceOnUse">
<stop stop-color="#D06D00"/>
<stop offset="1" stop-color="#F3C55B"/>
</linearGradient>
<linearGradient id="paint3_linear_6_246" x1="45.3333" y1="-17.2308" x2="72.1553" y2="-14.9763" gradientUnits="userSpaceOnUse">
<stop stop-color="#D06D00"/>
<stop offset="1" stop-color="#F3C55B"/>
</linearGradient>
<linearGradient id="paint4_linear_6_246" x1="46.6666" y1="7.28203" x2="53.295" y2="14.9224" gradientUnits="userSpaceOnUse">
<stop stop-color="#D06D00"/>
<stop offset="1" stop-color="#F3C55B"/>
</linearGradient>
<linearGradient id="paint5_linear_6_246" x1="46.6666" y1="52.6154" x2="53.2947" y2="60.2557" gradientUnits="userSpaceOnUse">
<stop stop-color="#D06D00"/>
<stop offset="1" stop-color="#F3C55B"/>
</linearGradient>
<linearGradient id="paint6_linear_6_246" x1="14.6664" y1="19.6919" x2="27.8019" y2="21.9001" gradientUnits="userSpaceOnUse">
<stop stop-color="#D06D00"/>
<stop offset="1" stop-color="#F3C55B"/>
</linearGradient>
<linearGradient id="paint7_linear_6_246" x1="39.9996" y1="19.692" x2="53.1351" y2="21.9002" gradientUnits="userSpaceOnUse">
<stop stop-color="#D06D00"/>
<stop offset="1" stop-color="#F3C55B"/>
</linearGradient>
<linearGradient id="paint8_linear_6_246" x1="26.6669" y1="19.6934" x2="39.8026" y2="21.9018" gradientUnits="userSpaceOnUse">
<stop stop-color="#D06D00"/>
<stop offset="1" stop-color="#F3C55B"/>
</linearGradient>
<clipPath id="clip0_6_246">
<rect width="64" height="64" fill="white"/>
</clipPath>
</defs>
</svg>
