<svg width="44" height="44" viewBox="0 0 44 44" fill="none" xmlns="http://www.w3.org/2000/svg">
<rect x="0.5" y="0.5" width="43" height="43" rx="21.5" fill="url(#paint0_linear_52_2871)"/>
<rect x="0.5" y="0.5" width="43" height="43" rx="21.5" stroke="#FFFEFC"/>
<path d="M15.8589 13.3132L31.6172 29.0716C31.9655 29.4199 32.1654 29.888 32.173 30.3729C32.1806 30.8579 31.9952 31.32 31.6576 31.6576C31.3201 31.9951 30.858 32.1805 30.373 32.1729C29.888 32.1654 29.4199 31.9654 29.0716 31.6172L13.3133 15.8588C12.965 15.5105 12.7651 15.0424 12.7575 14.5574C12.7499 14.0725 12.9353 13.6104 13.2729 13.2728C13.6104 12.9352 14.0725 12.7498 14.5575 12.7574C15.0425 12.765 15.5106 12.9649 15.8589 13.3132Z" fill="#FFFEFC"/>
<path d="M29.0716 13.3132L13.3132 29.0716C12.9649 29.4199 12.765 29.888 12.7574 30.3729C12.7498 30.8579 12.9352 31.32 13.2728 31.6576C13.6103 31.9951 14.0724 32.1805 14.5574 32.1729C15.0424 32.1654 15.5105 31.9654 15.8588 31.6172L31.6172 15.8588C31.9654 15.5105 32.1654 15.0424 32.1729 14.5574C32.1805 14.0725 31.9951 13.6104 31.6576 13.2728C31.32 12.9352 30.8579 12.7498 30.3729 12.7574C29.888 12.765 29.4198 12.9649 29.0716 13.3132Z" fill="#FFFEFC"/>
<defs>
<linearGradient id="paint0_linear_52_2871" x1="-6.80539e-07" y1="-11.8462" x2="58.7877" y2="5.09491" gradientUnits="userSpaceOnUse">
<stop stop-color="#D06D00"/>
<stop offset="1" stop-color="#F3C55B"/>
</linearGradient>
</defs>
</svg>
