<svg width="9" height="114" viewBox="0 0 9 114" fill="none" xmlns="http://www.w3.org/2000/svg">
<path d="M4.5 114C6.70914 114 8.5 112.209 8.5 110C8.5 107.791 6.70914 106 4.5 106C2.29086 106 0.5 107.791 0.5 110C0.5 112.209 2.29086 114 4.5 114ZM4.5 8.00001C6.70914 8.00001 8.5 6.20914 8.5 4.00001C8.5 1.79086 6.70914 7.72596e-06 4.5 7.62939e-06C2.29087 7.53283e-06 0.500005 1.79086 0.500005 4.00001C0.500005 6.20914 2.29087 8.00001 4.5 8.00001ZM5.25 106.214C5.25 105.8 4.91421 105.464 4.5 105.464C4.08579 105.464 3.75 105.8 3.75 106.214L5.25 106.214ZM3.75 100.536C3.75 100.95 4.08579 101.286 4.5 101.286C4.91421 101.286 5.25 100.95 5.25 100.536L3.75 100.536ZM5.25 92.9643C5.25 92.5501 4.91421 92.2143 4.5 92.2143C4.08579 92.2143 3.75 92.5501 3.75 92.9643L5.25 92.9643ZM3.75 87.2857C3.75 87.6999 4.08579 88.0357 4.5 88.0357C4.91421 88.0357 5.25 87.6999 5.25 87.2857L3.75 87.2857ZM5.25 79.7143C5.25 79.3001 4.91421 78.9643 4.5 78.9643C4.08579 78.9643 3.75 79.3001 3.75 79.7143L5.25 79.7143ZM3.75 74.0357C3.75 74.4499 4.08579 74.7857 4.5 74.7857C4.91422 74.7857 5.25 74.4499 5.25 74.0357L3.75 74.0357ZM5.25 66.4643C5.25 66.0501 4.91422 65.7143 4.5 65.7143C4.08579 65.7143 3.75 66.0501 3.75 66.4643L5.25 66.4643ZM3.75 60.7857C3.75 61.1999 4.08579 61.5357 4.5 61.5357C4.91422 61.5357 5.25 61.1999 5.25 60.7857L3.75 60.7857ZM5.25 53.2143C5.25 52.8001 4.91422 52.4643 4.5 52.4643C4.08579 52.4643 3.75 52.8001 3.75 53.2143L5.25 53.2143ZM3.75 47.5357C3.75 47.9499 4.08579 48.2857 4.5 48.2857C4.91422 48.2857 5.25 47.9499 5.25 47.5357L3.75 47.5357ZM5.25 39.9643C5.25 39.5501 4.91422 39.2143 4.5 39.2143C4.08579 39.2143 3.75 39.5501 3.75 39.9643L5.25 39.9643ZM3.75 34.2857C3.75 34.6999 4.08579 35.0357 4.5 35.0357C4.91422 35.0357 5.25 34.6999 5.25 34.2857L3.75 34.2857ZM5.25 26.7143C5.25 26.3001 4.91422 25.9643 4.5 25.9643C4.08579 25.9643 3.75 26.3001 3.75 26.7143L5.25 26.7143ZM3.75 21.0357C3.75 21.4499 4.08579 21.7857 4.5 21.7857C4.91422 21.7857 5.25 21.4499 5.25 21.0357L3.75 21.0357ZM5.25 13.4643C5.25 13.0501 4.91422 12.7143 4.5 12.7143C4.08579 12.7143 3.75 13.0501 3.75 13.4643L5.25 13.4643ZM3.75 7.78571C3.75 8.19993 4.08579 8.53571 4.5 8.53571C4.91422 8.53571 5.25 8.19993 5.25 7.78571L3.75 7.78571ZM5.25 110L5.25 106.214L3.75 106.214L3.75 110L5.25 110ZM5.25 100.536L5.25 92.9643L3.75 92.9643L3.75 100.536L5.25 100.536ZM5.25 87.2857L5.25 79.7143L3.75 79.7143L3.75 87.2857L5.25 87.2857ZM5.25 74.0357L5.25 66.4643L3.75 66.4643L3.75 74.0357L5.25 74.0357ZM5.25 60.7857L5.25 53.2143L3.75 53.2143L3.75 60.7857L5.25 60.7857ZM5.25 47.5357L5.25 39.9643L3.75 39.9643L3.75 47.5357L5.25 47.5357ZM5.25 34.2857L5.25 26.7143L3.75 26.7143L3.75 34.2857L5.25 34.2857ZM5.25 21.0357L5.25 13.4643L3.75 13.4643L3.75 21.0357L5.25 21.0357ZM5.25 7.78571L5.25 4.00001L3.75 4.00001L3.75 7.78571L5.25 7.78571Z" fill="white"/>
</svg>
