<svg width="178" height="12" viewBox="0 0 178 12" fill="none" xmlns="http://www.w3.org/2000/svg">
<path d="M177.333 6C177.333 3.05448 174.946 0.666667 172 0.666667C169.054 0.666667 166.667 3.05448 166.667 6C166.667 8.94552 169.054 11.3333 172 11.3333C174.946 11.3333 177.333 8.94552 177.333 6ZM11.3333 6C11.3333 3.05448 8.94552 0.666667 6 0.666667C3.05448 0.666667 0.666667 3.05448 0.666667 6C0.666667 8.94552 3.05448 11.3333 6 11.3333C8.94552 11.3333 11.3333 8.94552 11.3333 6ZM168.048 5C167.495 5 167.048 5.44772 167.048 6C167.048 6.55228 167.495 7 168.048 7V5ZM162.119 7C162.671 7 163.119 6.55228 163.119 6C163.119 5.44772 162.671 5 162.119 5V7ZM154.214 5C153.662 5 153.214 5.44772 153.214 6C153.214 6.55228 153.662 7 154.214 7V5ZM148.286 7C148.838 7 149.286 6.55228 149.286 6C149.286 5.44772 148.838 5 148.286 5V7ZM140.381 5C139.829 5 139.381 5.44772 139.381 6C139.381 6.55228 139.829 7 140.381 7V5ZM134.452 7C135.005 7 135.452 6.55228 135.452 6C135.452 5.44772 135.005 5 134.452 5V7ZM126.548 5C125.995 5 125.548 5.44772 125.548 6C125.548 6.55228 125.995 7 126.548 7V5ZM120.619 7C121.171 7 121.619 6.55228 121.619 6C121.619 5.44772 121.171 5 120.619 5V7ZM112.714 5C112.162 5 111.714 5.44772 111.714 6C111.714 6.55228 112.162 7 112.714 7V5ZM106.786 7C107.338 7 107.786 6.55228 107.786 6C107.786 5.44772 107.338 5 106.786 5V7ZM98.8809 5C98.3287 5 97.8809 5.44772 97.8809 6C97.8809 6.55228 98.3287 7 98.8809 7V5ZM92.9524 7C93.5047 7 93.9524 6.55228 93.9524 6C93.9524 5.44772 93.5047 5 92.9524 5V7ZM85.0476 5C84.4953 5 84.0476 5.44772 84.0476 6C84.0476 6.55228 84.4953 7 85.0476 7V5ZM79.119 7C79.6713 7 80.119 6.55228 80.119 6C80.119 5.44772 79.6713 5 79.119 5V7ZM71.2143 5C70.662 5 70.2143 5.44772 70.2143 6C70.2143 6.55228 70.662 7 71.2143 7V5ZM65.2857 7C65.838 7 66.2857 6.55228 66.2857 6C66.2857 5.44772 65.838 5 65.2857 5V7ZM57.3809 5C56.8287 5 56.3809 5.44772 56.3809 6C56.3809 6.55228 56.8287 7 57.3809 7V5ZM51.4524 7C52.0047 7 52.4524 6.55228 52.4524 6C52.4524 5.44772 52.0047 5 51.4524 5V7ZM43.5476 5C42.9953 5 42.5476 5.44772 42.5476 6C42.5476 6.55228 42.9953 7 43.5476 7V5ZM37.619 7C38.1713 7 38.619 6.55228 38.619 6C38.619 5.44772 38.1713 5 37.619 5V7ZM29.7143 5C29.162 5 28.7143 5.44772 28.7143 6C28.7143 6.55228 29.162 7 29.7143 7V5ZM23.7857 7C24.338 7 24.7857 6.55228 24.7857 6C24.7857 5.44772 24.338 5 23.7857 5V7ZM15.881 5C15.3287 5 14.881 5.44772 14.881 6C14.881 6.55228 15.3287 7 15.881 7V5ZM9.95238 7C10.5047 7 10.9524 6.55228 10.9524 6C10.9524 5.44772 10.5047 5 9.95238 5V7ZM172 5H168.048V7H172V5ZM162.119 5L154.214 5V7L162.119 7V5ZM148.286 5L140.381 5V7L148.286 7V5ZM134.452 5L126.548 5V7L134.452 7V5ZM120.619 5L112.714 5V7L120.619 7V5ZM106.786 5L98.8809 5V7L106.786 7V5ZM92.9524 5L85.0476 5V7L92.9524 7V5ZM79.119 5L71.2143 5V7L79.119 7V5ZM65.2857 5L57.3809 5V7L65.2857 7V5ZM51.4524 5L43.5476 5V7L51.4524 7V5ZM37.619 5L29.7143 5V7L37.619 7V5ZM23.7857 5L15.881 5V7L23.7857 7V5ZM9.95238 5L6 5V7L9.95238 7V5Z" fill="white"/>
</svg>
