<svg width="64" height="64" viewBox="0 0 64 64" fill="none" xmlns="http://www.w3.org/2000/svg">
<path d="M30.3958 19.6522H30.4861C33.3805 19.4381 36.2537 18.9964 39.0788 18.3313C39.6374 18.1856 39.9734 17.6162 39.8308 17.0569C39.6882 16.4976 39.1206 16.1584 38.5605 16.2979C35.8469 16.9336 33.0874 17.3546 30.3077 17.557C29.7282 17.5813 29.2782 18.0708 29.3026 18.6502C29.3269 19.2297 29.8164 19.6797 30.3958 19.6553V19.6522Z" fill="url(#paint0_linear_6_291)"/>
<path d="M5.2459 13.1147C5.82534 13.1147 6.29508 12.645 6.29508 12.0655C6.29508 11.4861 5.82534 11.0164 5.2459 11.0164C4.66645 11.0164 4.19672 11.4861 4.19672 12.0655C4.19672 12.645 4.66645 13.1147 5.2459 13.1147Z" fill="url(#paint1_linear_6_291)"/>
<path d="M5.2459 15.2131C4.66645 15.2131 4.19672 15.6829 4.19672 16.2623V18.3607C4.19672 18.9401 4.66645 19.4099 5.2459 19.4099C5.82534 19.4099 6.29508 18.9401 6.29508 18.3607V16.2623C6.29508 15.6829 5.82534 15.2131 5.2459 15.2131Z" fill="url(#paint2_linear_6_291)"/>
<path d="M5.2459 26.7541C5.82534 26.7541 6.29508 26.2844 6.29508 25.7049C6.29508 25.1255 5.82534 24.6558 5.2459 24.6558C4.66645 24.6558 4.19672 25.1255 4.19672 25.7049C4.19672 26.2844 4.66645 26.7541 5.2459 26.7541Z" fill="url(#paint3_linear_6_291)"/>
<path d="M5.2459 28.8525C4.66645 28.8525 4.19672 29.3223 4.19672 29.9017V32.0001C4.19672 32.5795 4.66645 33.0493 5.2459 33.0493C5.82534 33.0493 6.29508 32.5795 6.29508 32.0001V29.9017C6.29508 29.3223 5.82534 28.8525 5.2459 28.8525Z" fill="url(#paint4_linear_6_291)"/>
<path d="M5.2459 40.3935C5.82534 40.3935 6.29508 39.9238 6.29508 39.3443C6.29508 38.7649 5.82534 38.2952 5.2459 38.2952C4.66645 38.2952 4.19672 38.7649 4.19672 39.3443C4.19672 39.9238 4.66645 40.3935 5.2459 40.3935Z" fill="url(#paint5_linear_6_291)"/>
<path d="M5.2459 42.4919C4.66645 42.4919 4.19672 42.9617 4.19672 43.5411V45.6395C4.19672 46.2189 4.66645 46.6887 5.2459 46.6887C5.82534 46.6887 6.29508 46.2189 6.29508 45.6395V43.5411C6.29508 42.9617 5.82534 42.4919 5.2459 42.4919Z" fill="url(#paint6_linear_6_291)"/>
<path d="M54.4703 39.8836C53.5324 34.4914 49.4161 30.2079 44.0656 29.0561V5.77056C44.0656 0.584462 22.9319 0.524658 22.0328 0.524658C21.1336 0.524658 0 0.584462 0 5.77056V47.7378C0 49.8833 3.54833 51.4162 10.5359 52.3017C10.5075 52.6249 10.4918 52.9522 10.4918 53.2827C10.4918 58.9031 14.7389 63.4755 19.9586 63.4755H51.9208C58.0354 63.4755 63.0106 58.1131 63.0106 51.5148C63.1568 46.1415 59.6409 41.353 54.4703 39.8836ZM41.9085 28.8525C37.7059 28.8862 33.8022 31.0321 31.5216 34.5622C28.8327 33.9899 26.0273 34.5769 23.7933 36.179C23.2163 36.1873 22.6308 36.1968 22.0328 36.1968C9.67344 36.1968 2.62295 34.1677 2.09836 33.0167V21.8881C7.45862 24.6149 21.3078 24.6558 22.0328 24.6558C22.7578 24.6558 36.6069 24.6149 41.9672 21.8881V28.8525C41.9473 28.8525 41.9284 28.8525 41.9085 28.8525ZM41.9672 19.37C41.4699 20.5189 34.4184 22.5574 22.0328 22.5574C9.61364 22.5574 2.55475 20.5073 2.09836 19.4099V8.24872C7.45862 10.9755 21.3078 11.0165 22.0328 11.0165C22.7578 11.0165 36.6069 10.9755 41.9672 8.24872V19.37ZM22.0328 2.62302C34.2715 2.62302 41.3062 4.61646 41.9504 5.77056C41.3062 6.92466 34.2715 8.9181 22.0328 8.9181C9.65246 8.9181 2.59567 6.87954 2.09836 5.83036V5.81043C2.59567 4.66158 9.65246 2.62302 22.0328 2.62302ZM2.09836 47.7042V35.5274C6.98754 38.015 18.9325 38.2679 21.5439 38.2951C20.4114 39.7024 19.6242 41.3553 19.2451 43.1214C15.2668 43.5423 11.9597 46.3724 10.9293 50.238C4.3457 49.4091 2.3082 48.1302 2.09836 47.7042ZM51.9208 61.3771H19.9586C15.8951 61.3771 12.5902 57.7459 12.5902 53.2827C12.5902 48.8195 15.8951 45.1883 19.9586 45.1883H20.1096H20.1296C20.6532 45.188 21.0965 44.8016 21.1683 44.2828C21.7862 39.8144 25.365 36.4444 29.4851 36.4444C30.2371 36.4444 30.985 36.5543 31.7052 36.7707C32.1672 36.9092 32.6642 36.7148 32.9096 36.2996C34.7407 33.0395 38.1696 31.0014 41.9085 30.9509C47.1544 30.9509 51.7162 35.2305 52.5136 40.9045C52.5763 41.3539 52.9209 41.712 53.3676 41.7921C57.7395 42.5706 60.9123 46.6624 60.9123 51.5201C60.9123 56.9559 56.8792 61.3771 51.9208 61.3771Z" fill="url(#paint7_linear_6_291)"/>
<defs>
<linearGradient id="paint0_linear_6_291" x1="29.3016" y1="15.354" x2="37.763" y2="22.9517" gradientUnits="userSpaceOnUse">
<stop stop-color="#D06D00"/>
<stop offset="1" stop-color="#F3C55B"/>
</linearGradient>
<linearGradient id="paint1_linear_6_291" x1="4.19672" y1="10.4514" x2="7.0003" y2="11.2593" gradientUnits="userSpaceOnUse">
<stop stop-color="#D06D00"/>
<stop offset="1" stop-color="#F3C55B"/>
</linearGradient>
<linearGradient id="paint2_linear_6_291" x1="4.19672" y1="14.0832" x2="7.17137" y2="14.5119" gradientUnits="userSpaceOnUse">
<stop stop-color="#D06D00"/>
<stop offset="1" stop-color="#F3C55B"/>
</linearGradient>
<linearGradient id="paint3_linear_6_291" x1="4.19672" y1="24.0908" x2="7.0003" y2="24.8987" gradientUnits="userSpaceOnUse">
<stop stop-color="#D06D00"/>
<stop offset="1" stop-color="#F3C55B"/>
</linearGradient>
<linearGradient id="paint4_linear_6_291" x1="4.19672" y1="27.7227" x2="7.17137" y2="28.1513" gradientUnits="userSpaceOnUse">
<stop stop-color="#D06D00"/>
<stop offset="1" stop-color="#F3C55B"/>
</linearGradient>
<linearGradient id="paint5_linear_6_291" x1="4.19672" y1="37.7302" x2="7.0003" y2="38.5381" gradientUnits="userSpaceOnUse">
<stop stop-color="#D06D00"/>
<stop offset="1" stop-color="#F3C55B"/>
</linearGradient>
<linearGradient id="paint6_linear_6_291" x1="4.19672" y1="41.3621" x2="7.17137" y2="41.7907" gradientUnits="userSpaceOnUse">
<stop stop-color="#D06D00"/>
<stop offset="1" stop-color="#F3C55B"/>
</linearGradient>
<linearGradient id="paint7_linear_6_291" x1="-9.7464e-07" y1="-16.4236" x2="84.1802" y2="7.8596" gradientUnits="userSpaceOnUse">
<stop stop-color="#D06D00"/>
<stop offset="1" stop-color="#F3C55B"/>
</linearGradient>
</defs>
</svg>
