<svg width="38" height="38" viewBox="0 0 38 38" fill="none" xmlns="http://www.w3.org/2000/svg">
<mask id="path-1-inside-1_16_269" fill="white">
<path d="M16.875 6.24993C15.2536 6.24993 13.7406 6.70255 12.4508 7.49093C12.3176 6.77776 12.0746 6.08957 11.7304 5.45092C13.3481 4.55566 15.1715 4.09805 17.0203 4.12333C18.8691 4.14862 20.6792 4.65591 22.2719 5.59507C23.8646 6.53423 25.1846 7.87275 26.1015 9.47834C27.0184 11.0839 27.5004 12.901 27.5 14.7499H32.8146C33.6596 14.7505 34.4698 15.0866 35.0672 15.6843C35.6645 16.282 36 17.0924 36 17.9375V30.6875C36 31.5329 35.6642 32.3436 35.0664 32.9414C34.4686 33.5392 33.6579 33.875 32.8125 33.875H20.0625C19.2171 33.875 18.4064 33.5392 17.8086 32.9414C17.2108 32.3436 16.875 31.5329 16.875 30.6875V25.375C15.3969 25.3758 13.9349 25.0682 12.5825 24.4718C12.6108 23.7508 12.625 22.9893 12.625 22.1875V22.1131C13.8745 22.8356 15.3259 23.25 16.875 23.25V17.9375C16.875 17.0921 17.2108 16.2813 17.8086 15.6835C18.4064 15.0858 19.2171 14.7499 20.0625 14.7499H25.375C25.375 12.4956 24.4795 10.3336 22.8854 8.73952C21.2913 7.14546 19.1293 6.24993 16.875 6.24993ZM27.2875 16.875C26.8685 18.9157 25.86 20.7887 24.3868 22.2618C22.9137 23.7349 21.0407 24.7435 19 25.1625V30.6875C19 30.9693 19.1119 31.2395 19.3112 31.4388C19.5105 31.638 19.7807 31.75 20.0625 31.75H32.8125C33.0943 31.75 33.3645 31.638 33.5638 31.4388C33.7631 31.2395 33.875 30.9693 33.875 30.6875V17.9375C33.875 17.6557 33.7631 17.3854 33.5638 17.1862C33.3645 16.9869 33.0943 16.875 32.8125 16.875H27.2875ZM25.1072 16.875H20.0625C19.7807 16.875 19.5105 16.9869 19.3112 17.1862C19.1119 17.3854 19 17.6557 19 17.9375V22.9822C20.4698 22.6007 21.811 21.8334 22.8847 20.7597C23.9585 19.6859 24.7258 18.3448 25.1072 16.875ZM7.48462 2.26554C7.66101 2.41982 7.78144 2.62808 7.82717 2.85791C7.87291 3.08774 7.84138 3.32624 7.7375 3.53629C7.71863 3.59827 7.70931 3.66276 7.70987 3.72754C7.70987 3.86142 7.74388 4.11642 8.06475 4.43517C8.21988 4.5903 8.33888 4.7008 8.4685 4.82192C8.57475 4.91967 8.68738 5.02167 8.82975 5.16192C9.106 5.42542 9.39713 5.73567 9.6585 6.12455C10.2004 6.93843 10.5 7.9563 10.5 9.43743C10.5 11.2501 9.8285 12.7949 8.78087 13.7427L8.91688 13.8999C9.51188 14.6309 9.85825 15.5787 10.075 16.5137C10.5 18.3625 10.5 20.5852 10.5 22.1343V22.1875C10.5 28.1099 9.69462 31.4695 8.8085 33.3905C8.36225 34.3574 7.88838 34.9736 7.47825 35.3604C7.31129 35.5201 7.12746 35.6612 6.93 35.7811C6.83946 35.8355 6.74499 35.8831 6.64737 35.9235C6.64737 35.9235 6.40725 36 6.25 36C6.09275 36 5.85262 35.9235 5.85262 35.9235C5.75501 35.8831 5.66054 35.8355 5.57 35.7811C5.37254 35.6612 5.18871 35.5201 5.02175 35.3604C4.61162 34.9715 4.13775 34.3574 3.6915 33.3905C2.80538 31.4695 2 28.1099 2 22.1875V22.1343C2 20.5831 2 18.3625 2.425 16.5137C2.64175 15.5787 2.98812 14.6309 3.58312 13.8999C3.62562 13.8461 3.67096 13.7937 3.71913 13.7427C2.6715 12.7949 2 11.2501 2 9.43743C2 8.74468 2.18488 7.91805 2.43988 7.15518C2.69488 6.3923 3.05187 5.59967 3.46412 4.96217C3.955 4.13342 4.64562 3.43854 5.18112 2.97104C5.47579 2.71414 5.78211 2.47092 6.09912 2.24217L6.16288 2.19967L6.182 2.18479L6.18837 2.18054L6.19263 2.17842C6.38748 2.04853 6.61979 1.98665 6.85343 2.00241C7.08708 2.01816 7.30897 2.11067 7.48462 2.26554ZM6.25 12.6249C7.07237 12.6228 8.375 11.7112 8.375 9.43743C8.375 8.26231 8.14337 7.68643 7.88837 7.30393C7.73292 7.08084 7.55411 6.87497 7.355 6.6898L7.0915 6.4433C6.91937 6.2818 6.7175 6.0948 6.56025 5.93967C6.32844 5.70915 6.12899 5.44823 5.96738 5.16405C5.69698 5.44854 5.45894 5.76212 5.25762 6.09905C4.96012 6.55593 4.67112 7.1828 4.4565 7.8288C4.2355 8.48756 4.125 9.06981 4.125 9.43743C4.125 11.7154 5.43188 12.6249 6.25 12.6249ZM5.23 15.2429C4.92825 15.6106 4.6775 16.1971 4.49475 16.9918C4.12925 18.5813 4.125 20.5788 4.125 22.1875C4.125 27.9526 4.91337 30.968 5.621 32.5001C5.85475 33.0037 6.07363 33.3395 6.25 33.5626C6.50025 33.2341 6.71134 32.8775 6.879 32.5001C7.58663 30.968 8.375 27.9526 8.375 22.1875C8.375 20.5788 8.37075 18.5813 8.00312 16.9918C7.82037 16.1971 7.56963 15.6106 7.27 15.2429C7.15304 15.0839 6.99897 14.9558 6.82119 14.8698C6.64341 14.7839 6.44732 14.7428 6.25 14.7499H6.24575C6.04913 14.7435 5.8539 14.785 5.67692 14.8709C5.49994 14.9568 5.34655 15.0845 5.23 15.2429Z"/>
</mask>
<path d="M16.875 6.24993C15.2536 6.24993 13.7406 6.70255 12.4508 7.49093C12.3176 6.77776 12.0746 6.08957 11.7304 5.45092C13.3481 4.55566 15.1715 4.09805 17.0203 4.12333C18.8691 4.14862 20.6792 4.65591 22.2719 5.59507C23.8646 6.53423 25.1846 7.87275 26.1015 9.47834C27.0184 11.0839 27.5004 12.901 27.5 14.7499H32.8146C33.6596 14.7505 34.4698 15.0866 35.0672 15.6843C35.6645 16.282 36 17.0924 36 17.9375V30.6875C36 31.5329 35.6642 32.3436 35.0664 32.9414C34.4686 33.5392 33.6579 33.875 32.8125 33.875H20.0625C19.2171 33.875 18.4064 33.5392 17.8086 32.9414C17.2108 32.3436 16.875 31.5329 16.875 30.6875V25.375C15.3969 25.3758 13.9349 25.0682 12.5825 24.4718C12.6108 23.7508 12.625 22.9893 12.625 22.1875V22.1131C13.8745 22.8356 15.3259 23.25 16.875 23.25V17.9375C16.875 17.0921 17.2108 16.2813 17.8086 15.6835C18.4064 15.0858 19.2171 14.7499 20.0625 14.7499H25.375C25.375 12.4956 24.4795 10.3336 22.8854 8.73952C21.2913 7.14546 19.1293 6.24993 16.875 6.24993ZM27.2875 16.875C26.8685 18.9157 25.86 20.7887 24.3868 22.2618C22.9137 23.7349 21.0407 24.7435 19 25.1625V30.6875C19 30.9693 19.1119 31.2395 19.3112 31.4388C19.5105 31.638 19.7807 31.75 20.0625 31.75H32.8125C33.0943 31.75 33.3645 31.638 33.5638 31.4388C33.7631 31.2395 33.875 30.9693 33.875 30.6875V17.9375C33.875 17.6557 33.7631 17.3854 33.5638 17.1862C33.3645 16.9869 33.0943 16.875 32.8125 16.875H27.2875ZM25.1072 16.875H20.0625C19.7807 16.875 19.5105 16.9869 19.3112 17.1862C19.1119 17.3854 19 17.6557 19 17.9375V22.9822C20.4698 22.6007 21.811 21.8334 22.8847 20.7597C23.9585 19.6859 24.7258 18.3448 25.1072 16.875ZM7.48462 2.26554C7.66101 2.41982 7.78144 2.62808 7.82717 2.85791C7.87291 3.08774 7.84138 3.32624 7.7375 3.53629C7.71863 3.59827 7.70931 3.66276 7.70987 3.72754C7.70987 3.86142 7.74388 4.11642 8.06475 4.43517C8.21988 4.5903 8.33888 4.7008 8.4685 4.82192C8.57475 4.91967 8.68738 5.02167 8.82975 5.16192C9.106 5.42542 9.39713 5.73567 9.6585 6.12455C10.2004 6.93843 10.5 7.9563 10.5 9.43743C10.5 11.2501 9.8285 12.7949 8.78087 13.7427L8.91688 13.8999C9.51188 14.6309 9.85825 15.5787 10.075 16.5137C10.5 18.3625 10.5 20.5852 10.5 22.1343V22.1875C10.5 28.1099 9.69462 31.4695 8.8085 33.3905C8.36225 34.3574 7.88838 34.9736 7.47825 35.3604C7.31129 35.5201 7.12746 35.6612 6.93 35.7811C6.83946 35.8355 6.74499 35.8831 6.64737 35.9235C6.64737 35.9235 6.40725 36 6.25 36C6.09275 36 5.85262 35.9235 5.85262 35.9235C5.75501 35.8831 5.66054 35.8355 5.57 35.7811C5.37254 35.6612 5.18871 35.5201 5.02175 35.3604C4.61162 34.9715 4.13775 34.3574 3.6915 33.3905C2.80538 31.4695 2 28.1099 2 22.1875V22.1343C2 20.5831 2 18.3625 2.425 16.5137C2.64175 15.5787 2.98812 14.6309 3.58312 13.8999C3.62562 13.8461 3.67096 13.7937 3.71913 13.7427C2.6715 12.7949 2 11.2501 2 9.43743C2 8.74468 2.18488 7.91805 2.43988 7.15518C2.69488 6.3923 3.05187 5.59967 3.46412 4.96217C3.955 4.13342 4.64562 3.43854 5.18112 2.97104C5.47579 2.71414 5.78211 2.47092 6.09912 2.24217L6.16288 2.19967L6.182 2.18479L6.18837 2.18054L6.19263 2.17842C6.38748 2.04853 6.61979 1.98665 6.85343 2.00241C7.08708 2.01816 7.30897 2.11067 7.48462 2.26554ZM6.25 12.6249C7.07237 12.6228 8.375 11.7112 8.375 9.43743C8.375 8.26231 8.14337 7.68643 7.88837 7.30393C7.73292 7.08084 7.55411 6.87497 7.355 6.6898L7.0915 6.4433C6.91937 6.2818 6.7175 6.0948 6.56025 5.93967C6.32844 5.70915 6.12899 5.44823 5.96738 5.16405C5.69698 5.44854 5.45894 5.76212 5.25762 6.09905C4.96012 6.55593 4.67112 7.1828 4.4565 7.8288C4.2355 8.48756 4.125 9.06981 4.125 9.43743C4.125 11.7154 5.43188 12.6249 6.25 12.6249ZM5.23 15.2429C4.92825 15.6106 4.6775 16.1971 4.49475 16.9918C4.12925 18.5813 4.125 20.5788 4.125 22.1875C4.125 27.9526 4.91337 30.968 5.621 32.5001C5.85475 33.0037 6.07363 33.3395 6.25 33.5626C6.50025 33.2341 6.71134 32.8775 6.879 32.5001C7.58663 30.968 8.375 27.9526 8.375 22.1875C8.375 20.5788 8.37075 18.5813 8.00312 16.9918C7.82037 16.1971 7.56963 15.6106 7.27 15.2429C7.15304 15.0839 6.99897 14.9558 6.82119 14.8698C6.64341 14.7839 6.44732 14.7428 6.25 14.7499H6.24575C6.04913 14.7435 5.8539 14.785 5.67692 14.8709C5.49994 14.9568 5.34655 15.0845 5.23 15.2429Z" fill="url(#paint0_linear_16_269)" stroke="url(#paint1_linear_16_269)" stroke-width="2" mask="url(#path-1-inside-1_16_269)"/>
<defs>
<linearGradient id="paint0_linear_16_269" x1="2" y1="-7.15384" x2="47.4269" y2="5.93697" gradientUnits="userSpaceOnUse">
<stop stop-color="#D06D00"/>
<stop offset="1" stop-color="#F3C55B"/>
</linearGradient>
<linearGradient id="paint1_linear_16_269" x1="2" y1="-7.15384" x2="47.4269" y2="5.93697" gradientUnits="userSpaceOnUse">
<stop stop-color="#D06D00"/>
<stop offset="1" stop-color="#F3C55B"/>
</linearGradient>
</defs>
</svg>
