<svg width="38" height="38" viewBox="0 0 38 38" fill="none" xmlns="http://www.w3.org/2000/svg">
<path d="M8.953 24.0989C8.29112 22.603 7.94947 20.9852 7.95 19.3493C7.95 13.0512 12.897 7.94971 19 7.94971C25.103 7.94971 30.05 13.0529 30.05 19.3493C30.0505 20.9852 29.7089 22.603 29.047 24.0989M19 2V3.69992M36 18.9992H34.3M3.7 18.9992H2M31.019 6.97905L29.8171 8.1809M8.1829 8.1826L6.981 6.98075M23.2789 31.4204C24.9959 30.8646 25.6861 29.2922 25.8799 27.7112C25.9377 27.2387 25.5484 26.846 25.0724 26.846H13.0109C12.8947 26.8441 12.7794 26.867 12.6726 26.913C12.5659 26.9591 12.4701 27.0272 12.3917 27.113C12.3132 27.1989 12.2539 27.3003 12.2177 27.4108C12.1814 27.5212 12.169 27.6381 12.1813 27.7537C12.3717 29.3313 12.8511 30.4838 14.6701 31.4188M23.2789 31.4204L14.6701 31.4188M23.2789 31.4204C23.0732 34.7268 22.1178 36.0357 19.0119 35.9983C15.6901 36.0595 14.9251 34.4395 14.6701 31.4188" stroke="url(#paint0_linear_16_263)" stroke-width="1.5" stroke-linecap="round" stroke-linejoin="round"/>
<defs>
<linearGradient id="paint0_linear_16_263" x1="2" y1="-7.15384" x2="47.4269" y2="5.93697" gradientUnits="userSpaceOnUse">
<stop stop-color="#D06D00"/>
<stop offset="1" stop-color="#F3C55B"/>
</linearGradient>
</defs>
</svg>
