<svg width="13" height="13" viewBox="0 0 13 13" fill="none" xmlns="http://www.w3.org/2000/svg">
<path d="M6.42891 4.2952C5.33331 4.2952 4.43921 5.18929 4.43921 6.28489C4.43921 7.38049 5.33331 8.27458 6.42891 8.27458C7.5245 8.27458 8.4186 7.38049 8.4186 6.28489C8.4186 5.18929 7.5245 4.2952 6.42891 4.2952ZM12.3965 6.28489C12.3965 5.46095 12.4039 4.64448 12.3577 3.82203C12.3114 2.86674 12.0935 2.01892 11.3949 1.32037C10.6949 0.620317 9.84855 0.403884 8.89326 0.357612C8.06932 0.31134 7.25284 0.318803 6.4304 0.318803C5.60646 0.318803 4.78999 0.31134 3.96754 0.357612C3.01225 0.403884 2.16443 0.621809 1.46587 1.32037C0.765825 2.02041 0.549392 2.86674 0.50312 3.82203C0.456848 4.64597 0.464311 5.46244 0.464311 6.28489C0.464311 7.10734 0.456848 7.9253 0.50312 8.74775C0.549392 9.70304 0.767317 10.5509 1.46587 11.2494C2.16592 11.9495 3.01225 12.1659 3.96754 12.2122C4.79148 12.2584 5.60795 12.251 6.4304 12.251C7.25433 12.251 8.07081 12.2584 8.89326 12.2122C9.84855 12.1659 10.6964 11.948 11.3949 11.2494C12.095 10.5494 12.3114 9.70304 12.3577 8.74775C12.4054 7.9253 12.3965 7.10883 12.3965 6.28489ZM6.42891 9.3463C4.73476 9.3463 3.3675 7.97904 3.3675 6.28489C3.3675 4.59074 4.73476 3.22348 6.42891 3.22348C8.12305 3.22348 9.49031 4.59074 9.49031 6.28489C9.49031 7.97904 8.12305 9.3463 6.42891 9.3463ZM9.61569 3.81308C9.22014 3.81308 8.90072 3.49365 8.90072 3.0981C8.90072 2.70255 9.22014 2.38313 9.61569 2.38313C10.0112 2.38313 10.3307 2.70255 10.3307 3.0981C10.3308 3.19203 10.3124 3.28505 10.2765 3.37185C10.2406 3.45865 10.1879 3.53751 10.1215 3.60393C10.0551 3.67034 9.97624 3.723 9.88944 3.75889C9.80264 3.79478 9.70962 3.81319 9.61569 3.81308Z" fill="white"/>
</svg>
