<svg width="38" height="38" viewBox="0 0 38 38" fill="none" xmlns="http://www.w3.org/2000/svg">
<path d="M20.4861 8.9999H20.2787H9.96601H9.96471C9.76002 8.99936 9.55727 9.0395 9.36823 9.11797C9.17919 9.19644 9.00762 9.31168 8.86348 9.457L8.86193 9.45856L8.86193 9.45856L2.95791 15.3591C2.9579 15.3591 2.9579 15.3591 2.95789 15.3591L20.4861 8.9999ZM20.4861 8.9999L20.6326 8.85315L21.6532 7.83079C21.6533 7.83069 21.6534 7.83059 21.6535 7.83049C25.895 3.5893 31.0178 3.40486 33.017 3.52297C33.3963 3.54715 33.7538 3.70872 34.0225 3.97746C34.2914 4.2463 34.453 4.60391 34.477 4.98332L20.4861 8.9999ZM19.1873 26.7968L18.8338 26.4433L11.5564 19.166L11.2029 18.8125L11.5564 18.459L21.9172 8.09653L21.9173 8.0965C26.0575 3.9563 31.045 3.78256 32.9947 3.89808C33.283 3.91439 33.5553 4.03625 33.7595 4.24049C33.9641 4.4451 34.0861 4.71799 34.102 5.0069C34.102 5.00714 34.102 5.00738 34.102 5.00762L33.6028 5.03486C33.7145 6.92551 33.5426 11.7381 29.5499 15.729L19.1873 26.7968ZM19.1873 26.7968L19.5408 26.4433L29.9034 16.0827L19.1873 26.7968ZM9.12796 9.72225L9.12766 9.72255L3.23159 15.622C3.0733 15.776 2.96149 15.9715 2.90902 16.1861C2.85639 16.4013 2.86559 16.6271 2.93552 16.8373C3.00387 17.048 3.1303 17.2351 3.30029 17.3772C3.47064 17.5196 3.67778 17.611 3.8978 17.6407C3.8984 17.6407 3.899 17.6408 3.8996 17.6409L10.624 18.5789L10.8705 18.6133L11.0466 18.4373L19.2572 10.2285L20.111 9.37491H18.9037L9.96601 9.37491L9.96515 9.37491C9.65114 9.37545 9.35012 9.50033 9.12796 9.72225ZM28.2774 28.8737L28.2777 28.8734L28.625 28.0333V19.0961V17.889L27.7715 18.7425L19.5608 26.9531L19.3848 27.1291L19.4191 27.3757L20.3576 34.1047L20.358 34.1075C20.3897 34.3256 20.4815 34.5306 20.6231 34.6995C20.7646 34.8684 20.9504 34.9946 21.1596 35.0639C21.3689 35.1333 21.5933 35.143 21.8077 35.0921C22.0221 35.0411 22.2181 34.9315 22.3738 34.7755C22.3738 34.7755 22.3738 34.7755 22.3738 34.7755L28.2774 28.8737ZM8.98337 24.729L8.98297 24.7292C8.28383 25.0488 7.15888 25.7268 6.17914 27.0589C5.19672 28.3947 4.38168 30.3594 4.26367 33.2157L4.24125 33.7584L4.78388 33.7359C7.64021 33.6179 9.60495 32.8029 10.9407 31.8205C12.2729 30.8408 12.9509 29.7158 13.2705 29.0167L13.2707 29.0163C13.2809 28.9939 13.2955 28.9737 13.3135 28.9569C13.3315 28.9401 13.3527 28.927 13.3757 28.9184C13.3988 28.9098 13.4234 28.9058 13.448 28.9066C13.4726 28.9075 13.4968 28.9132 13.5193 28.9234C13.5417 28.9337 13.5619 28.9482 13.5787 28.9662C13.5955 28.9843 13.6085 29.0054 13.6172 29.0285C13.6258 29.0516 13.6298 29.0761 13.6289 29.1007C13.628 29.1254 13.6223 29.1496 13.6121 29.172L14.067 29.3795L13.6126 29.171C13.2766 29.9035 12.5429 31.137 11.0797 32.1879C9.62122 33.2353 7.40515 34.1251 4.06197 34.1251C4.01224 34.1251 3.96454 34.1054 3.92938 34.0702C3.89421 34.035 3.87446 33.9874 3.87446 33.9376C3.87446 30.5945 4.76432 28.3785 5.81175 26.92C6.86231 25.4572 8.09544 24.7235 8.82802 24.3875C8.87321 24.367 8.92469 24.3652 8.97118 24.3826C8.99426 24.3912 9.01542 24.4043 9.03345 24.4211C9.05147 24.4379 9.06601 24.4581 9.07623 24.4805C9.08646 24.5029 9.09216 24.5271 9.09303 24.5517C9.09389 24.5763 9.0899 24.6009 9.08128 24.624C9.07266 24.6471 9.05958 24.6682 9.04278 24.6862C9.02597 24.7043 9.00579 24.7188 8.98337 24.729Z" fill="url(#paint0_linear_16_271)" stroke="url(#paint1_linear_16_271)"/>
<defs>
<linearGradient id="paint0_linear_16_271" x1="2" y1="-5.88461" x2="46.0908" y2="6.82118" gradientUnits="userSpaceOnUse">
<stop stop-color="#D06D00"/>
<stop offset="1" stop-color="#F3C55B"/>
</linearGradient>
<linearGradient id="paint1_linear_16_271" x1="2" y1="-5.88461" x2="46.0908" y2="6.82118" gradientUnits="userSpaceOnUse">
<stop stop-color="#D06D00"/>
<stop offset="1" stop-color="#F3C55B"/>
</linearGradient>
</defs>
</svg>
