<svg width="32" height="32" viewBox="0 0 32 32" fill="none" xmlns="http://www.w3.org/2000/svg">
<rect x="0.5" y="0.5" width="31" height="31" rx="15.5" stroke="url(#paint0_linear_30_1041)"/>
<path d="M11.5813 24H8.26405V13.3176H11.5813V24ZM9.92087 11.8604C8.86013 11.8604 7.99976 10.9819 7.99976 9.92111C7.99976 9.4116 8.20216 8.92296 8.56244 8.56268C8.92272 8.2024 9.41136 8 9.92087 8C10.4304 8 10.919 8.2024 11.2793 8.56268C11.6396 8.92296 11.842 9.4116 11.842 9.92111C11.842 10.9819 10.9813 11.8604 9.92087 11.8604ZM23.9965 24H20.6865V18.7999C20.6865 17.5606 20.6615 15.9712 18.9618 15.9712C17.2371 15.9712 16.9728 17.3177 16.9728 18.7106V24H13.6592V13.3176H16.8407V14.7748H16.8871C17.33 13.9355 18.4118 13.0498 20.0257 13.0498C23.383 13.0498 24.0001 15.2605 24.0001 18.132V24H23.9965Z" fill="url(#paint1_linear_30_1041)"/>
<defs>
<linearGradient id="paint0_linear_30_1041" x1="-4.94937e-07" y1="-8.61538" x2="42.7547" y2="3.70539" gradientUnits="userSpaceOnUse">
<stop stop-color="#D06D00"/>
<stop offset="1" stop-color="#F3C55B"/>
</linearGradient>
<linearGradient id="paint1_linear_30_1041" x1="7.99976" y1="3.69231" x2="29.3775" y2="9.85295" gradientUnits="userSpaceOnUse">
<stop stop-color="#D06D00"/>
<stop offset="1" stop-color="#F3C55B"/>
</linearGradient>
</defs>
</svg>
