<svg width="44" height="44" viewBox="0 0 44 44" fill="none" xmlns="http://www.w3.org/2000/svg">
<rect x="0.5" y="0.5" width="43" height="43" rx="21.5" fill="url(#paint0_linear_48_749)"/>
<rect x="0.5" y="0.5" width="43" height="43" rx="21.5" stroke="#FFFEFC"/>
<path d="M10.8571 13H33.1429C33.6354 13 34.1078 13.1896 34.4561 13.5272C34.8043 13.8648 35 14.3226 35 14.8C35 15.2774 34.8043 15.7352 34.4561 16.0728C34.1078 16.4104 33.6354 16.6 33.1429 16.6H10.8571C10.3646 16.6 9.89223 16.4104 9.54394 16.0728C9.19566 15.7352 9 15.2774 9 14.8C9 14.3226 9.19566 13.8648 9.54394 13.5272C9.89223 13.1896 10.3646 13 10.8571 13ZM10.8571 27.4H33.1429C33.6354 27.4 34.1078 27.5896 34.4561 27.9272C34.8043 28.2648 35 28.7226 35 29.2C35 29.6774 34.8043 30.1352 34.4561 30.4728C34.1078 30.8104 33.6354 31 33.1429 31H10.8571C10.3646 31 9.89223 30.8104 9.54394 30.4728C9.19566 30.1352 9 29.6774 9 29.2C9 28.7226 9.19566 28.2648 9.54394 27.9272C9.89223 27.5896 10.3646 27.4 10.8571 27.4ZM18.8571 20.2H33.1429C33.6354 20.2 34.1078 20.3896 34.4561 20.7272C34.8043 21.0648 35 21.5226 35 22C35 22.4774 34.8043 22.9352 34.4561 23.2728C34.1078 23.6104 33.6354 23.8 33.1429 23.8H18.8571C18.3646 23.8 17.8922 23.6104 17.5439 23.2728C17.1957 22.9352 17 22.4774 17 22C17 21.5226 17.1957 21.0648 17.5439 20.7272C17.8922 20.3896 18.3646 20.2 18.8571 20.2Z" fill="#FFFEFC"/>
<defs>
<linearGradient id="paint0_linear_48_749" x1="-6.80539e-07" y1="-11.8462" x2="58.7877" y2="5.09491" gradientUnits="userSpaceOnUse">
<stop stop-color="#D06D00"/>
<stop offset="1" stop-color="#F3C55B"/>
</linearGradient>
</defs>
</svg>
