<svg width="54" height="40" viewBox="0 0 54 40" fill="none" xmlns="http://www.w3.org/2000/svg">
<path d="M49.4664 23.0039C52.4888 23.0039 54 24.2065 54 26.6116V36.3923C54 38.7974 52.4888 40 49.4664 40H37.7799C34.7575 40 33.2463 38.7974 33.2463 36.3923V26.6116C33.2463 20.9997 33.9851 16.1093 35.4627 11.9405C37.0075 7.71819 39.9963 4.03037 44.4291 0.877012C45.9067 -0.138476 47.1493 -0.272092 48.1567 0.476162L52.6903 3.8433C53.6978 4.59156 53.4627 5.50015 51.9851 6.56909C49.7015 8.17249 47.8209 10.4974 46.3433 13.5439C44.9328 16.5369 44.2276 19.6903 44.2276 23.0039H49.4664ZM16.2201 23.0039C19.2425 23.0039 20.7537 24.2065 20.7537 26.6116V36.3923C20.7537 38.7974 19.2425 40 16.2201 40H4.53358C1.51119 40 0 38.7974 0 36.3923V26.6116C0 20.9997 0.738806 16.1093 2.21642 11.9405C3.76119 7.71819 6.75 4.03037 11.1828 0.877012C12.6604 -0.138476 13.903 -0.272092 14.9104 0.476162L19.444 3.8433C20.4515 4.59156 20.2164 5.50015 18.7388 6.56909C16.4552 8.17249 14.5746 10.4974 13.097 13.5439C11.6866 16.5369 10.9813 19.6903 10.9813 23.0039H16.2201Z" fill="url(#paint0_linear_45_1106)"/>
<defs>
<linearGradient id="paint0_linear_45_1106" x1="-8.35207e-07" y1="-10.7692" x2="67.8684" y2="15.6339" gradientUnits="userSpaceOnUse">
<stop stop-color="#D06D00"/>
<stop offset="1" stop-color="#F3C55B"/>
</linearGradient>
</defs>
</svg>
