<svg width="64" height="58" viewBox="0 0 64 58" fill="none" xmlns="http://www.w3.org/2000/svg">
<path d="M61.5024 0.642334H10.9268C9.57398 0.642334 8.42927 1.73502 8.42927 3.13989V9.0716H2.49756C1.09268 9.0716 0 10.1643 0 11.5692V54.8602C0 56.2131 1.09268 57.3578 2.49756 57.3578H53.0732C54.426 57.3578 55.5707 56.2651 55.5707 54.8602V48.9285H61.5024C62.8553 48.9285 64 47.8358 64 46.431V3.13989C64 1.73502 62.9073 0.642334 61.5024 0.642334ZM10.9268 2.72363H61.5024C61.7106 2.72363 61.9187 2.87973 61.9187 3.13989V10.3204H10.5106V3.13989C10.5106 2.87973 10.7187 2.72363 10.9268 2.72363ZM2.49756 11.1529H8.42927V18.7496H2.0813V11.5692C2.0813 11.361 2.2374 11.1529 2.49756 11.1529ZM53.4894 54.8602C53.4894 55.0683 53.3333 55.2765 53.0732 55.2765H2.49756C2.28943 55.2765 2.0813 55.1204 2.0813 54.8602V20.8309H8.42927V46.431C8.42927 47.7838 9.52195 48.9285 10.9268 48.9285H53.4894V54.8602ZM61.5024 46.8472H10.9268C10.7187 46.8472 10.5106 46.6911 10.5106 46.431V12.4017H61.9187V46.431C61.9187 46.6391 61.7626 46.8472 61.5024 46.8472Z" fill="url(#paint0_linear_6_283)"/>
<path d="M19.304 7.35449H15.4536C14.8813 7.35449 14.413 6.8862 14.413 6.31384C14.413 5.74149 14.8813 5.27319 15.4536 5.27319H19.304C19.8764 5.27319 20.3447 5.74149 20.3447 6.31384C20.3447 6.8862 19.8764 7.35449 19.304 7.35449Z" fill="url(#paint1_linear_6_283)"/>
<path d="M28.0976 7.35449H24.2472C23.6748 7.35449 23.2065 6.8862 23.2065 6.31384C23.2065 5.74149 23.6748 5.27319 24.2472 5.27319H28.0976C28.67 5.27319 29.1383 5.74149 29.1383 6.31384C29.1383 6.8862 28.67 7.35449 28.0976 7.35449Z" fill="url(#paint2_linear_6_283)"/>
<defs>
<linearGradient id="paint0_linear_6_283" x1="-9.89874e-07" y1="-14.6272" x2="83.7538" y2="12.6084" gradientUnits="userSpaceOnUse">
<stop stop-color="#D06D00"/>
<stop offset="1" stop-color="#F3C55B"/>
</linearGradient>
<linearGradient id="paint1_linear_6_283" x1="14.413" y1="4.71284" x2="19.5388" y2="8.9227" gradientUnits="userSpaceOnUse">
<stop stop-color="#D06D00"/>
<stop offset="1" stop-color="#F3C55B"/>
</linearGradient>
<linearGradient id="paint2_linear_6_283" x1="23.2065" y1="4.71284" x2="28.3324" y2="8.9227" gradientUnits="userSpaceOnUse">
<stop stop-color="#D06D00"/>
<stop offset="1" stop-color="#F3C55B"/>
</linearGradient>
</defs>
</svg>
