<svg width="64" height="64" viewBox="0 0 64 64" fill="none" xmlns="http://www.w3.org/2000/svg">
<g clip-path="url(#clip0_6_209)">
<path d="M25.2512 44.8502C25.0095 44.8502 24.766 44.7671 24.5672 44.5979L17.73 38.776C17.4941 38.5749 17.3585 38.2813 17.3585 37.9711C17.3585 37.6616 17.4947 37.3679 17.73 37.1669L24.5672 31.3449C25.0112 30.9664 25.6781 31.0201 26.0566 31.464C26.4346 31.9086 26.3815 32.5755 25.9369 32.9534L20.0448 37.9711L25.9369 42.9888C26.3815 43.3673 26.4346 44.0342 26.0566 44.4782C25.8473 44.7241 25.5501 44.8502 25.2512 44.8502Z" fill="url(#paint0_linear_6_209)"/>
<path d="M38.7488 44.8502C38.4499 44.8502 38.1527 44.7241 37.944 44.4782C37.5655 44.0342 37.6191 43.3673 38.0631 42.9888L43.9552 37.9711L38.0631 32.9534C37.6191 32.5755 37.5655 31.9086 37.944 31.464C38.3219 31.0201 38.9894 30.9664 39.4328 31.3449L46.2701 37.1669C46.5059 37.3679 46.6415 37.6616 46.6415 37.9711C46.6415 38.2813 46.5059 38.5749 46.2701 38.776L39.4328 44.5979C39.2341 44.7671 38.9906 44.8502 38.7488 44.8502Z" fill="url(#paint1_linear_6_209)"/>
<path d="M29.5796 49.217C29.5071 49.217 29.4339 49.2093 29.3602 49.194C28.7895 49.0737 28.4239 48.513 28.5442 47.9422L32.8054 27.7105C32.9257 27.1398 33.4858 26.7742 34.0572 26.8945C34.6279 27.0148 34.9935 27.5749 34.8732 28.1462L30.612 48.378C30.5071 48.8756 30.0684 49.217 29.5796 49.217Z" fill="url(#paint2_linear_6_209)"/>
<path d="M56.9057 60.2394H7.09434C3.18278 60.2394 0 57.0572 0 53.145V10.8679C0 6.95634 3.18278 3.77356 7.09434 3.77356H56.9057C60.8172 3.77356 64 6.95634 64 10.8679V53.145C64 57.0572 60.8172 60.2394 56.9057 60.2394ZM7.09434 5.88677C4.34788 5.88677 2.11321 8.12144 2.11321 10.8679V53.145C2.11321 55.8915 4.34788 58.1262 7.09434 58.1262H56.9057C59.6521 58.1262 61.8868 55.8915 61.8868 53.145V10.8679C61.8868 8.12144 59.6521 5.88677 56.9057 5.88677H7.09434Z" fill="url(#paint3_linear_6_209)"/>
<path d="M62.9434 20.6928H1.0566C0.472877 20.6928 0 20.2199 0 19.6362C0 19.0531 0.472877 18.5796 1.0566 18.5796H62.9434C63.5271 18.5796 64 19.0531 64 19.6362C64 20.2199 63.5271 20.6928 62.9434 20.6928Z" fill="url(#paint4_linear_6_209)"/>
<path d="M18.053 15.6368C16.2099 15.6368 14.7093 14.1363 14.7093 12.2931C14.7093 10.4493 16.2099 8.94934 18.053 8.94934C19.8968 8.94934 21.3968 10.4493 21.3968 12.2931C21.3968 14.1363 19.8968 15.6368 18.053 15.6368ZM18.053 11.0625C17.375 11.0625 16.8225 11.6144 16.8225 12.2931C16.8225 12.9717 17.375 13.5236 18.053 13.5236C18.7317 13.5236 19.2836 12.9717 19.2836 12.2931C19.2836 11.6144 18.7317 11.0625 18.053 11.0625Z" fill="url(#paint5_linear_6_209)"/>
<path d="M7.77948 15.6044C5.93573 15.6044 4.43573 14.1044 4.43573 12.2606C4.43573 10.4169 5.93573 8.91687 7.77948 8.91687C9.62323 8.91687 11.1232 10.4169 11.1232 12.2606C11.1232 14.1044 9.62323 15.6044 7.77948 15.6044ZM7.77948 11.0301C7.10141 11.0301 6.54894 11.5826 6.54894 12.2606C6.54894 12.9393 7.10141 13.4912 7.77948 13.4912C8.45814 13.4912 9.01002 12.9393 9.01002 12.2606C9.01002 11.5826 8.45814 11.0301 7.77948 11.0301Z" fill="url(#paint6_linear_6_209)"/>
<path d="M28.3267 15.6686C26.4835 15.6686 24.9835 14.1686 24.9835 12.3249C24.9835 10.4817 26.4835 8.98169 28.3267 8.98169C30.1704 8.98169 31.6704 10.4817 31.6704 12.3249C31.6704 14.1686 30.1704 15.6686 28.3267 15.6686ZM28.3267 11.0943C27.6486 11.0943 27.0967 11.6462 27.0967 12.3249C27.0967 13.0035 27.6486 13.5554 28.3267 13.5554C29.0053 13.5554 29.5572 13.0035 29.5572 12.3249C29.5572 11.6462 29.0053 11.0943 28.3267 11.0943Z" fill="url(#paint7_linear_6_209)"/>
</g>
<defs>
<linearGradient id="paint0_linear_6_209" x1="17.3585" y1="27.3887" x2="29.8699" y2="29.7342" gradientUnits="userSpaceOnUse">
<stop stop-color="#D06D00"/>
<stop offset="1" stop-color="#F3C55B"/>
</linearGradient>
<linearGradient id="paint1_linear_6_209" x1="37.6917" y1="27.3887" x2="50.2027" y2="29.7341" gradientUnits="userSpaceOnUse">
<stop stop-color="#D06D00"/>
<stop offset="1" stop-color="#F3C55B"/>
</linearGradient>
<linearGradient id="paint2_linear_6_209" x1="28.5213" y1="20.8555" x2="37.684" y2="21.6088" gradientUnits="userSpaceOnUse">
<stop stop-color="#D06D00"/>
<stop offset="1" stop-color="#F3C55B"/>
</linearGradient>
<linearGradient id="paint3_linear_6_209" x1="-9.89875e-07" y1="-11.4288" x2="83.6829" y2="15.9041" gradientUnits="userSpaceOnUse">
<stop stop-color="#D06D00"/>
<stop offset="1" stop-color="#F3C55B"/>
</linearGradient>
<linearGradient id="paint4_linear_6_209" x1="-9.89875e-07" y1="18.0106" x2="1.20008" y2="28.4844" gradientUnits="userSpaceOnUse">
<stop stop-color="#D06D00"/>
<stop offset="1" stop-color="#F3C55B"/>
</linearGradient>
<linearGradient id="paint5_linear_6_209" x1="14.7093" y1="7.14886" x2="23.6444" y2="9.72371" gradientUnits="userSpaceOnUse">
<stop stop-color="#D06D00"/>
<stop offset="1" stop-color="#F3C55B"/>
</linearGradient>
<linearGradient id="paint6_linear_6_209" x1="4.43573" y1="7.11639" x2="13.3708" y2="9.69124" gradientUnits="userSpaceOnUse">
<stop stop-color="#D06D00"/>
<stop offset="1" stop-color="#F3C55B"/>
</linearGradient>
<linearGradient id="paint7_linear_6_209" x1="24.9835" y1="7.18137" x2="33.9178" y2="9.75599" gradientUnits="userSpaceOnUse">
<stop stop-color="#D06D00"/>
<stop offset="1" stop-color="#F3C55B"/>
</linearGradient>
<clipPath id="clip0_6_209">
<rect width="64" height="64" fill="white"/>
</clipPath>
</defs>
</svg>
