<svg width="121" height="43" viewBox="0 0 121 43" fill="none" xmlns="http://www.w3.org/2000/svg">
<g clip-path="url(#clip0_2_631)">
<path d="M60.25 0.529999H68.39V12.53H75.52V0.529999H83.65V29.85H75.54V19.03H68.41V29.85H60.25V7.06999" fill="url(#paint0_linear_2_631)"/>
<path d="M87.25 0.529999H98.35L103.91 20.9L109.48 0.529999H120.54V29.85H112.4V15.09L108.78 29.85H99.01L95.39 15.09V29.85H87.25V7.06999" fill="url(#paint1_linear_2_631)"/>
<path d="M27.41 12.82H20.59C20.7964 13.5658 20.9007 14.3362 20.9 15.11V15.28C20.9 19.56 17.75 23.04 13.9 23.04H7.41001C7.30753 23.0349 7.20707 23.0096 7.11439 22.9656C7.0217 22.9216 6.9386 22.8597 6.86986 22.7835C6.80112 22.7074 6.74809 22.6184 6.71379 22.5217C6.6795 22.425 6.66462 22.3225 6.67001 22.22V18.74H7.94014e-06V28.35C-0.00141547 28.8554 0.188586 29.3427 0.531802 29.7137C0.875017 30.0848 1.34599 30.3121 1.85001 30.35H13.85C21.42 30.35 27.56 23.58 27.56 15.24V15.07C27.5594 14.3175 27.5093 13.5659 27.41 12.82Z" fill="url(#paint2_linear_2_631)"/>
<path d="M6.67002 8.17C6.66463 8.06754 6.67951 7.96502 6.7138 7.86832C6.7481 7.77161 6.80113 7.68263 6.86987 7.60646C6.93861 7.53029 7.02171 7.46842 7.1144 7.42441C7.20708 7.3804 7.30754 7.35511 7.41002 7.34999H13.86C14.9143 7.3616 15.9513 7.61893 16.8887 8.10152C17.8261 8.58411 18.6381 9.27867 19.26 10.13H26.8C24.94 4.24001 19.85 0 13.86 0H1.86002C1.356 0.0379061 0.885026 0.265232 0.54181 0.636276C0.198595 1.00732 0.0085943 1.49456 0.0100177 2V11.61H6.68002L6.67002 8.17Z" fill="#282828"/>
<path d="M17.07 13.32H14.25C14.1606 13.1076 14.0124 12.9251 13.8229 12.794C13.6333 12.6629 13.4103 12.5886 13.18 12.58C12.8433 12.6091 12.5297 12.7633 12.3013 13.0124C12.0728 13.2614 11.946 13.5871 11.946 13.925C11.946 14.263 12.0728 14.5886 12.3013 14.8376C12.5297 15.0867 12.8433 15.2409 13.18 15.27C13.4109 15.2638 13.635 15.1906 13.825 15.0592C14.015 14.9278 14.1627 14.7439 14.25 14.53H17.56L19.78 12.08H27.25C27.18 11.67 27.09 11.27 26.98 10.87H19.25L17.07 13.32ZM13.14 14.42C13.0284 14.4036 12.9264 14.3476 12.8526 14.2622C12.7789 14.1769 12.7383 14.0678 12.7383 13.955C12.7383 13.8422 12.7789 13.7332 12.8526 13.6478C12.9264 13.5624 13.0284 13.5064 13.14 13.49C13.2516 13.5064 13.3535 13.5624 13.4273 13.6478C13.501 13.7332 13.5416 13.8422 13.5416 13.955C13.5416 14.0678 13.501 14.1769 13.4273 14.2622C13.3535 14.3476 13.2516 14.4036 13.14 14.42Z" fill="#282828"/>
<path d="M11.92 11.26H14.77C14.8601 11.4739 15.0098 11.6575 15.2013 11.7887C15.3928 11.9199 15.618 11.9932 15.85 12C16.1867 11.9709 16.5002 11.8167 16.7287 11.5676C16.9572 11.3186 17.0839 10.9929 17.0839 10.655C17.0839 10.3171 16.9572 9.9914 16.7287 9.74237C16.5002 9.49334 16.1867 9.33906 15.85 9.31C15.6173 9.31424 15.391 9.3866 15.1991 9.51813C15.0071 9.64965 14.858 9.83457 14.77 10.05H11.46L9.25 12.5H0V13.71H9.69L11.92 11.26ZM15.85 10.19C15.9658 10.1977 16.0742 10.2499 16.1525 10.3356C16.2307 10.4213 16.2728 10.534 16.27 10.65C16.2727 10.7078 16.2639 10.7655 16.2443 10.82C16.2246 10.8744 16.1944 10.9244 16.1554 10.9671C16.1164 11.0098 16.0693 11.0445 16.0169 11.069C15.9645 11.0935 15.9078 11.1074 15.85 11.11C15.7918 11.1088 15.7344 11.0958 15.6813 11.0717C15.6283 11.0476 15.5807 11.013 15.5414 10.97C15.5021 10.927 15.472 10.8765 15.4528 10.8214C15.4337 10.7664 15.4259 10.7081 15.43 10.65C15.4273 10.5922 15.4361 10.5344 15.4557 10.48C15.4754 10.4256 15.5056 10.3756 15.5446 10.3329C15.5836 10.2902 15.6307 10.2556 15.6831 10.231C15.7355 10.2065 15.7922 10.1926 15.85 10.19Z" fill="#282828"/>
<path d="M11.46 17.89H17.25C17.339 18.1047 17.4885 18.2889 17.6802 18.4203C17.8719 18.5516 18.0977 18.6245 18.33 18.63C18.6572 18.59 18.9585 18.4316 19.1769 18.1847C19.3954 17.9379 19.516 17.6196 19.516 17.29C19.516 16.9604 19.3954 16.6421 19.1769 16.3953C18.9585 16.1484 18.6572 15.99 18.33 15.95C18.0991 15.9559 17.8747 16.0278 17.6833 16.1571C17.4919 16.2865 17.3416 16.4679 17.25 16.68H11.92L10.02 14.59H0.0200195V15.8H9.58002L11.46 17.89ZM18.25 16.83C18.3078 16.8326 18.3645 16.8465 18.417 16.871C18.4694 16.8956 18.5164 16.9302 18.5554 16.9729C18.5944 17.0156 18.6246 17.0656 18.6443 17.12C18.664 17.1744 18.6727 17.2322 18.67 17.29C18.67 17.4014 18.6258 17.5082 18.547 17.587C18.4682 17.6658 18.3614 17.71 18.25 17.71C18.1386 17.71 18.0318 17.6658 17.953 17.587C17.8743 17.5082 17.83 17.4014 17.83 17.29C17.8273 17.2322 17.8361 17.1744 17.8557 17.12C17.8754 17.0656 17.9056 17.0156 17.9446 16.9729C17.9836 16.9302 18.0307 16.8956 18.0831 16.871C18.1355 16.8465 18.1922 16.8326 18.25 16.83Z" fill="#282828"/>
<path d="M9.79002 20.34H14.79C14.88 20.5297 15.0214 20.6902 15.1982 20.8034C15.3751 20.9166 15.5801 20.9778 15.79 20.98C16.0918 20.9416 16.3692 20.7945 16.5702 20.5662C16.7713 20.3379 16.8822 20.0442 16.8822 19.74C16.8822 19.4358 16.7713 19.1421 16.5702 18.9138C16.3692 18.6855 16.0918 18.5384 15.79 18.5C15.5809 18.5002 15.3761 18.5594 15.1992 18.6708C15.0223 18.7823 14.8804 18.9415 14.79 19.13H10.25L8.02002 16.68H0.0200195V17.89H7.59002L9.79002 20.34ZM15.73 19.34C15.8163 19.3319 15.903 19.3501 15.9788 19.3922C16.0546 19.4343 16.1159 19.4983 16.1546 19.5758C16.1934 19.6534 16.2078 19.7408 16.196 19.8266C16.1842 19.9125 16.1468 19.9928 16.0885 20.057C16.0303 20.1212 15.954 20.1663 15.8697 20.1864C15.7854 20.2065 15.697 20.2007 15.6161 20.1696C15.5351 20.1386 15.4655 20.0838 15.4162 20.0125C15.367 19.9412 15.3404 19.8567 15.34 19.77C15.3331 19.7138 15.3378 19.6567 15.354 19.6024C15.3702 19.5481 15.3975 19.4977 15.4342 19.4545C15.4708 19.4113 15.516 19.3761 15.567 19.3513C15.6179 19.3264 15.6734 19.3123 15.73 19.31V19.34Z" fill="#282828"/>
<path d="M57.5 10.76V19.62C58.4067 16.7362 58.4067 13.6437 57.5 10.76Z" fill="url(#paint3_linear_2_631)"/>
<path d="M43.46 22.27H43.3V29.92H43.46C44.308 29.918 45.1543 29.8444 45.99 29.7V21.81C45.1819 22.1169 44.3244 22.2728 43.46 22.27Z" fill="url(#paint4_linear_2_631)"/>
<path d="M43.46 8.11C44.325 8.11035 45.1826 8.26967 45.99 8.58V0.690002C45.1543 0.545615 44.308 0.472019 43.46 0.470001H43.3V8.11H43.46Z" fill="url(#paint5_linear_2_631)"/>
<path d="M49.25 1.63C48.6695 1.39093 48.0751 1.18722 47.47 1.02V9.33C48.1594 9.79469 48.7619 10.3769 49.25 11.05V1.63Z" fill="url(#paint6_linear_2_631)"/>
<path d="M49.25 28.75V19.33C48.7622 20.0062 48.1598 20.5917 47.47 21.06V29.42C48.0764 29.2331 48.6708 29.0093 49.25 28.75Z" fill="url(#paint7_linear_2_631)"/>
<path d="M51.77 27.34V3.03999C51.3621 2.75862 50.9381 2.50152 50.5 2.27V14.53C50.5 14.75 50.5 14.97 50.5 15.19C50.5 15.41 50.5 15.64 50.5 15.86V28.12C50.9361 27.8814 51.36 27.621 51.77 27.34Z" fill="url(#paint8_linear_2_631)"/>
<path d="M53.11 4.08V26.3C53.45 26.01 53.77 25.7 54.11 25.37V5.00999C53.77 4.68999 53.45 4.42 53.11 4.08Z" fill="url(#paint9_linear_2_631)"/>
<path d="M56.1 22.72V7.66C55.89 7.3 55.66 6.95 55.42 6.61V23.77C55.66 23.42 55.89 23.08 56.1 22.72Z" fill="url(#paint10_linear_2_631)"/>
<path d="M41.81 22.07C40.2608 21.7034 38.8806 20.8247 37.893 19.576C36.9053 18.3274 36.368 16.782 36.368 15.19C36.368 13.598 36.9053 12.0526 37.893 10.804C38.8806 9.55533 40.2608 8.67659 41.81 8.31V0.569992C38.2184 0.980021 34.9033 2.6973 32.4966 5.39447C30.0898 8.09165 28.7596 11.5801 28.7596 15.195C28.7596 18.8099 30.0898 22.2984 32.4966 24.9955C34.9033 27.6927 38.2184 29.41 41.81 29.82V22.07Z" fill="#282828"/>
<path d="M119.97 31.65H0.53C0.389435 31.65 0.254628 31.7058 0.155233 31.8052C0.0558391 31.9046 0 32.0394 0 32.18V42.31C0 42.4506 0.0558391 42.5854 0.155233 42.6848C0.254628 42.7842 0.389435 42.84 0.53 42.84H119.97C120.111 42.84 120.245 42.7842 120.345 42.6848C120.444 42.5854 120.5 42.4506 120.5 42.31V32.18C120.5 32.0394 120.444 31.9046 120.345 31.8052C120.245 31.7058 120.111 31.65 119.97 31.65ZM8.81 38.92C8.81 40.67 8.21 41.12 5.81 41.12H5.45C2.37 41.12 1.94 40.76 1.94 39V38.64H3.48V38.91C3.48 39.82 3.76 40 5.31 40H5.55C6.98 40 7.23 39.84 7.23 39V38.86C7.23 38.1 7 37.86 5.12 37.78C2.46 37.6 2.01 37.11 2.01 35.62V35.42C2.01 33.93 2.6 33.42 5.01 33.42H5.34C8.11 33.42 8.58 33.89 8.58 35.47V35.78H7.06V35.54C7.06 34.74 6.81 34.54 5.4 34.54H5.16C3.83 34.54 3.57 34.72 3.57 35.54V35.7C3.57 36.39 3.76 36.56 5.65 36.7C8.34 36.9 8.81 37.32 8.81 38.86V38.92ZM24.07 38.48V41.04H22.43V38.48L19.43 33.48H21.2L23.25 37.19L25.25 33.45H27.03L24.07 38.48ZM44.58 38.92C44.58 40.67 43.99 41.12 41.58 41.12H41.25C38.17 41.12 37.74 40.76 37.74 39V38.64H39.25V38.91C39.25 39.82 39.53 40 41.08 40H41.32C42.74 40 43 39.84 43 39V38.86C43 38.1 42.77 37.86 40.89 37.78C38.23 37.6 37.77 37.11 37.77 35.62V35.42C37.77 33.93 38.37 33.42 40.77 33.42H41.1C43.87 33.42 44.34 33.89 44.34 35.47V35.78H42.84V35.54C42.84 34.74 42.59 34.54 41.18 34.54H40.94C39.61 34.54 39.35 34.72 39.35 35.54V35.7C39.35 36.39 39.54 36.56 41.43 36.7C44.12 36.9 44.58 37.32 44.58 38.86V38.92ZM62.09 34.59H59.57V41.04H57.93V34.59H55.41V33.42H62.09V34.59ZM79.09 41.04H73.12V33.42H79V34.54H74.76V36.54H78.76V37.61H74.76V39.83H79.07L79.09 41.04ZM100.21 41.04H98.66V34.67L96.05 41.04H94.51L91.9 34.67L91.96 41.04H90.42V33.42H92.92L95.34 39.54L97.74 33.42H100.21V41.04ZM118.58 38.92C118.58 40.67 117.98 41.12 115.58 41.12H115.25C112.17 41.12 111.74 40.76 111.74 39V38.64H113.25V38.91C113.25 39.82 113.53 40 115.08 40H115.32C116.75 40 117 39.84 117 39V38.86C117 38.1 116.77 37.86 114.89 37.78C112.23 37.6 111.78 37.11 111.78 35.62V35.42C111.78 33.93 112.37 33.42 114.78 33.42H115.11C117.89 33.42 118.35 33.89 118.35 35.47V35.78H116.83V35.54C116.83 34.74 116.57 34.54 115.16 34.54H114.92C113.6 34.54 113.33 34.72 113.33 35.54V35.7C113.33 36.39 113.52 36.56 115.41 36.7C118.1 36.9 118.57 37.32 118.57 38.86L118.58 38.92Z" fill="#282828"/>
</g>
<defs>
<linearGradient id="paint0_linear_2_631" x1="71.77" y1="9.72" x2="72.72" y2="35.04" gradientUnits="userSpaceOnUse">
<stop stop-color="#D06D00"/>
<stop offset="1" stop-color="#F3C55B"/>
</linearGradient>
<linearGradient id="paint1_linear_2_631" x1="103.61" y1="8.53" x2="104.55" y2="33.85" gradientUnits="userSpaceOnUse">
<stop stop-color="#D06D00"/>
<stop offset="1" stop-color="#F3C55B"/>
</linearGradient>
<linearGradient id="paint2_linear_2_631" x1="13.42" y1="11.9" x2="14.37" y2="37.23" gradientUnits="userSpaceOnUse">
<stop stop-color="#D06D00"/>
<stop offset="1" stop-color="#F3C55B"/>
</linearGradient>
<linearGradient id="paint3_linear_2_631" x1="57.58" y1="10.25" x2="58.52" y2="35.57" gradientUnits="userSpaceOnUse">
<stop stop-color="#D06D00"/>
<stop offset="1" stop-color="#F3C55B"/>
</linearGradient>
<linearGradient id="paint4_linear_2_631" x1="44.08" y1="10.75" x2="45.03" y2="36.08" gradientUnits="userSpaceOnUse">
<stop stop-color="#D06D00"/>
<stop offset="1" stop-color="#F3C55B"/>
</linearGradient>
<linearGradient id="paint5_linear_2_631" x1="44.88" y1="10.72" x2="45.83" y2="36.05" gradientUnits="userSpaceOnUse">
<stop stop-color="#D06D00"/>
<stop offset="1" stop-color="#F3C55B"/>
</linearGradient>
<linearGradient id="paint6_linear_2_631" x1="48.5" y1="10.59" x2="49.45" y2="35.91" gradientUnits="userSpaceOnUse">
<stop stop-color="#D06D00"/>
<stop offset="1" stop-color="#F3C55B"/>
</linearGradient>
<linearGradient id="paint7_linear_2_631" x1="47.79" y1="10.61" x2="48.74" y2="35.94" gradientUnits="userSpaceOnUse">
<stop stop-color="#D06D00"/>
<stop offset="1" stop-color="#F3C55B"/>
</linearGradient>
<linearGradient id="paint8_linear_2_631" x1="50.95" y1="10.5" x2="51.89" y2="35.82" gradientUnits="userSpaceOnUse">
<stop stop-color="#D06D00"/>
<stop offset="1" stop-color="#F3C55B"/>
</linearGradient>
<linearGradient id="paint9_linear_2_631" x1="53.4" y1="10.41" x2="54.35" y2="35.73" gradientUnits="userSpaceOnUse">
<stop stop-color="#D06D00"/>
<stop offset="1" stop-color="#F3C55B"/>
</linearGradient>
<linearGradient id="paint10_linear_2_631" x1="55.56" y1="10.32" x2="56.51" y2="35.65" gradientUnits="userSpaceOnUse">
<stop stop-color="#D06D00"/>
<stop offset="1" stop-color="#F3C55B"/>
</linearGradient>
<clipPath id="clip0_2_631">
<rect width="120.5" height="42.83" fill="white"/>
</clipPath>
</defs>
</svg>
