<svg width="538" height="518" viewBox="0 0 538 518" fill="none" xmlns="http://www.w3.org/2000/svg">
<ellipse cx="337.974" cy="491.137" rx="200.026" ry="26.5286" fill="#E6E6E6"/>
<path d="M464.549 85.1487V157.699C471.974 134.086 471.974 108.762 464.549 85.1487Z" fill="url(#paint0_linear_48_1018)"/>
<path d="M349.581 179.399H348.271V242.042H349.581C356.525 242.025 363.456 241.422 370.298 240.24V175.632C363.682 178.145 356.659 179.422 349.581 179.399Z" fill="url(#paint1_linear_48_1018)"/>
<path d="M349.581 63.4492C356.664 63.4521 363.687 64.7567 370.298 67.2978V2.69006C363.456 1.50774 356.525 0.905092 349.581 0.888565H348.271V63.4492H349.581Z" fill="url(#paint2_linear_48_1018)"/>
<path d="M396.993 10.3872C392.24 8.42946 387.373 6.76139 382.418 5.39214V73.4391C388.064 77.2442 392.997 82.0114 396.993 87.5234V10.3872Z" fill="url(#paint3_linear_48_1018)"/>
<path d="M396.993 232.461V155.325C392.999 160.862 388.066 165.656 382.418 169.491V237.947C387.383 236.417 392.251 234.585 396.993 232.461Z" fill="url(#paint4_linear_48_1018)"/>
<path d="M417.629 220.915V21.933C414.289 19.6289 410.817 17.5236 407.229 15.6279V116.02C407.229 117.821 407.229 119.623 407.229 121.424C407.229 123.226 407.229 125.109 407.229 126.91V227.302C410.8 225.348 414.271 223.217 417.629 220.915Z" fill="url(#paint5_linear_48_1018)"/>
<path d="M428.601 30.4492V212.399C431.386 210.024 434.006 207.486 436.79 204.784V38.0645C434.006 35.4442 431.386 33.2333 428.601 30.4492Z" fill="url(#paint6_linear_48_1018)"/>
<path d="M453.085 183.084V59.7645C451.365 56.8166 449.482 53.9506 447.517 51.1665V191.682C449.482 188.816 451.365 186.032 453.085 183.084Z" fill="url(#paint7_linear_48_1018)"/>
<path d="M336.071 177.762C323.385 174.76 312.083 167.564 303.996 157.34C295.908 147.115 291.509 134.461 291.509 121.424C291.509 108.388 295.908 95.7332 303.996 85.5088C312.083 75.2844 323.385 68.0888 336.071 65.0869V1.70734C306.661 5.06488 279.515 19.1269 259.807 41.2129C240.099 63.2989 229.207 91.8645 229.207 121.465C229.207 151.066 240.099 179.631 259.807 201.717C279.515 223.803 306.661 237.865 336.071 241.223V177.762Z" fill="#282828"/>
<path d="M518.672 426.111C528.032 426.658 535.683 420.115 535.683 411.524V101.868C535.683 93.2769 528.032 86.5647 518.672 86.9045L76.8669 102.936C69.7087 103.196 63.9091 109.48 63.9091 116.945V386.003C63.9091 393.468 69.7087 399.88 76.8669 400.299L518.672 426.111Z" fill="url(#paint8_linear_48_1018)"/>
<path d="M230.633 460.385C237.695 457.927 242.973 451.639 244.461 443.911L254.739 390.541L342.659 393.817L353.479 449.416C354.995 457.203 348.928 465.015 341.942 467.883L305.158 482.983C298.317 485.791 290.962 486.91 283.653 486.254L205.916 479.277C203.643 479.073 201.821 477.198 201.556 474.794C201.292 472.39 199.7 469.69 201.866 468.936L230.633 460.385Z" fill="url(#paint9_linear_48_1018)"/>
<path d="M229.763 457.139C236.817 454.712 242.09 448.504 243.577 440.872L253.844 388.173L339.621 391.411L350.431 446.312C351.945 454.001 347.939 461.711 340.96 464.543L304.213 479.453C297.378 482.226 290.032 483.331 282.73 482.683L205.07 475.793C202.8 475.592 200.979 473.741 200.715 471.367C200.451 468.993 201.817 466.752 203.981 466.007L229.763 457.139Z" fill="#282828"/>
<path d="M515.174 426.111C524.534 426.658 532.185 420.115 532.185 411.524V101.868C532.185 93.2769 524.534 86.5647 515.174 86.9045L73.3693 102.936C66.2111 103.196 60.4116 109.48 60.4116 116.945V386.003C60.4116 393.468 66.2111 399.88 73.3693 400.299L515.174 426.111Z" fill="#585858"/>
<path d="M73.3693 109.265L515.174 94.1232C520.179 93.9517 524.246 97.5328 524.246 102.122V343.04V411.094C524.246 415.683 520.179 419.174 515.174 418.892L73.3693 393.97C69.5332 393.753 66.4304 390.333 66.4304 386.328V324.839V116.753C66.4302 112.749 69.5332 109.396 73.3693 109.265Z" fill="#282828"/>
<path d="M515.174 392.566C517.123 392.661 518.71 391.286 518.71 389.501V102.299C518.71 100.514 517.123 99.1129 515.174 99.1769L73.3692 113.695C71.8732 113.744 70.6567 115.056 70.6567 116.618V367.925C70.6567 369.487 71.873 370.818 73.3692 370.891L515.174 392.566Z" fill="white"/>
<path d="M88.4148 355.406L495.794 373.296V142.1L88.4148 150.651V355.406Z" fill="url(#paint10_linear_48_1018)"/>
<path d="M88.4148 143.656L495.794 134.202V114.457L88.4148 126.169V143.656Z" fill="#EBB146"/>
<path d="M119.356 134.109C119.356 135.357 120.339 136.345 121.553 136.314C122.767 136.283 123.753 135.245 123.753 133.994C123.753 132.744 122.767 131.757 121.553 131.789C120.339 131.822 119.356 132.86 119.356 134.109Z" fill="white"/>
<path d="M110.339 134.343C110.339 135.588 111.317 136.573 112.524 136.542C113.732 136.512 114.712 135.476 114.712 134.229C114.712 132.982 113.732 131.998 112.524 132.03C111.317 132.062 110.339 133.098 110.339 134.343Z" fill="white"/>
<path d="M101.374 134.576C101.374 135.817 102.346 136.799 103.546 136.769C104.747 136.739 105.722 135.706 105.722 134.463C105.722 133.219 104.747 132.238 103.546 132.27C102.346 132.302 101.374 133.334 101.374 134.576Z" fill="white"/>
<g opacity="0.68">
<path d="M170.866 318.507L486.909 328.43V148.106L170.866 154.222V318.507Z" fill="white"/>
</g>
<path opacity="0.68" d="M92.7665 201.981L165.339 201.639V154.329L92.7665 155.733V201.981Z" fill="white"/>
<path d="M92.7665 210.453L165.339 210.306V206.763L92.7665 206.99V210.453Z" fill="white"/>
<path d="M119.769 216.431L165.339 216.425V212.883L119.769 212.939V216.431Z" fill="white"/>
<path opacity="0.68" d="M92.7665 269.826L165.339 271.042V223.732L92.7665 223.578V269.826Z" fill="white"/>
<path d="M92.7665 278.298L165.339 279.709V276.167L92.7665 274.835V278.298Z" fill="white"/>
<path d="M119.769 284.856L165.339 285.828V282.286L119.769 281.363V284.856Z" fill="white"/>
<path opacity="0.68" d="M92.7665 337.67L165.339 340.446V293.135L92.7665 291.422V337.67Z" fill="white"/>
<path d="M92.7665 346.142L165.339 349.112V345.57L92.7665 342.679V346.142Z" fill="white"/>
<path d="M119.769 353.28L165.339 355.231V351.689L119.769 349.788V353.28Z" fill="white"/>
<path d="M268.197 340.629L486.909 348.746V336.892L268.197 329.504V340.629Z" fill="white"/>
<path d="M170.866 337.016L202.07 338.174V327.27L170.866 326.216V337.016Z" fill="white"/>
<path d="M206.891 338.353L238.797 339.537V328.511L206.891 327.433V338.353Z" fill="white"/>
<path d="M386.848 358.955L486.909 363.073V357.145L386.848 353.195V358.955Z" fill="white"/>
<path d="M39.2632 106.558L39.8725 170.185C39.9697 180.16 48.1023 188.109 58.0823 188.109H193.09C203.827 188.109 212.416 179.802 212.226 169.382L212.109 162.941L212.083 161.657L211.003 102.926C210.824 93.0536 202.727 85.1811 192.686 84.7409C192.225 84.7205 191.754 84.7199 191.283 84.7301L191.104 84.7376L57.033 88.178C47.1041 88.4289 39.1713 96.6547 39.2632 106.558Z" fill="#D16E01"/>
<path d="M180.1 188.109H247.141C248.559 188.109 249.086 186.496 247.899 185.734L214.176 164.266L212.109 162.978L201.919 156.486L200.45 155.411L180.1 188.109Z" fill="url(#paint11_linear_48_1018)"/>
<path d="M41.3157 106.558L41.9247 170.334C42.0219 180.222 50.006 188.114 59.8632 188.252C59.9505 188.257 60.0424 188.109 60.1296 188.109H195.137C205.875 188.109 214.468 179.802 214.273 169.382L214.176 164.266L214.156 162.978L213.05 102.926C212.861 92.593 204.012 84.4545 193.336 84.7257L192.686 84.7457L190.685 84.7991L59.0802 88.1782C49.1563 88.4289 41.2184 96.6547 41.3157 106.558Z" fill="url(#paint12_linear_48_1018)"/>
<path d="M41.3157 106.558L41.9247 170.334C42.0219 180.222 50.006 188.114 59.8632 188.252C59.9505 188.257 60.0424 188.109 60.1296 188.109H195.137C205.875 188.109 214.468 179.802 214.273 169.382L214.176 164.266L214.156 162.978L213.05 102.926C212.861 92.593 204.012 84.4545 193.336 84.7257L192.686 84.7457L190.685 84.7991L59.0802 88.1782C49.1563 88.4289 41.2184 96.6547 41.3157 106.558Z" fill="url(#paint13_linear_48_1018)"/>
<path d="M182.153 188.109H249.189C250.612 188.109 251.139 186.497 249.946 185.734L214.156 162.941L212.083 161.657L202.497 155.55L201.919 156.348L182.153 188.109Z" fill="#DB891D"/>
<path d="M144.09 130.07V123.575L157.19 131.293L166.933 137.061V140.874L144.09 152.727V146.258L160.112 138.678L154.425 135.618L144.09 130.07Z" fill="white"/>
<path d="M125.896 118.406L135.19 146.601L139.034 158.27L132.381 158.337L128.895 147.799L119.14 118.314L125.896 118.406Z" fill="white"/>
<path d="M114.14 123.263V129.876L97.1229 138.581L114.14 146.35V152.932L106.215 149.089L89.2671 140.859V136.862L114.14 123.263Z" fill="white"/>
<path d="M161.027 476.739C151.947 467.143 140.128 451.733 135.617 430.669C129.702 403.043 141.553 389.965 143.042 343.877C143.984 314.736 144.347 294.39 130.324 282.663C119.336 273.472 100.828 270.676 89.0657 277.89C79.2859 283.889 73.025 297.511 70.776 307.366C68.943 315.398 69.6782 321.353 64.748 325.349C59.7095 329.432 54.6973 326.653 50.0364 329.622C40.5842 335.644 44.5406 357.685 45.1801 361.247C52.2933 400.874 86.7237 429.359 101.892 441.604C114.434 451.728 133.954 465.386 161.027 476.739Z" fill="url(#paint14_linear_48_1018)"/>
<mask id="mask0_48_1018" style="mask-type:luminance" maskUnits="userSpaceOnUse" x="43" y="273" width="119" height="204">
<path d="M161.027 476.739C151.947 467.143 140.128 451.733 135.617 430.669C129.702 403.043 141.553 389.965 143.042 343.877C143.984 314.736 144.347 294.39 130.324 282.663C119.336 273.472 100.828 270.676 89.0657 277.89C79.2859 283.889 73.025 297.511 70.776 307.366C68.943 315.398 69.6782 321.353 64.748 325.349C59.7095 329.432 54.6973 326.653 50.0364 329.622C40.5842 335.644 44.5406 357.685 45.1801 361.247C52.2933 400.874 86.7237 429.359 101.892 441.604C114.434 451.728 133.954 465.386 161.027 476.739Z" fill="white"/>
</mask>
<g mask="url(#mask0_48_1018)">
<g opacity="0.5">
<path d="M171.563 484.666L171.942 483.823C143.247 470.923 107.719 448.31 101.419 413.841C99.1022 401.165 100.957 388.279 103.524 370.445C105.573 356.208 108.31 346.301 110.724 337.561C113.882 326.131 116.375 317.103 115.805 303.752C115.227 290.205 111.582 276.556 104.974 263.184L104.146 263.594C110.696 276.85 114.308 290.374 114.881 303.791C115.445 316.997 112.968 325.963 109.833 337.314C107.411 346.081 104.666 356.018 102.608 370.314C100.126 387.56 98.1652 401.183 100.509 414.007C103.507 430.408 113.427 445.72 129.995 459.518C141.183 468.835 155.168 477.296 171.563 484.666Z" fill="white"/>
<path d="M104.507 360.447L104.998 360.267C105.095 360.231 114.884 356.572 124.994 347.333C134.325 338.806 145.863 323.64 147.845 299.817L146.923 299.74C144.967 323.265 133.579 338.235 124.37 346.65C115.671 354.6 107.245 358.351 105.165 359.205C98.8754 332.864 85.945 315.811 76.172 306.123C65.5026 295.546 56.1676 291.211 56.0744 291.169L55.6901 292.01C55.7817 292.052 64.9955 296.336 75.5524 306.811C85.2919 316.474 98.2003 333.535 104.388 359.938L104.507 360.447Z" fill="white"/>
<path d="M100.119 399.071L100.325 398.806C100.427 398.674 110.655 385.52 123.49 374.341C136.248 363.229 164.734 360.796 165.02 360.773L164.945 359.851C164.655 359.875 135.868 362.334 122.883 373.644C110.993 384 101.33 396.039 99.8029 397.973C70.7343 387.091 43.2369 315.899 42.9616 315.178L42.0975 315.509C42.1669 315.69 49.1572 333.886 59.692 353.151C73.871 379.079 87.3662 394.491 99.8031 398.958L100.119 399.071Z" fill="white"/>
<path d="M125.72 455.76L125.308 454.936C118.524 441.343 120.444 427.606 131.016 414.105C138.936 403.99 149.011 397.822 149.112 397.76L148.632 396.97C148.53 397.031 138.329 403.274 130.303 413.515C119.848 426.856 117.703 441.01 124.073 454.509C120.691 453.813 108.183 450.997 92.7044 444.545C76.0173 437.588 52.364 424.861 34.4439 403.735L-0.373175 362.687L-1.07837 363.285L33.7387 404.333C51.7836 425.607 75.5833 438.412 92.3712 445.408C110.556 452.986 124.672 455.572 124.812 455.597L125.72 455.76Z" fill="white"/>
</g>
</g>
<path d="M132.044 484.441C111.37 487.211 84.6383 487.789 57.9214 479.573C51.1031 477.476 8.98321 464.522 11.3818 445.784C12.2268 439.183 17.882 437.439 19.1659 428.633C20.6872 418.199 13.7209 413.97 7.73923 401.967C4.16997 394.806 -6.27544 373.847 5.32099 360.033C12.2507 351.779 26.7379 346.449 38.4342 347.658C55.5901 349.43 63.3795 364.92 76.1059 391.357C87.3875 414.793 86.0515 421.067 94.4698 437.801C100.717 450.221 111.645 467.024 132.044 484.441Z" fill="url(#paint15_linear_48_1018)"/>
<mask id="mask1_48_1018" style="mask-type:luminance" maskUnits="userSpaceOnUse" x="0" y="347" width="133" height="140">
<path d="M132.044 484.441C111.37 487.211 84.6383 487.789 57.9214 479.573C51.1031 477.476 8.98321 464.522 11.3818 445.784C12.2268 439.183 17.882 437.439 19.1659 428.633C20.6872 418.199 13.7209 413.97 7.73923 401.967C4.16997 394.806 -6.27544 373.847 5.32099 360.033C12.2507 351.779 26.7379 346.449 38.4342 347.658C55.5901 349.43 63.3795 364.92 76.1059 391.357C87.3875 414.793 86.0515 421.067 94.4698 437.801C100.717 450.221 111.645 467.024 132.044 484.441Z" fill="white"/>
</mask>
<g mask="url(#mask1_48_1018)">
<g opacity="0.5">
<path d="M169.38 490.127C186.614 490.127 204.09 486.559 221.505 479.469L221.157 478.612C199.274 487.521 177.299 490.834 155.848 488.456C79.0849 479.953 41.2985 398.811 31.5459 374.145C26.0124 360.15 24.6901 344.043 27.6157 326.271L26.7034 326.12C23.7499 344.06 25.0899 360.332 30.6861 374.485C38.7123 394.785 53.3359 424.16 77.4226 448.816C100.597 472.539 126.949 486.185 155.746 489.376C160.27 489.877 164.816 490.127 169.38 490.127Z" fill="white"/>
<path d="M50.8564 414.072L51.075 413.719C51.1237 413.639 56.0136 405.662 59.3027 394.015C62.341 383.253 64.6022 367.056 58.1155 351.014L57.2583 351.361C63.6425 367.151 61.4139 383.121 58.4198 393.737C55.558 403.885 51.4721 411.211 50.5011 412.875C3.04063 389.919 -0.671431 357.256 -0.675179 347.772C-0.675554 347.478 -0.676114 347.372 -0.686984 347.294L-1.60376 347.413C-1.59926 347.467 -1.6002 347.588 -1.6002 347.772C-1.59664 357.418 2.17014 390.694 50.4814 413.892L50.8564 414.072Z" fill="white"/>
<path d="M48.8668 452.722C57.0785 452.722 66.6055 451.564 77.4776 448.527L77.716 448.461L77.7928 448.226C77.8805 447.958 86.4793 421.061 79.4967 386.866L72.4586 352.396L71.5527 352.581L78.5908 387.051C85.1787 419.315 77.8123 444.996 76.9866 447.704C50.7728 454.972 32.5116 451.218 21.7962 446.78C10.1562 441.959 4.6648 435.314 4.61064 435.247L3.8927 435.83C4.11796 436.108 9.55111 442.696 21.3852 447.611C27.8296 450.288 36.9652 452.722 48.8668 452.722Z" fill="white"/>
</g>
</g>
<path d="M158.918 329.443L173.242 490.174C173.458 492.608 171.769 494.772 169.482 494.982L91.9841 502.964C87.3474 503.211 84.894 500.696 84.6858 498.169L70.9381 331.289C70.7352 328.825 73.0378 326.503 77.6186 326.335L154.406 325.206C156.678 325.163 158.706 327.069 158.918 329.443Z" fill="url(#paint16_linear_48_1018)"/>
<path d="M162.438 329.044L176.892 490.737C177.111 493.185 175.412 495.363 173.112 495.575L92.6985 502.996C90.233 503.223 88.04 501.328 87.8299 498.785L73.9601 330.898C73.7555 328.42 75.5939 326.354 78.0412 326.308L157.899 324.782C160.184 324.738 162.225 326.656 162.438 329.044Z" fill="url(#paint17_linear_48_1018)"/>
<path d="M160.651 337.966L174.018 487.837C174.222 490.122 172.633 492.152 170.484 492.347L94.8813 499.212C92.5869 499.42 90.5461 497.653 90.3499 495.284L77.4903 340.023C77.2988 337.711 79.0098 335.777 81.2886 335.725L156.408 333.996C158.544 333.947 160.452 335.733 160.651 337.966Z" fill="white"/>
<path d="M160.651 337.966C160.452 335.733 158.544 333.947 156.408 333.996L81.2884 335.725C79.0097 335.777 77.2986 337.711 77.4901 340.023L79.3304 362.245L162.637 360.232L160.651 337.966Z" fill="#EBB146"/>
<path d="M120.542 330.411C120.615 331.254 120.01 331.952 119.19 331.97C118.37 331.987 117.646 331.318 117.574 330.474C117.501 329.63 118.108 328.932 118.927 328.915C119.747 328.899 120.469 329.568 120.542 330.411Z" fill="url(#paint18_linear_48_1018)"/>
<path d="M130.933 421.773L93.3445 423.629L88.1552 370.505L125.952 369.541L130.933 421.773Z" fill="url(#paint19_linear_48_1018)"/>
<path d="M158.809 420.396L136.728 421.487L131.78 369.392L153.981 368.826L158.809 420.396Z" fill="url(#paint20_linear_48_1018)"/>
<path d="M162.7 461.96L97.5261 466.437L94.0197 430.541L159.438 427.107L162.7 461.96Z" fill="url(#paint21_linear_48_1018)"/>
<path d="M164.731 483.656L99.7088 488.78L98.1379 472.7L163.27 468.041L164.731 483.656Z" fill="url(#paint22_linear_48_1018)"/>
<g opacity="0.48">
<path d="M143.117 440.043C135.321 412.807 112.592 415.53 105.794 390.918C100.212 370.705 113.084 360.049 105.276 343.126C101.603 335.167 95.1697 329.786 88.498 326.108L78.0408 326.308C75.5933 326.354 73.7549 328.42 73.9595 330.898L87.8292 498.785C88.0394 501.329 90.2324 503.224 92.6979 502.996L158.63 496.911C154.414 491.563 150.414 485.018 147.637 477.156C141.761 460.515 147.427 455.105 143.117 440.043Z" fill="white"/>
</g>
<path d="M271.657 230.662H255.002C254.474 229.408 253.599 228.33 252.48 227.556C251.36 226.781 250.043 226.343 248.683 226.292C246.694 226.464 244.843 227.375 243.493 228.845C242.144 230.316 241.396 232.239 241.396 234.235C241.396 236.231 242.144 238.154 243.493 239.625C244.843 241.096 246.694 242.007 248.683 242.179C250.047 242.142 251.371 241.709 252.493 240.933C253.615 240.157 254.487 239.072 255.002 237.808H274.551L287.661 223.339H331.778C331.365 220.918 330.833 218.555 330.184 216.193H284.531L271.657 230.662ZM248.447 237.159C247.788 237.062 247.185 236.731 246.75 236.227C246.314 235.723 246.075 235.079 246.075 234.412C246.075 233.746 246.314 233.102 246.75 232.598C247.185 232.094 247.788 231.763 248.447 231.666C249.106 231.763 249.708 232.094 250.144 232.598C250.579 233.102 250.819 233.746 250.819 234.412C250.819 235.079 250.579 235.723 250.144 236.227C249.708 236.731 249.106 237.062 248.447 237.159Z" fill="#D5B98D"/>
<path d="M241.242 218.496H258.073C258.605 219.76 259.49 220.844 260.62 221.619C261.751 222.393 263.081 222.827 264.452 222.867C266.44 222.695 268.292 221.784 269.641 220.313C270.991 218.842 271.739 216.919 271.739 214.923C271.739 212.927 270.991 211.004 269.641 209.533C268.292 208.063 266.44 207.151 264.452 206.98C263.078 207.005 261.741 207.432 260.608 208.209C259.474 208.986 258.593 210.078 258.073 211.35H238.525L225.473 225.819H170.844V232.966H228.072L241.242 218.496ZM264.452 212.177C265.136 212.223 265.776 212.531 266.238 213.037C266.7 213.543 266.949 214.208 266.932 214.894C266.948 215.235 266.896 215.576 266.78 215.897C266.664 216.219 266.486 216.514 266.255 216.767C266.025 217.019 265.747 217.223 265.438 217.368C265.128 217.513 264.793 217.595 264.452 217.61C264.108 217.603 263.769 217.526 263.456 217.384C263.142 217.242 262.861 217.038 262.629 216.784C262.397 216.53 262.219 216.231 262.106 215.906C261.993 215.581 261.947 215.237 261.971 214.894C261.955 214.552 262.007 214.211 262.123 213.89C262.239 213.568 262.418 213.273 262.648 213.021C262.878 212.769 263.156 212.564 263.466 212.419C263.775 212.275 264.11 212.192 264.452 212.177Z" fill="#D5B98D"/>
<path d="M238.525 257.652H272.72C273.246 258.92 274.129 260.008 275.261 260.784C276.393 261.56 277.726 261.99 279.098 262.023C281.031 261.786 282.81 260.851 284.1 259.393C285.39 257.935 286.103 256.055 286.103 254.109C286.103 252.162 285.39 250.282 284.1 248.824C282.81 247.367 281.031 246.431 279.098 246.195C277.735 246.23 276.409 246.654 275.279 247.418C274.149 248.182 273.261 249.254 272.72 250.506H241.242L230.021 238.163H170.963V245.309H227.422L238.525 257.652ZM278.626 251.392C278.967 251.407 279.302 251.49 279.612 251.634C279.921 251.779 280.199 251.983 280.43 252.236C280.66 252.488 280.838 252.783 280.955 253.105C281.071 253.426 281.122 253.767 281.106 254.109C281.106 254.766 280.845 255.397 280.38 255.863C279.915 256.328 279.284 256.589 278.626 256.589C277.968 256.589 277.337 256.328 276.872 255.863C276.407 255.397 276.146 254.766 276.146 254.109C276.13 253.767 276.181 253.426 276.297 253.105C276.413 252.783 276.592 252.488 276.822 252.236C277.053 251.983 277.331 251.779 277.64 251.634C277.95 251.49 278.285 251.407 278.626 251.392Z" fill="#D5B98D"/>
<path d="M228.663 272.121H258.192C258.723 273.241 259.558 274.19 260.603 274.858C261.647 275.526 262.858 275.888 264.098 275.901C265.88 275.674 267.518 274.805 268.705 273.457C269.893 272.109 270.548 270.374 270.548 268.578C270.548 266.781 269.893 265.046 268.705 263.698C267.518 262.35 265.88 261.481 264.098 261.255C262.863 261.256 261.653 261.605 260.608 262.263C259.563 262.922 258.726 263.862 258.192 264.975H231.379L218.209 250.506H170.963V257.652H215.67L228.663 272.121ZM263.743 266.215C264.253 266.168 264.765 266.275 265.213 266.524C265.66 266.772 266.022 267.15 266.251 267.608C266.48 268.066 266.565 268.582 266.495 269.09C266.426 269.597 266.204 270.071 265.861 270.45C265.517 270.829 265.066 271.096 264.568 271.214C264.07 271.333 263.548 271.298 263.07 271.115C262.592 270.932 262.181 270.608 261.89 270.187C261.599 269.766 261.442 269.267 261.44 268.755C261.399 268.423 261.427 268.086 261.523 267.765C261.618 267.444 261.78 267.147 261.996 266.892C262.213 266.636 262.48 266.429 262.78 266.282C263.081 266.135 263.409 266.052 263.743 266.038V266.215Z" fill="#D5B98D"/>
<path d="M385.893 230.662H402.547C403.075 229.408 403.95 228.33 405.069 227.556C406.189 226.781 407.506 226.343 408.866 226.292C410.855 226.464 412.706 227.375 414.056 228.845C415.405 230.316 416.154 232.239 416.154 234.235C416.154 236.231 415.405 238.154 414.056 239.625C412.706 241.096 410.855 242.007 408.866 242.179C407.502 242.142 406.179 241.709 405.057 240.933C403.934 240.157 403.062 239.072 402.547 237.808H382.999L369.888 223.339H325.771C326.185 220.918 326.716 218.555 327.366 216.193H373.018L385.893 230.662ZM409.102 237.159C409.762 237.062 410.364 236.731 410.799 236.227C411.235 235.723 411.474 235.079 411.474 234.412C411.474 233.746 411.235 233.102 410.799 232.598C410.364 232.094 409.762 231.763 409.102 231.666C408.443 231.763 407.841 232.094 407.406 232.598C406.97 233.102 406.731 233.746 406.731 234.412C406.731 235.079 406.97 235.723 407.406 236.227C407.841 236.731 408.443 237.062 409.102 237.159Z" fill="#D5B98D"/>
<path d="M416.307 218.496H399.476C398.944 219.76 398.06 220.844 396.929 221.619C395.798 222.393 394.468 222.827 393.098 222.867C391.109 222.695 389.257 221.784 387.908 220.313C386.559 218.842 385.81 216.919 385.81 214.923C385.81 212.927 386.559 211.004 387.908 209.533C389.257 208.063 391.109 207.151 393.098 206.98C394.472 207.005 395.808 207.432 396.942 208.209C398.075 208.986 398.956 210.078 399.476 211.35H419.024L432.076 225.819H486.705V232.966H429.478L416.307 218.496ZM393.098 212.177C392.414 212.223 391.774 212.531 391.311 213.037C390.849 213.543 390.6 214.208 390.617 214.894C390.601 215.235 390.653 215.576 390.769 215.897C390.885 216.219 391.063 216.514 391.294 216.767C391.524 217.019 391.802 217.223 392.112 217.368C392.421 217.513 392.756 217.595 393.098 217.61C393.441 217.603 393.78 217.526 394.094 217.384C394.407 217.242 394.688 217.038 394.92 216.784C395.152 216.53 395.33 216.231 395.443 215.906C395.556 215.581 395.602 215.237 395.578 214.894C395.594 214.552 395.542 214.211 395.426 213.89C395.31 213.568 395.132 213.273 394.901 213.021C394.671 212.769 394.393 212.564 394.083 212.419C393.774 212.275 393.439 212.192 393.098 212.177Z" fill="#D5B98D"/>
<path d="M419.024 257.652H384.829C384.303 258.92 383.421 260.008 382.289 260.784C381.156 261.56 379.823 261.99 378.451 262.023C376.519 261.786 374.739 260.851 373.449 259.393C372.159 257.935 371.447 256.055 371.447 254.109C371.447 252.162 372.159 250.282 373.449 248.824C374.739 247.367 376.519 246.431 378.451 246.195C379.815 246.23 381.14 246.654 382.27 247.418C383.401 248.182 384.288 249.254 384.829 250.506H416.307L427.528 238.163H486.587V245.309H430.127L419.024 257.652ZM378.923 251.392C378.582 251.407 378.247 251.49 377.937 251.634C377.628 251.779 377.35 251.983 377.12 252.236C376.889 252.488 376.711 252.783 376.595 253.105C376.479 253.426 376.427 253.767 376.443 254.109C376.443 254.766 376.704 255.397 377.169 255.863C377.635 256.328 378.266 256.589 378.923 256.589C379.581 256.589 380.212 256.328 380.677 255.863C381.142 255.397 381.404 254.766 381.404 254.109C381.42 253.767 381.368 253.426 381.252 253.105C381.136 252.783 380.957 252.488 380.727 252.236C380.497 251.983 380.219 251.779 379.909 251.634C379.6 251.49 379.265 251.407 378.923 251.392Z" fill="#D5B98D"/>
<path d="M428.887 272.121H399.358C398.826 273.241 397.991 274.19 396.947 274.858C395.902 275.526 394.691 275.888 393.452 275.901C391.67 275.674 390.031 274.805 388.844 273.457C387.656 272.109 387.001 270.374 387.001 268.578C387.001 266.781 387.656 265.046 388.844 263.698C390.031 262.35 391.67 261.481 393.452 261.255C394.687 261.256 395.896 261.605 396.941 262.263C397.986 262.922 398.824 263.862 399.358 264.975H426.17L439.34 250.506H486.587V257.652H441.88L428.887 272.121ZM393.806 266.215C393.296 266.168 392.784 266.275 392.337 266.524C391.889 266.772 391.527 267.15 391.298 267.608C391.07 268.066 390.984 268.582 391.054 269.09C391.124 269.597 391.345 270.071 391.689 270.45C392.033 270.829 392.483 271.096 392.981 271.214C393.479 271.333 394.001 271.298 394.479 271.115C394.957 270.932 395.368 270.608 395.659 270.187C395.95 269.766 396.107 269.267 396.109 268.755C396.15 268.423 396.122 268.086 396.027 267.765C395.931 267.444 395.77 267.147 395.553 266.892C395.337 266.636 395.07 266.429 394.769 266.282C394.468 266.135 394.14 266.052 393.806 266.038V266.215Z" fill="#D5B98D"/>
<path d="M393.89 292.72C388.92 287.414 402.679 267.479 410.043 258.744C416.476 251.113 423.089 243.269 431.208 244.262C438.337 245.134 445.274 252.652 445.69 259.858C446.808 279.242 400.956 300.264 393.89 292.72Z" fill="url(#paint23_linear_48_1018)"/>
<path d="M453.563 497.568C454.498 498.328 454.67 500.227 454.782 501.469C454.833 502.023 454.858 502.3 454.796 502.496C454.344 503.925 451.573 504.075 447.228 504.519C440.362 505.221 438.319 505.761 437.782 504.739C437.278 503.782 438.497 502.214 438.634 502.041C439.372 501.112 440.277 500.774 442.028 500.197C445.267 499.131 447.456 498.547 448.119 498.371C452.257 497.266 452.948 497.068 453.563 497.568Z" fill="url(#paint24_linear_48_1018)"/>
<path d="M449.479 491.295L448.792 499.119C448.987 499.497 451.313 500.63 453.16 499.658L454.926 491.967L449.479 491.295Z" fill="#D8DEE8"/>
<path d="M399.11 496.562C400.231 497.8 400.487 500.08 399.512 501.204C398.553 502.308 397.112 501.48 393.025 501.602C388.647 501.733 387.504 502.767 384.529 501.946C383.327 501.614 381.204 500.808 381.244 499.949C381.273 499.346 382.353 499.034 385.963 497.825C391.087 496.109 391.064 496.015 392.152 495.834C394.885 495.382 397.629 494.927 399.11 496.562Z" fill="url(#paint25_linear_48_1018)"/>
<path d="M396.305 489.422L394.109 496.726C394.275 497.118 396.507 498.425 398.423 497.597L401.684 490.507L396.305 489.422Z" fill="#D8DEE8"/>
<path d="M415.815 329.447C415.501 353.995 413.826 381.596 409.806 411.583C405.834 441.221 400.267 468 394.194 491.548C396.996 492.302 399.798 493.055 402.599 493.809C409.707 487.182 418.673 476.749 423 462.005C425.685 452.855 424.79 448.152 426.494 436.897C429.206 418.976 434.699 409.587 440.377 395.136C445.479 382.15 451.51 363.092 454.744 337.617C441.767 334.894 428.791 332.17 415.815 329.447Z" fill="#51331B"/>
<path d="M441.105 327.105C442.819 358.326 444.23 390.127 445.298 422.493C446.101 446.779 446.689 470.758 447.081 494.421C449.943 494.774 452.804 495.128 455.666 495.481C458.432 490.333 462.104 482.461 464.62 472.373C467.676 460.12 466.969 452.843 468.309 440.144C469.813 425.9 471.997 422.797 475.866 404.83C483.719 368.365 487.645 350.132 478.885 338.791C476.042 335.109 467.127 325.873 441.105 327.105Z" fill="#51331B"/>
<path d="M482.813 248.638C476.111 246.754 466.289 244.55 454.26 243.87C437.103 242.9 428.524 242.415 422.445 246.501C408.405 255.938 419.275 277.717 413.528 331.707C412.707 339.417 412.523 347.182 411.928 354.912C410.944 367.713 410.72 368.407 411.611 369.705C417.196 377.838 438.033 365.57 468.574 370.42C485.663 373.133 493.413 379.384 498.094 374.875C503.554 369.617 498.871 355.475 494.84 343.3C490.212 329.325 487.353 329.145 484.727 318.62C481.981 307.619 483.642 301.955 484.069 284.608C484.274 276.307 484.23 263.954 482.813 248.638Z" fill="url(#paint26_linear_48_1018)"/>
<g opacity="0.3">
<path d="M441.282 349.997C449.264 349.372 454.443 353.885 461.333 350.368C470.782 345.545 473.818 330.54 473.216 319.92C472.301 303.783 463.087 299.53 464.675 289.1C465.534 283.459 469.562 275.97 484.021 268.319C484.214 274.758 484.177 280.247 484.07 284.608C483.642 301.955 481.981 307.619 484.727 318.62C487.354 329.145 490.212 329.324 494.84 343.299C498.871 355.474 503.554 369.617 498.095 374.875C493.413 379.384 485.663 373.133 468.574 370.419C442.259 366.241 423.158 374.76 414.801 371.997C424.899 355.31 434.059 350.562 441.282 349.997Z" fill="url(#paint27_linear_48_1018)"/>
</g>
<path d="M471.925 249.746C477.626 245.062 489.089 250.364 492.153 251.782C509.241 259.686 524.584 280.986 520.782 303.495C520.212 306.871 517.569 322.661 504.198 330.312C492.133 337.216 475.843 335.44 462.791 325.663C461.007 324.08 459.223 322.497 457.439 320.914C455.685 319.018 453.929 317.121 452.175 315.224C454.933 312.929 459.62 309.619 466.203 307.495C474.881 304.694 481.2 309.719 485.227 305.899C488.006 303.263 488.012 298.606 487.326 295.783C485.942 290.095 480.928 288.495 476.743 284.458C466.91 274.972 465.098 255.355 471.925 249.746Z" fill="url(#paint28_linear_48_1018)"/>
<path d="M389.996 323.23L466.411 322.089L446.091 331.896L389.8 328.212L389.996 323.23Z" fill="#585858"/>
<path d="M469.107 324.12C469.107 325.55 468.213 326.827 466.868 327.316L442.451 336.888L442.34 330.252L466.41 322.089C467.761 321.701 469.107 322.715 469.107 324.12Z" fill="#282828"/>
<path d="M457.341 319.598C457.81 319.494 455.056 314.007 452.894 314.64C450.733 315.273 440.16 321.401 439.199 323.924C438.238 326.447 438.238 326.447 438.238 326.447C438.238 326.447 442.85 326.807 445.71 325.846C448.57 324.885 453.527 320.449 457.341 319.598Z" fill="white"/>
<path d="M440.313 283.689L445.7 332.732C445.885 334.425 443.516 336.946 441.816 336.865L362.798 332.014C361.5 331.953 360.419 330.997 360.199 329.716L350.281 282.349C349.985 280.625 353.084 278.845 354.832 278.894L437.637 281.222C439.02 281.262 440.162 282.314 440.313 283.689Z" fill="#282828"/>
<path d="M355.951 326.585C355.821 326.19 356.097 325.783 356.513 325.762C358.204 325.676 362.126 325.64 364.291 326.966C367.104 328.689 370.741 331.833 367.678 333.42L364.818 334.901C364.687 334.969 364.544 334.99 364.4 334.959C363.384 334.735 359.106 333.787 358.638 333.551C358.213 333.337 356.582 328.497 355.951 326.585Z" fill="#D8DEE8"/>
<path d="M452.978 225.125C452.936 230.211 453.503 234.245 454.04 237.008C454.655 240.173 455.098 240.991 455.664 241.654C456.515 242.653 457.805 243.491 465.094 245.298C469.06 246.281 469.57 246.255 469.658 246.648C470.085 248.568 459.269 255.112 448.096 253.535C441.257 252.57 435.035 248.668 435.417 246.62C435.801 244.558 442.632 245.664 444.668 241.934C446.085 239.339 444.497 235.655 442.62 232.604C444.438 229.199 451.161 228.53 452.978 225.125Z" fill="white"/>
<path d="M440.286 227.136C438.672 224.992 438.572 221.249 440.432 218.883C442.032 216.848 444.551 216.557 446.058 216.383C450.427 215.878 455.939 217.702 457.857 221.723C458.993 224.106 456.535 229.057 456.151 229.947C455.715 230.954 454.925 231.299 454.194 232.06C453.181 233.116 451.595 234.794 449.006 237.6C448.805 236.772 448.499 235.747 448.013 234.636C447.826 234.208 447.075 232.537 445.939 231.152C443.662 228.376 441.816 229.168 440.286 227.136Z" fill="#51331B"/>
<path d="M452.699 235.24C452.699 235.24 449.826 239.952 444.108 239.58C438.988 239.246 438.238 227.765 441.509 225.329C442.6 224.516 444.785 224.178 446.561 224.676C447.61 224.97 447.966 225.406 449.69 225.853C451.28 226.266 451.729 226.09 452.209 226.493C452.809 226.999 453.249 228.237 452.247 231.594C453.224 230.605 454.396 230.225 455.227 230.618C455.359 230.68 455.711 230.919 455.909 231.282C456.624 232.593 455.427 234.268 452.699 235.24Z" fill="white"/>
<path d="M452.441 225.807C452.194 225.991 452.949 226.912 453.005 228.216C453.115 230.747 450.553 233.785 447.94 234.042C446.395 234.194 445.97 233.263 443.416 232.993C441.834 232.826 440.518 233.027 439.69 233.208C438.887 235.984 439.643 238.752 441.498 240.035C443.495 241.418 446.047 240.579 447.114 240.229C447.827 239.994 450.114 239.247 451.309 237.15C452.554 234.965 451.332 233.647 452.761 232.169C453.481 231.424 454.428 231.101 455.35 229.658C455.6 229.265 455.767 228.918 455.869 228.685C454.548 227.285 452.799 225.54 452.441 225.807Z" fill="#51331B"/>
<path d="M441.548 234.237C441.548 234.237 442.654 234.815 444.565 234.708C444.658 234.702 444.761 234.729 444.772 234.778C444.816 234.959 443.59 235.772 442.461 235.454C441.659 235.228 441.035 234.469 441.143 234.276C441.189 234.195 441.37 234.205 441.548 234.237Z" fill="white"/>
<defs>
<linearGradient id="paint0_linear_48_1018" x1="465.205" y1="80.9725" x2="472.902" y2="288.307" gradientUnits="userSpaceOnUse">
<stop stop-color="#D06D00"/>
<stop offset="1" stop-color="#F3C55B"/>
</linearGradient>
<linearGradient id="paint1_linear_48_1018" x1="354.658" y1="85.0667" x2="362.437" y2="292.483" gradientUnits="userSpaceOnUse">
<stop stop-color="#D06D00"/>
<stop offset="1" stop-color="#F3C55B"/>
</linearGradient>
<linearGradient id="paint2_linear_48_1018" x1="361.209" y1="84.8214" x2="368.988" y2="292.238" gradientUnits="userSpaceOnUse">
<stop stop-color="#D06D00"/>
<stop offset="1" stop-color="#F3C55B"/>
</linearGradient>
<linearGradient id="paint3_linear_48_1018" x1="390.852" y1="83.7567" x2="398.631" y2="291.091" gradientUnits="userSpaceOnUse">
<stop stop-color="#D06D00"/>
<stop offset="1" stop-color="#F3C55B"/>
</linearGradient>
<linearGradient id="paint4_linear_48_1018" x1="385.038" y1="83.9205" x2="392.817" y2="291.337" gradientUnits="userSpaceOnUse">
<stop stop-color="#D06D00"/>
<stop offset="1" stop-color="#F3C55B"/>
</linearGradient>
<linearGradient id="paint5_linear_48_1018" x1="410.914" y1="83.0197" x2="418.612" y2="290.354" gradientUnits="userSpaceOnUse">
<stop stop-color="#D06D00"/>
<stop offset="1" stop-color="#F3C55B"/>
</linearGradient>
<linearGradient id="paint6_linear_48_1018" x1="430.976" y1="82.2828" x2="438.755" y2="289.617" gradientUnits="userSpaceOnUse">
<stop stop-color="#D06D00"/>
<stop offset="1" stop-color="#F3C55B"/>
</linearGradient>
<linearGradient id="paint7_linear_48_1018" x1="448.663" y1="81.5461" x2="456.442" y2="288.963" gradientUnits="userSpaceOnUse">
<stop stop-color="#D06D00"/>
<stop offset="1" stop-color="#F3C55B"/>
</linearGradient>
<linearGradient id="paint8_linear_48_1018" x1="486.388" y1="263.223" x2="408.04" y2="255.037" gradientUnits="userSpaceOnUse">
<stop offset="0.0036" stop-color="#26264F"/>
<stop offset="1" stop-color="#444B8C"/>
</linearGradient>
<linearGradient id="paint9_linear_48_1018" x1="319.374" y1="502.58" x2="302.774" y2="478.802" gradientUnits="userSpaceOnUse">
<stop stop-color="#444B8C"/>
<stop offset="0.9964" stop-color="#26264F"/>
</linearGradient>
<linearGradient id="paint10_linear_48_1018" x1="495.794" y1="79.8548" x2="27.1377" y2="317.828" gradientUnits="userSpaceOnUse">
<stop stop-color="#D06D00"/>
<stop offset="1" stop-color="#F3C55B"/>
</linearGradient>
<linearGradient id="paint11_linear_48_1018" x1="95.5983" y1="30.308" x2="216.097" y2="189.612" gradientUnits="userSpaceOnUse">
<stop stop-color="#311944"/>
<stop offset="1" stop-color="#893976"/>
</linearGradient>
<linearGradient id="paint12_linear_48_1018" x1="65.3649" y1="54.5771" x2="185.926" y2="213.963" gradientUnits="userSpaceOnUse">
<stop offset="0.0036" stop-color="#E38DDD"/>
<stop offset="1" stop-color="#9571F6"/>
</linearGradient>
<linearGradient id="paint13_linear_48_1018" x1="214.277" y1="56.8448" x2="11.0868" y2="154.665" gradientUnits="userSpaceOnUse">
<stop stop-color="#D06D00"/>
<stop offset="1" stop-color="#F3C55B"/>
</linearGradient>
<linearGradient id="paint14_linear_48_1018" x1="43.8161" y1="375.271" x2="161.027" y2="375.271" gradientUnits="userSpaceOnUse">
<stop stop-color="#FFC444"/>
<stop offset="0.9964" stop-color="#F36F56"/>
</linearGradient>
<linearGradient id="paint15_linear_48_1018" x1="-2.0423e-06" y1="310.117" x2="177.717" y2="358.836" gradientUnits="userSpaceOnUse">
<stop stop-color="#D06D00"/>
<stop offset="1" stop-color="#F3C55B"/>
</linearGradient>
<linearGradient id="paint16_linear_48_1018" x1="67.9058" y1="412.048" x2="176.038" y2="416.073" gradientUnits="userSpaceOnUse">
<stop stop-color="#444B8C"/>
<stop offset="0.9964" stop-color="#26264F"/>
</linearGradient>
<linearGradient id="paint17_linear_48_1018" x1="113.809" y1="439.71" x2="130.291" y2="398.799" gradientUnits="userSpaceOnUse">
<stop stop-color="#444B8C"/>
<stop offset="0.9964" stop-color="#26264F"/>
</linearGradient>
<linearGradient id="paint18_linear_48_1018" x1="121.571" y1="324.346" x2="20.5189" y2="569.543" gradientUnits="userSpaceOnUse">
<stop stop-color="#FFC444"/>
<stop offset="0.9964" stop-color="#F36F56"/>
</linearGradient>
<linearGradient id="paint19_linear_48_1018" x1="88.1552" y1="354.979" x2="146.999" y2="368.39" gradientUnits="userSpaceOnUse">
<stop stop-color="#D06D00"/>
<stop offset="1" stop-color="#F3C55B"/>
</linearGradient>
<linearGradient id="paint20_linear_48_1018" x1="131.78" y1="354.648" x2="170.055" y2="360.309" gradientUnits="userSpaceOnUse">
<stop stop-color="#D06D00"/>
<stop offset="1" stop-color="#F3C55B"/>
</linearGradient>
<linearGradient id="paint21_linear_48_1018" x1="94.0197" y1="416.518" x2="173.321" y2="456.424" gradientUnits="userSpaceOnUse">
<stop stop-color="#D06D00"/>
<stop offset="1" stop-color="#F3C55B"/>
</linearGradient>
<linearGradient id="paint22_linear_48_1018" x1="98.1379" y1="462.458" x2="150.05" y2="510.495" gradientUnits="userSpaceOnUse">
<stop stop-color="#D06D00"/>
<stop offset="1" stop-color="#F3C55B"/>
</linearGradient>
<linearGradient id="paint23_linear_48_1018" x1="406.642" y1="214.2" x2="463.767" y2="488.086" gradientUnits="userSpaceOnUse">
<stop stop-color="#FFC444"/>
<stop offset="0.9964" stop-color="#F36F56"/>
</linearGradient>
<linearGradient id="paint24_linear_48_1018" x1="437.751" y1="501.068" x2="454.852" y2="501.562" gradientUnits="userSpaceOnUse">
<stop stop-color="#444B8C"/>
<stop offset="0.9964" stop-color="#26264F"/>
</linearGradient>
<linearGradient id="paint25_linear_48_1018" x1="382.219" y1="496.358" x2="399.745" y2="501.177" gradientUnits="userSpaceOnUse">
<stop stop-color="#444B8C"/>
<stop offset="0.9964" stop-color="#26264F"/>
</linearGradient>
<linearGradient id="paint26_linear_48_1018" x1="426.421" y1="210.074" x2="483.546" y2="483.96" gradientUnits="userSpaceOnUse">
<stop stop-color="#FFC444"/>
<stop offset="0.9964" stop-color="#F36F56"/>
</linearGradient>
<linearGradient id="paint27_linear_48_1018" x1="475.548" y1="444.311" x2="453.868" y2="341.331" gradientUnits="userSpaceOnUse">
<stop stop-color="#FFC444"/>
<stop offset="0.9964" stop-color="#F36F56"/>
</linearGradient>
<linearGradient id="paint28_linear_48_1018" x1="465.554" y1="201.912" x2="522.679" y2="475.798" gradientUnits="userSpaceOnUse">
<stop stop-color="#FFC444"/>
<stop offset="0.9964" stop-color="#F36F56"/>
</linearGradient>
</defs>
</svg>
