<svg width="560" height="476" viewBox="0 0 560 476" fill="none" xmlns="http://www.w3.org/2000/svg">
<g filter="url(#filter0_d_48_298)">
<path d="M97.101 17H446.228C455.747 17 463.415 27.9149 463.243 41.2191L458.331 419.824C458.1 437.643 447.616 451.855 426.157 451.631L111.462 451.784C96.3032 451.791 83.8039 445.301 80.8503 430.432C80.278 427.551 79.9195 424.644 79.9207 421.9L80.0831 40.7737C80.0888 27.6415 87.7062 17 97.101 17Z" fill="white"/>
<path d="M426.163 451.131H426.157L111.462 451.284C103.949 451.287 97.1363 449.68 91.8505 446.267C86.5768 442.861 82.7915 437.638 81.3407 430.335C80.7728 427.476 80.4195 424.602 80.4207 421.9L80.5831 40.7739C80.5859 34.3001 82.4656 28.4611 85.4777 24.2533C88.4904 20.0446 92.6065 17.5 97.101 17.5H446.228C450.782 17.5 454.941 20.11 457.96 24.4079C460.979 28.7046 462.828 34.654 462.743 41.2126L457.831 419.818C457.716 428.635 455.066 436.513 449.837 442.154C444.616 447.787 436.774 451.242 426.163 451.131Z" stroke="#F9964E"/>
</g>
<path d="M455.874 40.1265C455.874 32.3945 449.606 26.1264 441.874 26.1264H102.303C94.5715 26.1264 88.3035 32.3945 88.3035 40.1264V76.8752C88.3035 79.232 90.214 81.1426 92.5708 81.1426H451.847C454.071 81.1426 455.874 79.3396 455.874 77.1154V40.1265Z" fill="url(#paint0_linear_48_298)"/>
<path opacity="0.61" d="M414.926 57.6889L224.23 55.8805C219.735 55.8378 216.118 52.8687 216.117 49.2206L216.116 42.8626C216.115 40.0479 218.927 37.7659 222.396 37.7659H416.292C419.712 37.7659 422.411 40.1233 422.16 42.8906L421.244 52.9811C421.001 55.6583 418.234 57.7204 414.926 57.6889Z" fill="white"/>
<path d="M184.95 56.0478C179.561 56.0478 175.178 51.6643 175.178 46.2757C175.178 40.8876 179.561 36.5042 184.95 36.5042C190.338 36.5042 194.722 40.8876 194.722 46.2757C194.722 51.6643 190.338 56.0478 184.95 56.0478ZM184.95 37.6186C180.176 37.6186 176.293 41.502 176.293 46.2757C176.293 51.0495 180.176 54.9334 184.95 54.9334C189.724 54.9334 193.607 51.0495 193.607 46.2757C193.607 41.502 189.724 37.6186 184.95 37.6186Z" fill="white"/>
<path d="M153.058 56.7948C147.669 56.7948 143.286 52.4114 143.286 47.0228C143.286 41.6346 147.669 37.2512 153.058 37.2512C158.446 37.2512 162.83 41.6346 162.83 47.0228C162.83 52.4114 158.446 56.7948 153.058 56.7948ZM153.058 38.3656C148.284 38.3656 144.401 42.249 144.401 47.0228C144.401 51.7965 148.284 55.6804 153.058 55.6804C157.832 55.6804 161.715 51.7965 161.715 47.0228C161.715 42.249 157.832 38.3656 153.058 38.3656Z" fill="white"/>
<path d="M122.412 56.7948C117.023 56.7948 112.64 52.4114 112.64 47.0228C112.64 41.6346 117.023 37.2512 122.412 37.2512C127.8 37.2512 132.184 41.6346 132.184 47.0228C132.184 52.4114 127.8 56.7948 122.412 56.7948ZM122.412 38.3656C117.638 38.3656 113.755 42.249 113.755 47.0228C113.755 51.7965 117.638 55.6804 122.412 55.6804C127.185 55.6804 131.069 51.7965 131.069 47.0228C131.069 42.249 127.186 38.3656 122.412 38.3656Z" fill="white"/>
<path d="M0.607635 374.208C-1.94089 357.419 4.16111 338.144 7.20659 320.39C8.81688 311.002 9.56174 301.687 8.05391 292.229C6.55497 282.826 2.13689 272.657 6.21037 263.288C14.4188 244.415 33.9322 253.004 45.1098 267.212C58.0806 283.7 61.6265 310.642 66.553 331.389C69.5231 343.895 73.997 356.724 75.5636 369.469C78.1589 390.582 73.3852 405.24 63.2855 415.139C53.5986 424.634 38.8451 426.602 26.9947 420.003C16.2895 414.041 4.71884 401.292 0.607635 374.208Z" fill="url(#paint1_linear_48_298)"/>
<path d="M45.2489 452.297C45.6495 452.297 46.0035 452.008 46.072 451.6C46.115 451.346 50.3598 425.729 50.471 390.381C50.5736 357.745 47.0742 309.887 29.8199 267.223C29.6466 266.795 29.1612 266.589 28.7314 266.762C28.3035 266.935 28.0969 267.422 28.2699 267.85C45.4184 310.251 48.8991 357.866 48.7993 390.344C48.6912 425.562 44.466 451.069 44.4237 451.323C44.3469 451.778 44.6538 452.209 45.1091 452.286C45.1562 452.293 45.2028 452.297 45.2489 452.297Z" fill="url(#paint2_linear_48_298)"/>
<path d="M62.7598 248.263C63.63 248.027 64.5859 247.954 65.6037 248.071C71.2331 248.718 73.5449 254.655 75.1989 259.296C76.6153 263.271 78.2844 268.096 77.4479 272.402C76.5436 277.058 71.5993 280.856 68.0115 276.129C63.9334 270.756 57.8141 262.506 57.7771 255.385C57.7588 251.846 59.746 249.081 62.7598 248.263Z" fill="url(#paint3_linear_48_298)"/>
<path d="M80.6912 298.298C83.5416 292.36 85.5807 286.143 86.0562 279.374C87.2545 262.319 77.3401 246.613 70.0564 231.929C63.3623 218.433 58.3868 198.322 80.9748 200.112C98.9703 201.537 120.126 219.471 122.54 238.172C125.397 260.305 114.622 288.216 127.397 308.321C145.268 336.446 158.159 330.001 158.159 377.463C158.159 397.744 146.926 408.93 134.059 415.092C113.751 424.817 89.5349 420.888 73.3543 405.229C59.0595 391.395 50.56 371.507 53.4345 351.541C56.338 331.376 72.1541 316.084 80.6912 298.298Z" fill="url(#paint4_linear_48_298)"/>
<path d="M95.7902 451.102C96.1646 451.102 96.5052 450.849 96.6004 450.469C107.799 405.768 113.895 365.246 114.719 330.027C115.379 301.817 112.677 276.918 106.688 256.025C96.4487 220.303 80.3623 208.812 79.6823 208.341C79.3041 208.078 78.7836 208.171 78.5203 208.55C78.2569 208.929 78.3503 209.45 78.7286 209.713C78.891 209.827 95.0926 221.455 105.144 256.707C114.439 289.305 120.22 349.312 94.9789 450.063C94.8668 450.511 95.1389 450.965 95.5867 451.077C95.6546 451.094 95.723 451.102 95.7902 451.102Z" fill="url(#paint5_linear_48_298)"/>
<g clip-path="url(#clip0_48_298)">
<path d="M281 137.089H297.618V161.745H312.174V137.089H328.771V197.331H312.214V175.1H297.659V197.331H281V150.526" fill="url(#paint6_linear_48_298)"/>
<path d="M336.12 137.089H358.781L370.132 178.942L381.503 137.089H404.082V197.331H387.464V167.004L380.074 197.331H360.128L352.738 167.004V197.331H336.12V150.526" fill="url(#paint7_linear_48_298)"/>
<path d="M213.957 162.34H200.034C200.456 163.873 200.669 165.456 200.667 167.046V167.395C200.667 176.189 194.237 183.339 186.377 183.339H173.127C172.918 183.328 172.713 183.276 172.524 183.186C172.335 183.095 172.165 182.968 172.025 182.812C171.884 182.655 171.776 182.473 171.706 182.274C171.636 182.075 171.606 181.864 171.617 181.654V174.504H158V194.249C157.997 195.287 158.385 196.288 159.086 197.051C159.786 197.813 160.748 198.28 161.777 198.358H186.275C201.729 198.358 214.264 184.448 214.264 167.313V166.963C214.262 165.417 214.16 163.873 213.957 162.34Z" fill="url(#paint8_linear_48_298)"/>
<path d="M171.617 152.786C171.606 152.576 171.636 152.365 171.706 152.167C171.776 151.968 171.885 151.785 172.025 151.628C172.165 151.472 172.335 151.345 172.524 151.254C172.713 151.164 172.918 151.112 173.128 151.102H186.295C188.447 151.125 190.565 151.654 192.478 152.646C194.392 153.637 196.05 155.064 197.319 156.813H212.712C208.915 144.712 198.524 136 186.295 136H161.797C160.768 136.078 159.807 136.545 159.106 137.307C158.406 138.07 158.018 139.071 158.021 140.109V159.854H171.637L171.617 152.786Z" fill="#282828"/>
<path d="M192.848 163.368H187.091C186.909 162.931 186.606 162.556 186.219 162.287C185.833 162.018 185.377 161.865 184.907 161.847C184.22 161.907 183.58 162.224 183.113 162.736C182.647 163.247 182.388 163.916 182.388 164.611C182.388 165.305 182.647 165.974 183.113 166.486C183.58 166.998 184.22 167.315 184.907 167.374C185.378 167.362 185.836 167.211 186.224 166.941C186.612 166.671 186.913 166.293 187.091 165.854H193.849L198.381 160.82H213.631C213.488 159.978 213.304 159.156 213.08 158.334H197.299L192.848 163.368ZM184.825 165.628C184.597 165.594 184.389 165.479 184.239 165.304C184.088 165.128 184.005 164.904 184.005 164.672C184.005 164.441 184.088 164.217 184.239 164.041C184.389 163.866 184.597 163.751 184.825 163.717C185.053 163.751 185.261 163.866 185.412 164.041C185.562 164.217 185.645 164.441 185.645 164.672C185.645 164.904 185.562 165.128 185.412 165.304C185.261 165.479 185.053 165.594 184.825 165.628Z" fill="#282828"/>
<path d="M182.335 159.135H188.153C188.337 159.575 188.642 159.952 189.033 160.221C189.424 160.491 189.884 160.642 190.358 160.656C191.045 160.596 191.685 160.279 192.152 159.767C192.618 159.256 192.877 158.587 192.877 157.892C192.877 157.198 192.618 156.529 192.152 156.017C191.685 155.505 191.045 155.188 190.358 155.129C189.883 155.137 189.421 155.286 189.029 155.556C188.637 155.827 188.332 156.206 188.153 156.649H181.396L176.884 161.683H158V164.169H177.782L182.335 159.135ZM190.358 156.937C190.594 156.953 190.815 157.06 190.975 157.236C191.135 157.412 191.221 157.643 191.215 157.882C191.221 158.001 191.203 158.119 191.163 158.231C191.122 158.343 191.061 158.446 190.981 158.533C190.902 158.621 190.805 158.692 190.698 158.743C190.591 158.793 190.476 158.822 190.358 158.827C190.239 158.825 190.122 158.798 190.013 158.748C189.905 158.699 189.808 158.628 189.728 158.539C189.647 158.451 189.586 158.347 189.547 158.234C189.508 158.121 189.492 158.001 189.5 157.882C189.495 157.763 189.513 157.644 189.553 157.533C189.593 157.421 189.655 157.318 189.734 157.23C189.814 157.143 189.91 157.071 190.017 157.021C190.124 156.971 190.24 156.942 190.358 156.937Z" fill="#282828"/>
<path d="M181.395 172.757H193.216C193.397 173.199 193.703 173.577 194.094 173.847C194.485 174.117 194.946 174.267 195.421 174.278C196.088 174.196 196.703 173.87 197.149 173.363C197.595 172.856 197.842 172.202 197.842 171.525C197.842 170.847 197.595 170.193 197.149 169.686C196.703 169.179 196.088 168.854 195.421 168.771C194.949 168.784 194.491 168.931 194.1 169.197C193.71 169.463 193.403 169.836 193.216 170.271H182.335L178.456 165.977H158.041V168.463H177.557L181.395 172.757ZM195.257 170.58C195.375 170.585 195.491 170.613 195.598 170.664C195.705 170.714 195.801 170.785 195.881 170.873C195.96 170.961 196.022 171.064 196.062 171.175C196.102 171.287 196.12 171.406 196.115 171.525C196.115 171.753 196.024 171.973 195.863 172.135C195.703 172.297 195.485 172.388 195.257 172.388C195.03 172.388 194.812 172.297 194.651 172.135C194.49 171.973 194.4 171.753 194.4 171.525C194.394 171.406 194.412 171.287 194.452 171.175C194.492 171.064 194.554 170.961 194.634 170.873C194.713 170.785 194.809 170.714 194.916 170.664C195.023 170.613 195.139 170.585 195.257 170.58Z" fill="#282828"/>
<path d="M177.986 177.791H188.194C188.377 178.181 188.666 178.511 189.027 178.743C189.388 178.976 189.807 179.102 190.235 179.106C190.851 179.027 191.417 178.725 191.828 178.256C192.238 177.787 192.465 177.184 192.465 176.559C192.465 175.934 192.238 175.33 191.828 174.861C191.417 174.392 190.851 174.09 190.235 174.011C189.808 174.011 189.39 174.133 189.029 174.362C188.668 174.591 188.378 174.918 188.194 175.305H178.925L174.373 170.271H158.041V172.757H173.495L177.986 177.791ZM190.113 175.737C190.289 175.72 190.466 175.757 190.621 175.844C190.775 175.93 190.9 176.062 190.979 176.221C191.059 176.38 191.088 176.56 191.064 176.737C191.04 176.913 190.963 177.078 190.845 177.21C190.726 177.342 190.57 177.434 190.398 177.476C190.226 177.517 190.045 177.505 189.88 177.441C189.715 177.377 189.573 177.265 189.472 177.118C189.371 176.972 189.317 176.798 189.316 176.62C189.302 176.505 189.312 176.387 189.345 176.276C189.378 176.164 189.434 176.061 189.509 175.972C189.584 175.883 189.676 175.811 189.78 175.76C189.884 175.709 189.997 175.68 190.113 175.675V175.737Z" fill="#282828"/>
<path d="M275.386 158.108V176.312C277.237 170.387 277.237 164.033 275.386 158.108Z" fill="url(#paint9_linear_48_298)"/>
<path d="M246.723 181.757H246.397V197.475H246.723C248.455 197.471 250.182 197.319 251.888 197.023V180.812C250.239 181.442 248.488 181.763 246.723 181.757Z" fill="url(#paint10_linear_48_298)"/>
<path d="M246.723 152.663C248.489 152.664 250.24 152.991 251.888 153.629V137.418C250.182 137.121 248.455 136.97 246.723 136.966H246.397V152.663H246.723Z" fill="url(#paint11_linear_48_298)"/>
<path d="M258.544 139.349C257.358 138.858 256.145 138.439 254.91 138.096V155.17C256.317 156.125 257.547 157.321 258.544 158.704V139.349Z" fill="url(#paint12_linear_48_298)"/>
<path d="M258.544 195.071V175.716C257.548 177.105 256.318 178.308 254.91 179.271V196.447C256.148 196.063 257.361 195.604 258.544 195.071Z" fill="url(#paint13_linear_48_298)"/>
<path d="M263.688 192.174V142.246C262.856 141.668 261.99 141.14 261.095 140.664V165.854C261.095 166.306 261.095 166.758 261.095 167.21C261.095 167.662 261.095 168.135 261.095 168.587V193.776C261.986 193.286 262.851 192.751 263.688 192.174Z" fill="url(#paint14_linear_48_298)"/>
<path d="M266.424 144.383V190.037C267.118 189.441 267.771 188.804 268.465 188.126V146.294C267.771 145.636 267.118 145.082 266.424 144.383Z" fill="url(#paint15_linear_48_298)"/>
<path d="M272.528 182.681V151.738C272.099 150.999 271.63 150.28 271.14 149.581V184.839C271.63 184.12 272.099 183.421 272.528 182.681Z" fill="url(#paint16_linear_48_298)"/>
<path d="M243.355 181.346C240.192 180.593 237.375 178.787 235.358 176.222C233.342 173.656 232.245 170.481 232.245 167.21C232.245 163.939 233.342 160.764 235.358 158.198C237.375 155.633 240.192 153.827 243.355 153.074V137.171C236.023 138.014 229.255 141.542 224.342 147.084C219.428 152.625 216.713 159.793 216.713 167.22C216.713 174.647 219.428 181.815 224.342 187.357C229.255 192.898 236.023 196.427 243.355 197.269V181.346Z" fill="#282828"/>
<path d="M402.918 201.029H159.082C158.795 201.029 158.52 201.144 158.317 201.348C158.114 201.552 158 201.829 158 202.118V222.932C158 223.22 158.114 223.497 158.317 223.702C158.52 223.906 158.795 224.021 159.082 224.021H402.918C403.205 224.021 403.48 223.906 403.683 223.702C403.886 223.497 404 223.22 404 222.932V202.118C404 201.829 403.886 201.552 403.683 201.348C403.48 201.144 403.205 201.029 402.918 201.029ZM175.986 215.966C175.986 219.562 174.761 220.487 169.861 220.487H169.126C162.838 220.487 161.96 219.747 161.96 216.131V215.391H165.104V215.946C165.104 217.816 165.676 218.185 168.84 218.185H169.33C172.25 218.185 172.76 217.857 172.76 216.131V215.843C172.76 214.282 172.29 213.788 168.452 213.624C163.022 213.254 162.103 212.247 162.103 209.186V208.775C162.103 205.714 163.308 204.666 168.228 204.666H168.902C174.557 204.666 175.516 205.632 175.516 208.878V209.515H172.413V209.022C172.413 207.378 171.903 206.967 169.024 206.967H168.534C165.819 206.967 165.288 207.337 165.288 209.022V209.35C165.288 210.768 165.676 211.117 169.534 211.405C175.026 211.816 175.986 212.679 175.986 215.843V215.966ZM207.139 215.062V220.322H203.791V215.062L197.666 204.789H201.28L205.465 212.412L209.548 204.728H213.182L207.139 215.062ZM249.01 215.966C249.01 219.562 247.805 220.487 242.885 220.487H242.212C235.924 220.487 235.046 219.747 235.046 216.131V215.391H238.129V215.946C238.129 217.816 238.7 218.185 241.865 218.185H242.355C245.253 218.185 245.784 217.857 245.784 216.131V215.843C245.784 214.282 245.315 213.788 241.477 213.624C236.046 213.254 235.107 212.247 235.107 209.186V208.775C235.107 205.714 236.332 204.666 241.232 204.666H241.905C247.56 204.666 248.52 205.632 248.52 208.878V209.515H245.458V209.022C245.458 207.378 244.947 206.967 242.069 206.967H241.579C238.864 206.967 238.333 207.337 238.333 209.022V209.35C238.333 210.768 238.721 211.117 242.579 211.405C248.071 211.816 249.01 212.679 249.01 215.843V215.966ZM284.756 207.07H279.612V220.322H276.264V207.07H271.119V204.666H284.756V207.07ZM319.462 220.322H307.274V204.666H319.278V206.967H310.622V211.076H318.788V213.275H310.622V217.836H319.421L319.462 220.322ZM362.578 220.322H359.414V207.234L354.085 220.322H350.942L345.613 207.234L345.736 220.322H342.592V204.666H347.696L352.636 217.24L357.536 204.666H362.578V220.322ZM400.08 215.966C400.08 219.562 398.855 220.487 393.956 220.487H393.282C386.994 220.487 386.117 219.747 386.117 216.131V215.391H389.199V215.946C389.199 217.816 389.771 218.185 392.935 218.185H393.425C396.344 218.185 396.855 217.857 396.855 216.131V215.843C396.855 214.282 396.385 213.788 392.547 213.624C387.117 213.254 386.198 212.247 386.198 209.186V208.775C386.198 205.714 387.403 204.666 392.323 204.666H392.996C398.672 204.666 399.611 205.632 399.611 208.878V209.515H396.508V209.022C396.508 207.378 395.977 206.967 393.098 206.967H392.608C389.914 206.967 389.363 207.337 389.363 209.022V209.35C389.363 210.768 389.75 211.117 393.609 211.405C399.1 211.816 400.06 212.679 400.06 215.843L400.08 215.966Z" fill="#282828"/>
</g>
<rect width="207" height="15" rx="4" transform="matrix(-1 0 0 1 389 273)" fill="#F2F0ED"/>
<rect width="196" height="14" rx="4" transform="matrix(-1 0 0 1 378 300)" fill="#F2F0ED"/>
<rect width="207" height="14" rx="4" transform="matrix(-1 0 0 1 389 327)" fill="#F2F0ED"/>
<rect width="182" height="14" rx="4" transform="matrix(-1 0 0 1 364 354)" fill="#F2F0ED"/>
<rect width="222" height="15" rx="4" transform="matrix(-1 0 0 1 404 380)" fill="#F2F0ED"/>
<g filter="url(#filter1_d_48_298)">
<rect x="426" y="234.425" width="115" height="123.15" rx="21.7323" fill="white"/>
<path d="M524.257 288.878H504.09C504.701 291.097 505.009 293.39 505.007 295.693V296.199C505.007 308.936 495.692 319.293 484.308 319.293H465.117C464.814 319.278 464.516 319.203 464.242 319.072C463.968 318.941 463.723 318.757 463.519 318.53C463.316 318.303 463.159 318.038 463.058 317.751C462.956 317.463 462.912 317.158 462.928 316.853V306.496H443.205V335.096C443.201 336.6 443.762 338.05 444.777 339.155C445.792 340.259 447.185 340.935 448.675 341.048H484.16C506.545 341.048 524.701 320.9 524.701 296.08V295.574C524.699 293.334 524.551 291.097 524.257 288.878Z" fill="url(#paint17_linear_48_298)"/>
<path d="M462.928 275.039C462.912 274.734 462.956 274.429 463.058 274.141C463.159 273.853 463.316 273.588 463.519 273.362C463.723 273.135 463.968 272.951 464.242 272.82C464.516 272.689 464.813 272.614 465.116 272.598H484.189C487.307 272.633 490.373 273.399 493.145 274.835C495.917 276.271 498.318 278.338 500.157 280.872H522.454C516.953 263.343 501.902 250.724 484.189 250.724H448.705C447.215 250.837 445.822 251.514 444.807 252.618C443.792 253.722 443.23 255.172 443.234 256.677V285.277H462.958L462.928 275.039Z" fill="#282828"/>
<path d="M493.681 290.366H485.343C485.078 289.733 484.64 289.19 484.08 288.8C483.519 288.41 482.86 288.189 482.179 288.163C481.183 288.25 480.256 288.709 479.58 289.45C478.905 290.191 478.53 291.161 478.53 292.166C478.53 293.172 478.905 294.141 479.58 294.882C480.256 295.623 481.183 296.083 482.179 296.169C482.861 296.151 483.524 295.933 484.086 295.542C484.648 295.151 485.084 294.603 485.343 293.967H495.13L501.695 286.675H523.784C523.577 285.455 523.311 284.265 522.986 283.074H500.128L493.681 290.366ZM482.06 293.639C481.73 293.591 481.429 293.424 481.211 293.17C480.993 292.916 480.873 292.591 480.873 292.256C480.873 291.92 480.993 291.595 481.211 291.341C481.429 291.087 481.73 290.921 482.06 290.872C482.39 290.921 482.692 291.087 482.91 291.341C483.128 291.595 483.248 291.92 483.248 292.256C483.248 292.591 483.128 292.916 482.91 293.17C482.692 293.424 482.39 293.591 482.06 293.639Z" fill="#282828"/>
<path d="M478.453 284.235H486.88C487.147 284.872 487.589 285.418 488.156 285.809C488.722 286.199 489.388 286.417 490.074 286.437C491.07 286.351 491.997 285.892 492.672 285.151C493.348 284.41 493.723 283.44 493.723 282.435C493.723 281.429 493.348 280.46 492.672 279.719C491.997 278.977 491.07 278.518 490.074 278.432C489.386 278.444 488.717 278.66 488.149 279.051C487.582 279.443 487.14 279.993 486.88 280.634H477.093L470.557 287.925H443.205V291.526H471.859L478.453 284.235ZM490.074 281.051C490.416 281.074 490.737 281.229 490.968 281.484C491.2 281.739 491.324 282.074 491.316 282.42C491.324 282.592 491.298 282.764 491.24 282.926C491.182 283.087 491.092 283.236 490.977 283.363C490.862 283.491 490.723 283.594 490.568 283.667C490.413 283.74 490.245 283.781 490.074 283.789C489.902 283.785 489.732 283.746 489.575 283.675C489.418 283.603 489.278 283.5 489.161 283.372C489.045 283.244 488.956 283.094 488.9 282.93C488.843 282.766 488.82 282.593 488.832 282.42C488.824 282.248 488.85 282.076 488.908 281.914C488.966 281.752 489.055 281.603 489.171 281.476C489.286 281.349 489.425 281.246 489.58 281.173C489.735 281.1 489.903 281.058 490.074 281.051Z" fill="#282828"/>
<path d="M477.092 303.966H494.213C494.477 304.605 494.919 305.153 495.486 305.544C496.053 305.935 496.72 306.152 497.407 306.169C498.375 306.049 499.265 305.578 499.911 304.843C500.557 304.109 500.914 303.162 500.914 302.181C500.914 301.2 500.557 300.252 499.911 299.518C499.265 298.783 498.375 298.312 497.407 298.193C496.724 298.21 496.061 298.424 495.495 298.809C494.929 299.194 494.484 299.734 494.213 300.365H478.452L472.834 294.145H443.264V297.746H471.533L477.092 303.966ZM497.171 300.812C497.341 300.819 497.509 300.861 497.664 300.934C497.819 301.007 497.958 301.11 498.074 301.237C498.189 301.364 498.278 301.513 498.336 301.675C498.395 301.837 498.42 302.009 498.412 302.181C498.412 302.512 498.282 302.83 498.049 303.065C497.816 303.299 497.5 303.431 497.171 303.431C496.841 303.431 496.525 303.299 496.292 303.065C496.059 302.83 495.929 302.512 495.929 302.181C495.921 302.009 495.946 301.837 496.005 301.675C496.063 301.513 496.152 301.364 496.267 301.237C496.383 301.11 496.522 301.007 496.677 300.934C496.832 300.861 497 300.819 497.171 300.812Z" fill="#282828"/>
<path d="M472.154 311.258H486.939C487.205 311.822 487.623 312.3 488.146 312.637C488.669 312.974 489.275 313.156 489.896 313.162C490.789 313.048 491.609 312.61 492.203 311.931C492.798 311.252 493.126 310.377 493.126 309.472C493.126 308.567 492.798 307.693 492.203 307.013C491.609 306.334 490.789 305.896 489.896 305.782C489.278 305.782 488.672 305.958 488.149 306.29C487.626 306.622 487.207 307.096 486.939 307.657H473.514L466.92 300.365H443.264V303.966H465.648L472.154 311.258ZM489.719 308.282C489.974 308.258 490.23 308.312 490.454 308.437C490.679 308.562 490.86 308.753 490.974 308.983C491.089 309.214 491.132 309.474 491.097 309.73C491.062 309.985 490.951 310.224 490.779 310.415C490.607 310.607 490.381 310.741 490.132 310.801C489.883 310.86 489.621 310.843 489.382 310.751C489.142 310.658 488.937 310.495 488.791 310.283C488.645 310.071 488.567 309.819 488.566 309.561C488.545 309.394 488.559 309.224 488.607 309.062C488.655 308.901 488.736 308.751 488.844 308.622C488.952 308.494 489.086 308.389 489.237 308.315C489.387 308.241 489.551 308.199 489.719 308.192V308.282Z" fill="#282828"/>
</g>
<defs>
<filter id="filter0_d_48_298" x="59.7207" y="0.799999" width="423.725" height="475.184" filterUnits="userSpaceOnUse" color-interpolation-filters="sRGB">
<feFlood flood-opacity="0" result="BackgroundImageFix"/>
<feColorMatrix in="SourceAlpha" type="matrix" values="0 0 0 0 0 0 0 0 0 0 0 0 0 0 0 0 0 0 127 0" result="hardAlpha"/>
<feOffset dy="4"/>
<feGaussianBlur stdDeviation="10.1"/>
<feComposite in2="hardAlpha" operator="out"/>
<feColorMatrix type="matrix" values="0 0 0 0 0 0 0 0 0 0 0 0 0 0 0 0 0 0 0.12 0"/>
<feBlend mode="normal" in2="BackgroundImageFix" result="effect1_dropShadow_48_298"/>
<feBlend mode="normal" in="SourceGraphic" in2="effect1_dropShadow_48_298" result="shape"/>
</filter>
<filter id="filter1_d_48_298" x="407.709" y="219.756" width="151.583" height="159.732" filterUnits="userSpaceOnUse" color-interpolation-filters="sRGB">
<feFlood flood-opacity="0" result="BackgroundImageFix"/>
<feColorMatrix in="SourceAlpha" type="matrix" values="0 0 0 0 0 0 0 0 0 0 0 0 0 0 0 0 0 0 127 0" result="hardAlpha"/>
<feOffset dy="3.62205"/>
<feGaussianBlur stdDeviation="9.14567"/>
<feComposite in2="hardAlpha" operator="out"/>
<feColorMatrix type="matrix" values="0 0 0 0 0 0 0 0 0 0 0 0 0 0 0 0 0 0 0.12 0"/>
<feBlend mode="normal" in2="BackgroundImageFix" result="effect1_dropShadow_48_298"/>
<feBlend mode="normal" in="SourceGraphic" in2="effect1_dropShadow_48_298" result="shape"/>
</filter>
<linearGradient id="paint0_linear_48_298" x1="151.408" y1="94.8174" x2="153.881" y2="-23.1188" gradientUnits="userSpaceOnUse">
<stop stop-color="#FFC444"/>
<stop offset="0.9964" stop-color="#F36F56"/>
</linearGradient>
<linearGradient id="paint1_linear_48_298" x1="63.1683" y1="209.8" x2="-42.2092" y2="544.316" gradientUnits="userSpaceOnUse">
<stop stop-color="#FFC444"/>
<stop offset="0.9964" stop-color="#F36F56"/>
</linearGradient>
<linearGradient id="paint2_linear_48_298" x1="53.4875" y1="355.656" x2="23.5172" y2="362.704" gradientUnits="userSpaceOnUse">
<stop stop-color="#2B3582"/>
<stop offset="1" stop-color="#150E42"/>
</linearGradient>
<linearGradient id="paint3_linear_48_298" x1="74.2567" y1="240.489" x2="61.0082" y2="302.61" gradientUnits="userSpaceOnUse">
<stop stop-color="#FFC444"/>
<stop offset="0.9964" stop-color="#F36F56"/>
</linearGradient>
<linearGradient id="paint4_linear_48_298" x1="140.085" y1="145.223" x2="12.4508" y2="580.413" gradientUnits="userSpaceOnUse">
<stop stop-color="#FFC444"/>
<stop offset="0.9964" stop-color="#F36F56"/>
</linearGradient>
<linearGradient id="paint5_linear_48_298" x1="114.816" y1="329.647" x2="78.3704" y2="329.647" gradientUnits="userSpaceOnUse">
<stop stop-color="#2B3582"/>
<stop offset="1" stop-color="#150E42"/>
</linearGradient>
<linearGradient id="paint6_linear_48_298" x1="304.518" y1="155.971" x2="306.482" y2="207.993" gradientUnits="userSpaceOnUse">
<stop stop-color="#D06D00"/>
<stop offset="1" stop-color="#F3C55B"/>
</linearGradient>
<linearGradient id="paint7_linear_48_298" x1="369.519" y1="153.526" x2="371.463" y2="205.548" gradientUnits="userSpaceOnUse">
<stop stop-color="#D06D00"/>
<stop offset="1" stop-color="#F3C55B"/>
</linearGradient>
<linearGradient id="paint8_linear_48_298" x1="185.397" y1="160.45" x2="187.361" y2="212.493" gradientUnits="userSpaceOnUse">
<stop stop-color="#D06D00"/>
<stop offset="1" stop-color="#F3C55B"/>
</linearGradient>
<linearGradient id="paint9_linear_48_298" x1="275.549" y1="157.06" x2="277.493" y2="209.082" gradientUnits="userSpaceOnUse">
<stop stop-color="#D06D00"/>
<stop offset="1" stop-color="#F3C55B"/>
</linearGradient>
<linearGradient id="paint10_linear_48_298" x1="247.989" y1="158.087" x2="249.954" y2="210.13" gradientUnits="userSpaceOnUse">
<stop stop-color="#D06D00"/>
<stop offset="1" stop-color="#F3C55B"/>
</linearGradient>
<linearGradient id="paint11_linear_48_298" x1="249.622" y1="158.026" x2="251.587" y2="210.069" gradientUnits="userSpaceOnUse">
<stop stop-color="#D06D00"/>
<stop offset="1" stop-color="#F3C55B"/>
</linearGradient>
<linearGradient id="paint12_linear_48_298" x1="257.012" y1="157.759" x2="258.977" y2="209.781" gradientUnits="userSpaceOnUse">
<stop stop-color="#D06D00"/>
<stop offset="1" stop-color="#F3C55B"/>
</linearGradient>
<linearGradient id="paint13_linear_48_298" x1="255.563" y1="157.8" x2="257.527" y2="209.843" gradientUnits="userSpaceOnUse">
<stop stop-color="#D06D00"/>
<stop offset="1" stop-color="#F3C55B"/>
</linearGradient>
<linearGradient id="paint14_linear_48_298" x1="262.014" y1="157.574" x2="263.958" y2="209.596" gradientUnits="userSpaceOnUse">
<stop stop-color="#D06D00"/>
<stop offset="1" stop-color="#F3C55B"/>
</linearGradient>
<linearGradient id="paint15_linear_48_298" x1="267.016" y1="157.389" x2="268.98" y2="209.411" gradientUnits="userSpaceOnUse">
<stop stop-color="#D06D00"/>
<stop offset="1" stop-color="#F3C55B"/>
</linearGradient>
<linearGradient id="paint16_linear_48_298" x1="271.425" y1="157.204" x2="273.39" y2="209.247" gradientUnits="userSpaceOnUse">
<stop stop-color="#D06D00"/>
<stop offset="1" stop-color="#F3C55B"/>
</linearGradient>
<linearGradient id="paint17_linear_48_298" x1="482.888" y1="286.14" x2="485.734" y2="361.522" gradientUnits="userSpaceOnUse">
<stop stop-color="#D06D00"/>
<stop offset="1" stop-color="#F3C55B"/>
</linearGradient>
<clipPath id="clip0_48_298">
<rect width="246" height="88" fill="white" transform="translate(158 136)"/>
</clipPath>
</defs>
</svg>
