<svg width="1440" height="1983" viewBox="0 0 1440 1983" fill="none" xmlns="http://www.w3.org/2000/svg">
<g clip-path="url(#clip0_4018_1221)">
<rect width="1440" height="1983" fill="url(#paint0_linear_4018_1221)"/>
<path fill-rule="evenodd" clip-rule="evenodd" d="M0 1946.26L34 1935.97C69 1925.69 137 1904.38 206 1914.67C274 1925.69 343 1967.57 411 1957.28C480 1946.26 549 1883.07 617 1872.78C686 1861.76 754 1904.38 823 1930.83C891 1957.28 960 1967.57 1029 1967.57C1097 1967.57 1166 1957.28 1234 1946.26C1303 1935.97 1371 1925.69 1406 1919.81L1440 1914.67V1983H1406C1371 1983 1303 1983 1234 1983C1166 1983 1097 1983 1029 1983C960 1983 891 1983 823 1983C754 1983 686 1983 617 1983C549 1983 480 1983 411 1983C343 1983 274 1983 206 1983C137 1983 69 1983 34 1983H0V1946.26Z" fill="white"/>
<path fill-rule="evenodd" clip-rule="evenodd" d="M-243 20.1944L-203.262 28.3688C-162.356 36.5432 -82.8812 53.476 -2.23749 45.3015C77.2375 36.5432 157.881 3.26163 237.356 11.4361C318 20.1944 398.644 70.4087 478.119 78.5831C558.763 87.3414 638.238 53.476 718.881 32.456C798.356 11.4361 879 3.26164 959.644 3.26164C1039.12 3.26164 1119.76 11.4361 1199.24 20.1944C1279.88 28.3688 1359.36 36.5432 1400.26 41.2143L1440 45.3015V-9H1400.26C1359.36 -9 1279.88 -9 1199.24 -9C1119.76 -9 1039.12 -9 959.644 -9C879 -9 798.356 -9 718.881 -9C638.238 -9 558.763 -9 478.119 -9C398.644 -9 318 -9 237.356 -9C157.881 -9 77.2375 -9 -2.23749 -9C-82.8812 -9 -162.356 -9 -203.262 -9H-243V20.1944Z" fill="white"/>
<g opacity="0.2">
<path d="M91.4402 272.187L117.529 227L143.618 272.187H91.4402Z" stroke="#D06D01" stroke-width="2"/>
<path d="M72.9324 268.605L118.502 243.191L117.726 295.363L72.9324 268.605Z" stroke="#ECB349" stroke-width="2"/>
</g>
<g opacity="0.2">
<path d="M321.44 421.187L347.529 376L373.618 421.187H321.44Z" stroke="#D06D01" stroke-width="2"/>
<path d="M302.932 417.605L348.502 392.191L347.726 444.363L302.932 417.605Z" stroke="#ECB349" stroke-width="2"/>
</g>
<g opacity="0.2">
<path d="M1169.44 1629.19L1195.53 1584L1221.62 1629.19H1169.44Z" stroke="#D06D01" stroke-width="2"/>
<path d="M1150.93 1625.61L1196.5 1600.19L1195.73 1652.36L1150.93 1625.61Z" stroke="#ECB349" stroke-width="2"/>
</g>
<g opacity="0.1">
<circle cx="1394.27" cy="1822.27" r="91.7285" stroke="#D16E01" stroke-width="2"/>
<path d="M1382.63 1785.15H1381.62V1831.53H1382.63C1387.97 1831.52 1393.31 1831.07 1398.57 1830.2V1782.36C1393.48 1784.22 1388.08 1785.17 1382.63 1785.15Z" fill="url(#paint1_linear_4018_1221)"/>
<path d="M1382.63 1699.3C1388.08 1699.3 1393.49 1700.27 1398.57 1702.15V1654.32C1393.31 1653.44 1387.97 1652.99 1382.63 1652.98H1381.62V1699.3H1382.63Z" fill="url(#paint2_linear_4018_1221)"/>
<path d="M1419.12 1660.01C1415.46 1658.56 1411.71 1657.33 1407.9 1656.32V1706.7C1412.24 1709.52 1416.04 1713.05 1419.12 1717.13V1660.01Z" fill="url(#paint3_linear_4018_1221)"/>
<path d="M1419.12 1824.44V1767.33C1416.04 1771.43 1412.25 1774.98 1407.9 1777.82V1828.5C1411.72 1827.37 1415.47 1826.01 1419.12 1824.44Z" fill="url(#paint4_linear_4018_1221)"/>
<path d="M1435 1815.89V1668.56C1432.43 1666.86 1429.75 1665.3 1426.99 1663.89V1738.23C1426.99 1739.56 1426.99 1740.89 1426.99 1742.23C1426.99 1743.56 1426.99 1744.95 1426.99 1746.29V1820.62C1429.74 1819.17 1432.41 1817.59 1435 1815.89Z" fill="url(#paint5_linear_4018_1221)"/>
<path d="M1372.23 1783.94C1362.47 1781.72 1353.78 1776.39 1347.55 1768.82C1341.33 1761.25 1337.94 1751.88 1337.94 1742.23C1337.94 1732.57 1341.33 1723.2 1347.55 1715.63C1353.78 1708.06 1362.47 1702.74 1372.23 1700.51V1653.59C1349.6 1656.07 1328.71 1666.48 1313.55 1682.84C1298.38 1699.19 1290 1720.34 1290 1742.26C1290 1764.17 1298.38 1785.32 1313.55 1801.68C1328.71 1818.03 1349.6 1828.44 1372.23 1830.93V1783.94Z" fill="#D16E01"/>
</g>
</g>
<defs>
<linearGradient id="paint0_linear_4018_1221" x1="-2.22722e-05" y1="-533.885" x2="1996.31" y2="-116.129" gradientUnits="userSpaceOnUse">
<stop stop-color="#D06D00"/>
<stop offset="1" stop-color="#F3C55B"/>
</linearGradient>
<linearGradient id="paint1_linear_4018_1221" x1="1386.54" y1="1715.31" x2="1392.08" y2="1868.9" gradientUnits="userSpaceOnUse">
<stop stop-color="#D06D00"/>
<stop offset="1" stop-color="#F3C55B"/>
</linearGradient>
<linearGradient id="paint2_linear_4018_1221" x1="1391.58" y1="1715.13" x2="1397.12" y2="1868.71" gradientUnits="userSpaceOnUse">
<stop stop-color="#D06D00"/>
<stop offset="1" stop-color="#F3C55B"/>
</linearGradient>
<linearGradient id="paint3_linear_4018_1221" x1="1414.39" y1="1714.34" x2="1419.93" y2="1867.87" gradientUnits="userSpaceOnUse">
<stop stop-color="#D06D00"/>
<stop offset="1" stop-color="#F3C55B"/>
</linearGradient>
<linearGradient id="paint4_linear_4018_1221" x1="1409.92" y1="1714.46" x2="1415.46" y2="1868.05" gradientUnits="userSpaceOnUse">
<stop stop-color="#D06D00"/>
<stop offset="1" stop-color="#F3C55B"/>
</linearGradient>
<linearGradient id="paint5_linear_4018_1221" x1="1429.83" y1="1713.79" x2="1435.31" y2="1867.32" gradientUnits="userSpaceOnUse">
<stop stop-color="#D06D00"/>
<stop offset="1" stop-color="#F3C55B"/>
</linearGradient>
<clipPath id="clip0_4018_1221">
<rect width="1440" height="1983" fill="white"/>
</clipPath>
</defs>
</svg>
