<svg width="375" height="1822" viewBox="0 0 375 1822" fill="none" xmlns="http://www.w3.org/2000/svg">
<g clip-path="url(#clip0_48_2752)">
<rect width="375" height="1822" fill="url(#paint0_linear_48_2752)"/>
<path d="M43.7611 31.1166C77.6667 26.0978 112.071 7.02633 145.976 11.7105C180.381 16.7294 214.785 45.5039 248.69 50.1881C283.094 55.2069 317 35.8008 351.404 23.7557C359.245 20.9702 367.112 18.2027 375 15.5937V0H351.404H248.69H145.976H43.7611H0V21.8097C13.5847 28.3086 28.6246 33.1775 43.7611 31.1166Z" fill="white"/>
<path d="M331.239 1790.88C297.333 1795.9 262.929 1814.97 229.024 1810.29C194.619 1805.27 160.215 1776.5 126.31 1771.81C91.9056 1766.79 58 1786.2 23.5958 1798.24C15.7552 1801.03 7.88783 1803.8 0 1806.41V1822H23.5958H126.31H229.024H331.239H375V1800.19C361.415 1793.69 346.375 1788.82 331.239 1790.88Z" fill="white"/>
</g>
<defs>
<linearGradient id="paint0_linear_48_2752" x1="-5.80005e-06" y1="-490.538" x2="540.737" y2="-458.467" gradientUnits="userSpaceOnUse">
<stop stop-color="#D06D00"/>
<stop offset="1" stop-color="#F3C55B"/>
</linearGradient>
<clipPath id="clip0_48_2752">
<rect width="375" height="1822" fill="white"/>
</clipPath>
</defs>
</svg>
