<svg width="1440" height="101" viewBox="0 0 1440 101" fill="none" xmlns="http://www.w3.org/2000/svg">
<path fill-rule="evenodd" clip-rule="evenodd" d="M0 19.7867L34 29.247C69 38.7073 137 58.3036 206 48.8433C274 38.7073 343 0.190422 411 9.65071C480 19.7867 549 77.8999 617 87.3602C686 97.4963 754 58.3036 823 33.9772C891 9.65071 960 0.19043 1029 0.19043C1097 0.19043 1166 9.65071 1234 19.7867C1303 29.247 1371 38.7073 1406 44.1132L1440 48.8433V101H1406C1371 101 1309.5 101 1240.5 101C1172.5 101 1122 101 1054 101C985 101 928 101 860 101C791 101 840 101 771 101C703 101 725.5 101 656.5 101C588.5 101 274 101 206 101C137 101 82.5 101 47.5 101H0V19.7867Z" fill="white"/>
</svg>
