<svg width="1440" height="672" viewBox="0 0 1440 672" fill="none" xmlns="http://www.w3.org/2000/svg">
<path fill-rule="evenodd" clip-rule="evenodd" d="M0 602.787L34 612.247C69 621.707 137 641.304 206 631.843C274 621.707 343 583.19 411 592.651C480 602.787 549 660.9 617 670.36C686 680.496 754 641.304 823 616.977C891 592.651 960 583.19 1029 583.19C1097 583.19 1166 592.651 1234 602.787C1303 612.247 1371 621.707 1406 627.113L1440 631.843V569H1406C1371 569 1303 569 1234 569C1166 569 1097 569 1029 569C960 569 891 569 823 569C754 569 686 569 617 569C549 569 480 569 411 569C343 569 274 569 206 569C137 569 69 569 34 569H0V602.787Z" fill="#FAF0E6"/>
<rect y="-4" width="1440" height="573" fill="#FAF0E6"/>
<g opacity="0.1">
<circle cx="22.2715" cy="520.271" r="91.7285" stroke="#D16E01" stroke-width="2"/>
<path d="M99.1035 480.841V536.671C104.817 518.499 104.817 499.012 99.1035 480.841Z" fill="url(#paint0_linear_4144_745)"/>
<path d="M10.6318 553.369H9.62354L9.62354 601.575H10.6318C15.9754 601.562 21.3085 601.098 26.5742 600.188V550.471C21.4823 552.405 16.0785 553.387 10.6318 553.369Z" fill="url(#paint1_linear_4144_745)"/>
<path d="M10.6318 464.142C16.0825 464.145 21.4864 465.148 26.5742 467.104V417.386C21.3085 416.476 15.9754 416.013 10.6318 416H9.62354L9.62354 464.142H10.6318Z" fill="url(#paint2_linear_4144_745)"/>
<path d="M47.1168 423.309C43.459 421.803 39.7134 420.519 35.9004 419.466V471.83C40.245 474.758 44.0414 478.427 47.1168 482.668V423.309Z" fill="url(#paint3_linear_4144_745)"/>
<path d="M47.1168 594.202V534.844C44.0432 539.104 40.247 542.794 35.9004 545.745V598.424C39.7216 597.246 43.4673 595.836 47.1168 594.202Z" fill="url(#paint4_linear_4144_745)"/>
<path d="M62.9964 585.317V432.194C60.4263 430.421 57.7542 428.801 54.9937 427.342V504.597C54.9937 505.983 54.9937 507.37 54.9937 508.756C54.9937 510.142 54.9937 511.591 54.9937 512.978L54.9937 590.232C57.7417 588.729 60.4126 587.088 62.9964 585.317Z" fill="url(#paint5_linear_4144_745)"/>
<path d="M71.4404 438.748V578.764C73.5829 576.937 75.5993 574.983 77.7418 572.904V444.608C75.5993 442.592 73.5829 440.89 71.4404 438.748Z" fill="url(#paint6_linear_4144_745)"/>
<path d="M90.281 556.205V461.307C88.9577 459.038 87.5084 456.833 85.9961 454.69V562.822C87.5084 560.616 88.9577 558.474 90.281 556.205Z" fill="url(#paint7_linear_4144_745)"/>
<path d="M0.234834 552.109C-9.52737 549.799 -18.2242 544.262 -24.4477 536.394C-30.6711 528.526 -34.0569 518.788 -34.0569 508.756C-34.0569 498.724 -30.6711 488.986 -24.4477 481.118C-18.2242 473.25 -9.52737 467.713 0.234834 465.403V416.63C-22.3968 419.214 -43.2864 430.035 -58.4523 447.031C-73.6182 464.027 -82 486.009 -82 508.787C-82 531.566 -73.6182 553.548 -58.4523 570.544C-43.2864 587.54 -22.3968 598.361 0.234834 600.945V552.109Z" fill="#D16E01"/>
</g>
<g opacity="0.2">
<path d="M695.44 179.187L721.528 134L747.617 179.187H695.44Z" stroke="#D06D01" stroke-width="2"/>
<path d="M676.932 175.605L722.502 150.191L721.726 202.363L676.932 175.605Z" stroke="#ECB349" stroke-width="2"/>
</g>
<g opacity="0.2">
<path d="M1302.44 537.187L1328.53 492L1354.62 537.187H1302.44Z" stroke="#D06D01" stroke-width="2"/>
<path d="M1283.93 533.605L1329.5 508.191L1328.73 560.363L1283.93 533.605Z" stroke="#ECB349" stroke-width="2"/>
</g>
<defs>
<linearGradient id="paint0_linear_4144_745" x1="99.6076" y1="477.627" x2="105.531" y2="637.177" gradientUnits="userSpaceOnUse">
<stop stop-color="#D06D00"/>
<stop offset="1" stop-color="#F3C55B"/>
</linearGradient>
<linearGradient id="paint1_linear_4144_745" x1="14.5386" y1="480.778" x2="20.5249" y2="640.391" gradientUnits="userSpaceOnUse">
<stop stop-color="#D06D00"/>
<stop offset="1" stop-color="#F3C55B"/>
</linearGradient>
<linearGradient id="paint2_linear_4144_745" x1="19.5797" y1="480.589" x2="25.566" y2="640.202" gradientUnits="userSpaceOnUse">
<stop stop-color="#D06D00"/>
<stop offset="1" stop-color="#F3C55B"/>
</linearGradient>
<linearGradient id="paint3_linear_4144_745" x1="42.3908" y1="479.77" x2="48.3771" y2="639.32" gradientUnits="userSpaceOnUse">
<stop stop-color="#D06D00"/>
<stop offset="1" stop-color="#F3C55B"/>
</linearGradient>
<linearGradient id="paint4_linear_4144_745" x1="37.9168" y1="479.896" x2="43.9031" y2="639.509" gradientUnits="userSpaceOnUse">
<stop stop-color="#D06D00"/>
<stop offset="1" stop-color="#F3C55B"/>
</linearGradient>
<linearGradient id="paint5_linear_4144_745" x1="57.8293" y1="479.202" x2="63.7525" y2="638.753" gradientUnits="userSpaceOnUse">
<stop stop-color="#D06D00"/>
<stop offset="1" stop-color="#F3C55B"/>
</linearGradient>
<linearGradient id="paint6_linear_4144_745" x1="73.2678" y1="478.635" x2="79.2541" y2="638.186" gradientUnits="userSpaceOnUse">
<stop stop-color="#D06D00"/>
<stop offset="1" stop-color="#F3C55B"/>
</linearGradient>
<linearGradient id="paint7_linear_4144_745" x1="86.8783" y1="478.068" x2="92.8646" y2="637.682" gradientUnits="userSpaceOnUse">
<stop stop-color="#D06D00"/>
<stop offset="1" stop-color="#F3C55B"/>
</linearGradient>
</defs>
</svg>
