<svg width="1443" height="597" viewBox="0 0 1443 597" fill="none" xmlns="http://www.w3.org/2000/svg">
<path d="M181.104 475.841V531.671C186.817 513.499 186.817 494.012 181.104 475.841Z" fill="url(#paint0_linear_2084_1520)"/>
<path d="M92.6313 548.369H91.623V596.575H92.6313C97.9749 596.562 103.308 596.098 108.574 595.188V545.471C103.482 547.405 98.078 548.387 92.6313 548.369Z" fill="url(#paint1_linear_2084_1520)"/>
<path d="M92.6313 459.142C98.082 459.145 103.486 460.148 108.574 462.104V412.386C103.308 411.476 97.9749 411.013 92.6313 411H91.623V459.142H92.6313Z" fill="url(#paint2_linear_2084_1520)"/>
<path d="M129.117 418.309C125.459 416.803 121.713 415.519 117.9 414.466V466.83C122.245 469.758 126.041 473.427 129.117 477.668V418.309Z" fill="url(#paint3_linear_2084_1520)"/>
<path d="M129.117 589.202V529.843C126.043 534.104 122.247 537.794 117.9 540.745V593.424C121.722 592.246 125.467 590.836 129.117 589.202Z" fill="url(#paint4_linear_2084_1520)"/>
<path d="M144.997 580.317V427.194C142.427 425.421 139.755 423.801 136.994 422.342V499.597C136.994 500.983 136.994 502.37 136.994 503.756C136.994 505.142 136.994 506.591 136.994 507.978V585.232C139.742 583.729 142.413 582.088 144.997 580.317Z" fill="url(#paint5_linear_2084_1520)"/>
<path d="M153.439 433.748V573.764C155.582 571.937 157.598 569.983 159.741 567.904V439.608C157.598 437.592 155.582 435.89 153.439 433.748Z" fill="url(#paint6_linear_2084_1520)"/>
<path d="M172.281 551.205V456.307C170.958 454.038 169.508 451.833 167.996 449.69V557.822C169.508 555.616 170.958 553.474 172.281 551.205Z" fill="url(#paint7_linear_2084_1520)"/>
<path d="M82.2348 547.109C72.4726 544.799 63.7758 539.262 57.5523 531.394C51.3289 523.526 47.9431 513.788 47.9431 503.756C47.9431 493.724 51.3289 483.986 57.5523 476.118C63.7758 468.25 72.4726 462.713 82.2348 460.403V411.63C59.6032 414.214 38.7136 425.035 23.5477 442.031C8.38178 459.027 0 481.009 0 503.787C0 526.566 8.38178 548.548 23.5477 565.544C38.7136 582.54 59.6032 593.361 82.2348 595.945V547.109Z" fill="#D16E01"/>
<g opacity="0.2">
<path d="M789.44 47.187L815.529 2L841.618 47.187H789.44Z" stroke="#D06D01" stroke-width="2"/>
<path d="M770.932 43.6051L816.502 18.1913L815.726 70.363L770.932 43.6051Z" stroke="#ECB349" stroke-width="2"/>
</g>
<g opacity="0.2">
<path d="M1384.44 442.187L1410.53 397L1436.62 442.187H1384.44Z" stroke="#D06D01" stroke-width="2"/>
<path d="M1365.93 438.605L1411.5 413.191L1410.73 465.363L1365.93 438.605Z" stroke="#ECB349" stroke-width="2"/>
</g>
<defs>
<linearGradient id="paint0_linear_2084_1520" x1="181.608" y1="472.627" x2="187.531" y2="632.177" gradientUnits="userSpaceOnUse">
<stop stop-color="#D06D00"/>
<stop offset="1" stop-color="#F3C55B"/>
</linearGradient>
<linearGradient id="paint1_linear_2084_1520" x1="96.5381" y1="475.778" x2="102.524" y2="635.391" gradientUnits="userSpaceOnUse">
<stop stop-color="#D06D00"/>
<stop offset="1" stop-color="#F3C55B"/>
</linearGradient>
<linearGradient id="paint2_linear_2084_1520" x1="101.579" y1="475.589" x2="107.565" y2="635.202" gradientUnits="userSpaceOnUse">
<stop stop-color="#D06D00"/>
<stop offset="1" stop-color="#F3C55B"/>
</linearGradient>
<linearGradient id="paint3_linear_2084_1520" x1="124.391" y1="474.77" x2="130.377" y2="634.32" gradientUnits="userSpaceOnUse">
<stop stop-color="#D06D00"/>
<stop offset="1" stop-color="#F3C55B"/>
</linearGradient>
<linearGradient id="paint4_linear_2084_1520" x1="119.917" y1="474.896" x2="125.903" y2="634.509" gradientUnits="userSpaceOnUse">
<stop stop-color="#D06D00"/>
<stop offset="1" stop-color="#F3C55B"/>
</linearGradient>
<linearGradient id="paint5_linear_2084_1520" x1="139.83" y1="474.202" x2="145.753" y2="633.753" gradientUnits="userSpaceOnUse">
<stop stop-color="#D06D00"/>
<stop offset="1" stop-color="#F3C55B"/>
</linearGradient>
<linearGradient id="paint6_linear_2084_1520" x1="155.267" y1="473.635" x2="161.253" y2="633.186" gradientUnits="userSpaceOnUse">
<stop stop-color="#D06D00"/>
<stop offset="1" stop-color="#F3C55B"/>
</linearGradient>
<linearGradient id="paint7_linear_2084_1520" x1="168.878" y1="473.069" x2="174.865" y2="632.682" gradientUnits="userSpaceOnUse">
<stop stop-color="#D06D00"/>
<stop offset="1" stop-color="#F3C55B"/>
</linearGradient>
</defs>
</svg>
