<svg width="1440" height="721" viewBox="0 0 1440 721" fill="none" xmlns="http://www.w3.org/2000/svg">
<g clip-path="url(#clip0_2001_1069)">
<rect width="1440" height="721" fill="url(#paint0_linear_2001_1069)"/>
<path fill-rule="evenodd" clip-rule="evenodd" d="M0 684.261L34 673.974C69 663.687 137 642.379 206 652.665C274 663.687 343 705.57 411 695.283C480 684.261 549 621.07 617 610.783C686 599.761 754 642.379 823 668.831C891 695.283 960 705.57 1029 705.57C1097 705.57 1166 695.283 1234 684.261C1303 673.974 1371 663.687 1406 657.809L1440 652.665V721H1406C1371 721 1303 721 1234 721C1166 721 1097 721 1029 721C960 721 891 721 823 721C754 721 686 721 617 721C549 721 480 721 411 721C343 721 274 721 206 721C137 721 69 721 34 721H0V684.261Z" fill="white"/>
<path fill-rule="evenodd" clip-rule="evenodd" d="M-243 20.1944L-203.262 28.3688C-162.356 36.5432 -82.8812 53.476 -2.23749 45.3015C77.2375 36.5432 157.881 3.26163 237.356 11.4361C318 20.1944 398.644 70.4087 478.119 78.5831C558.763 87.3414 638.238 53.476 718.881 32.456C798.356 11.4361 879 3.26163 959.644 3.26163C1039.12 3.26163 1119.76 11.4361 1199.24 20.1944C1279.88 28.3688 1359.36 36.5432 1400.26 41.2143L1440 45.3015V-9H1400.26C1359.36 -9 1279.88 -9 1199.24 -9C1119.76 -9 1039.12 -9 959.644 -9C879 -9 798.356 -9 718.881 -9C638.238 -9 558.763 -9 478.119 -9C398.644 -9 318 -9 237.356 -9C157.881 -9 77.2375 -9 -2.23749 -9C-82.8812 -9 -162.356 -9 -203.262 -9H-243V20.1944Z" fill="white"/>
<g opacity="0.2">
<path d="M32.4393 417.187L58.528 372L84.6167 417.187H32.4393Z" stroke="#D06D01" stroke-width="2"/>
<path d="M13.9314 413.605L59.5014 388.191L58.7253 440.363L13.9314 413.605Z" stroke="#ECB349" stroke-width="2"/>
</g>
</g>
<defs>
<linearGradient id="paint0_linear_2001_1069" x1="-2.22722e-05" y1="-194.115" x2="1565.24" y2="706.755" gradientUnits="userSpaceOnUse">
<stop stop-color="#D06D00"/>
<stop offset="1" stop-color="#F3C55B"/>
</linearGradient>
<clipPath id="clip0_2001_1069">
<rect width="1440" height="721" fill="white"/>
</clipPath>
</defs>
</svg>
