<svg width="1440" height="102" viewBox="0 0 1440 102" fill="none" xmlns="http://www.w3.org/2000/svg">
<path fill-rule="evenodd" clip-rule="evenodd" d="M0 19.5963L34 29.0566C69 38.5169 137 58.1132 206 48.6529C274 38.5169 343 -7.62939e-06 411 9.46028C480 19.5963 546.5 78.5098 614.5 87.9701C683.5 98.1061 754 58.1132 823 33.7867C891 9.46029 960 0 1029 0C1097 0 1166 9.46028 1234 19.5963C1303 29.0566 1371 38.5169 1406 43.9228L1440 48.6529V101.5H1398C1363 101.5 1311.5 101.5 1242.5 101.5C1174.5 101.5 1108 101.5 1040 101.5C971 101.5 916.5 101.5 848.5 101.5C779.5 101.5 691.5 101.5 622.5 101.5C554.5 101.5 486.5 101.5 417.5 101.5C349.5 101.5 284 101.5 216 101.5C147 101.5 88.5 101.5 53.5 101.5H0V19.5963Z" fill="white"/>
</svg>
