<svg width="1440" height="842" viewBox="0 0 1440 842" fill="none" xmlns="http://www.w3.org/2000/svg">
<path fill-rule="evenodd" clip-rule="evenodd" d="M0 772.787L34 782.247C69 791.707 137 811.304 206 801.843C274 791.707 343 753.19 411 762.651C480 772.787 549 830.9 617 840.36C686 850.496 754 811.304 823 786.977C891 762.651 960 753.19 1029 753.19C1097 753.19 1166 762.651 1234 772.787C1303 782.247 1371 791.707 1406 797.113L1440 801.843V739H1406C1371 739 1303 739 1234 739C1166 739 1097 739 1029 739C960 739 891 739 823 739C754 739 686 739 617 739C549 739 480 739 411 739C343 739 274 739 206 739C137 739 69 739 34 739H0V772.787Z" fill="#FAF0E6"/>
<rect width="1440" height="739" fill="#FAF0E6"/>
</svg>
