<svg width="375" height="313" viewBox="0 0 375 313" fill="none" xmlns="http://www.w3.org/2000/svg">
<rect width="375" height="262" fill="#FAF0E6"/>
<g opacity="0.2">
<path d="M279.75 114.551L297.966 83L316.182 114.551H279.75Z" stroke="#D06D01" stroke-width="2"/>
<path d="M266.555 112.274L298.374 94.5294L297.832 130.957L266.555 112.274Z" stroke="#ECB349" stroke-width="2"/>
</g>
<g opacity="0.2">
<path d="M32.7497 240.551L50.9656 209L69.1816 240.551H32.7497Z" stroke="#D06D01" stroke-width="2"/>
<path d="M19.5555 238.274L51.3739 220.529L50.832 256.957L19.5555 238.274Z" stroke="#ECB349" stroke-width="2"/>
</g>
<path d="M43.7611 293.117C77.6667 288.098 112.071 269.026 145.976 273.711C180.381 278.729 214.785 307.504 248.69 312.188C283.094 317.207 317 297.801 351.404 285.756C359.245 282.97 367.112 280.203 375 277.594V262H351.404H248.69H145.976H43.7611H0V283.81C13.5847 290.309 28.6246 295.177 43.7611 293.117Z" fill="#FAF0E6"/>
</svg>
