<svg width="1440" height="2300" viewBox="0 0 1440 2300" fill="none" xmlns="http://www.w3.org/2000/svg">
<g clip-path="url(#clip0_4018_1221)">
<rect width="1440" height="2300" fill="url(#paint0_linear_4018_1221)"/>
<path fill-rule="evenodd" clip-rule="evenodd" d="M0 2263.26L34 2252.97C69 2242.69 137 2221.38 206 2231.67C274 2242.69 343 2284.57 411 2274.28C480 2263.26 549 2200.07 617 2189.78C686 2178.76 754 2221.38 823 2247.83C891 2274.28 960 2284.57 1029 2284.57C1097 2284.57 1166 2274.28 1234 2263.26C1303 2252.97 1371 2242.69 1406 2236.81L1440 2231.67V2300H1406C1371 2300 1303 2300 1234 2300C1166 2300 1097 2300 1029 2300C960 2300 891 2300 823 2300C754 2300 686 2300 617 2300C549 2300 480 2300 411 2300C343 2300 274 2300 206 2300C137 2300 69 2300 34 2300H0V2263.26Z" fill="white"/>
<path fill-rule="evenodd" clip-rule="evenodd" d="M-243 20.1944L-203.262 28.3688C-162.356 36.5432 -82.8812 53.476 -2.23749 45.3015C77.2375 36.5432 157.881 3.26163 237.356 11.4361C318 20.1944 398.644 70.4087 478.119 78.5831C558.763 87.3414 638.238 53.476 718.881 32.456C798.356 11.4361 879 3.26163 959.644 3.26163C1039.12 3.26163 1119.76 11.4361 1199.24 20.1944C1279.88 28.3688 1359.36 36.5432 1400.26 41.2143L1440 45.3015V-9H1400.26C1359.36 -9 1279.88 -9 1199.24 -9C1119.76 -9 1039.12 -9 959.644 -9C879 -9 798.356 -9 718.881 -9C638.238 -9 558.763 -9 478.119 -9C398.644 -9 318 -9 237.356 -9C157.881 -9 77.2375 -9 -2.23749 -9C-82.8812 -9 -162.356 -9 -203.262 -9H-243V20.1944Z" fill="white"/>
<g opacity="0.2">
<path d="M91.4402 272.187L117.529 227L143.618 272.187H91.4402Z" stroke="#D06D01" stroke-width="2"/>
<path d="M72.9324 268.605L118.502 243.191L117.726 295.363L72.9324 268.605Z" stroke="#ECB349" stroke-width="2"/>
</g>
<g opacity="0.2">
<path d="M321.44 421.187L347.529 376L373.618 421.187H321.44Z" stroke="#D06D01" stroke-width="2"/>
<path d="M302.932 417.605L348.502 392.191L347.726 444.363L302.932 417.605Z" stroke="#ECB349" stroke-width="2"/>
</g>
<g opacity="0.2">
<path d="M1169.44 1629.19L1195.53 1584L1221.62 1629.19H1169.44Z" stroke="#D06D01" stroke-width="2"/>
<path d="M1150.93 1625.61L1196.5 1600.19L1195.73 1652.36L1150.93 1625.61Z" stroke="#ECB349" stroke-width="2"/>
</g>
<g opacity="0.1">
<circle cx="1394.27" cy="1822.27" r="91.7285" stroke="#D16E01" stroke-width="2"/>
<path d="M1382.63 2070.52H1381.62V2124.32H1382.63C1387.97 2124.31 1393.31 2123.79 1398.57 2122.77V2067.29C1393.48 2069.45 1388.08 2070.54 1382.63 2070.52Z" fill="url(#paint1_linear_4018_1221)"/>
<path d="M1382.63 1970.95C1388.08 1970.95 1393.49 1972.07 1398.57 1974.25V1918.77C1393.31 1917.76 1387.97 1917.24 1382.63 1917.22H1381.62V1970.95H1382.63Z" fill="url(#paint2_linear_4018_1221)"/>
<path d="M1419.12 1925.38C1415.46 1923.7 1411.71 1922.27 1407.9 1921.09V1979.53C1412.24 1982.8 1416.04 1986.89 1419.12 1991.62V1925.38Z" fill="url(#paint3_linear_4018_1221)"/>
<path d="M1419.12 2116.09V2049.85C1416.04 2054.6 1412.25 2058.72 1407.9 2062.02V2120.8C1411.72 2119.49 1415.47 2117.92 1419.12 2116.09Z" fill="url(#paint4_linear_4018_1221)"/>
<path d="M1435 2106.18V1935.3C1432.43 1933.32 1429.75 1931.51 1426.99 1929.88V2016.1C1426.99 2017.64 1426.99 2019.19 1426.99 2020.74C1426.99 2022.28 1426.99 2023.9 1426.99 2025.45V2111.66C1429.74 2109.98 1432.41 2108.15 1435 2106.18Z" fill="url(#paint5_linear_4018_1221)"/>
<path d="M1372.23 2069.12C1362.47 2066.54 1353.78 2060.36 1347.55 2051.58C1341.33 2042.8 1337.94 2031.93 1337.94 2020.74C1337.94 2009.54 1341.33 1998.67 1347.55 1989.89C1353.78 1981.11 1362.47 1974.93 1372.23 1972.36V1917.93C1349.6 1920.81 1328.71 1932.89 1313.55 1951.85C1298.38 1970.82 1290 1995.35 1290 2020.77C1290 2046.19 1298.38 2070.72 1313.55 2089.69C1328.71 2108.66 1349.6 2120.73 1372.23 2123.62V2069.12Z" fill="#D16E01"/>
</g>
</g>
<defs>
<linearGradient id="paint0_linear_4018_1221" x1="-2.22722e-05" y1="-619.231" x2="2018.04" y2="-255.132" gradientUnits="userSpaceOnUse">
<stop stop-color="#D06D00"/>
<stop offset="1" stop-color="#F3C55B"/>
</linearGradient>
<linearGradient id="paint1_linear_4018_1221" x1="1386.54" y1="1989.51" x2="1393.99" y2="2167.58" gradientUnits="userSpaceOnUse">
<stop stop-color="#D06D00"/>
<stop offset="1" stop-color="#F3C55B"/>
</linearGradient>
<linearGradient id="paint2_linear_4018_1221" x1="1391.58" y1="1989.3" x2="1399.03" y2="2167.36" gradientUnits="userSpaceOnUse">
<stop stop-color="#D06D00"/>
<stop offset="1" stop-color="#F3C55B"/>
</linearGradient>
<linearGradient id="paint3_linear_4018_1221" x1="1414.39" y1="1988.39" x2="1421.84" y2="2166.38" gradientUnits="userSpaceOnUse">
<stop stop-color="#D06D00"/>
<stop offset="1" stop-color="#F3C55B"/>
</linearGradient>
<linearGradient id="paint4_linear_4018_1221" x1="1409.92" y1="1988.53" x2="1417.37" y2="2166.59" gradientUnits="userSpaceOnUse">
<stop stop-color="#D06D00"/>
<stop offset="1" stop-color="#F3C55B"/>
</linearGradient>
<linearGradient id="paint5_linear_4018_1221" x1="1429.83" y1="1987.76" x2="1437.2" y2="2165.75" gradientUnits="userSpaceOnUse">
<stop stop-color="#D06D00"/>
<stop offset="1" stop-color="#F3C55B"/>
</linearGradient>
<clipPath id="clip0_4018_1221">
<rect width="1440" height="2300" fill="white"/>
</clipPath>
</defs>
</svg>
