<svg width="1440" height="112" viewBox="0 0 1440 112" fill="none" xmlns="http://www.w3.org/2000/svg">
<path fill-rule="evenodd" clip-rule="evenodd" d="M0 75.261L34 64.9741C69 54.6872 137 33.3786 206 43.6655C274 54.6872 343 96.5696 411 86.2827C480 75.261 549 12.07 617 1.78305C686 -9.23865 754 33.3786 823 59.8306C891 86.2827 960 96.5696 1029 96.5696C1097 96.5696 1166 86.2827 1234 75.261C1303 64.9741 1371 54.6872 1406 48.8089L1440 43.6655V112H1406C1371 112 1303 112 1234 112C1166 112 1097 112 1029 112C960 112 891 112 823 112C754 112 686 112 617 112C549 112 480 112 411 112C343 112 274 112 206 112C137 112 69 112 34 112H0V75.261Z" fill="white"/>
</svg>
