<svg width="375" height="2281" viewBox="0 0 375 2281" fill="none" xmlns="http://www.w3.org/2000/svg">
<g clip-path="url(#clip0_4021_1553)">
<rect width="375" height="2281" fill="url(#paint0_linear_4021_1553)"/>
<path d="M43.7611 31.1166C77.6667 26.0978 112.071 7.02633 145.976 11.7105C180.381 16.7294 214.785 45.5039 248.69 50.1881C283.094 55.2069 317 35.8008 351.404 23.7557C359.245 20.9702 367.112 18.2027 375 15.5937V0H351.404H248.69H145.976H43.7611H0V21.8097C13.5847 28.3086 28.6246 33.1775 43.7611 31.1166Z" fill="white"/>
<path d="M331.239 2249.88C297.333 2254.9 262.929 2273.97 229.024 2269.29C194.619 2264.27 160.215 2235.5 126.31 2230.81C91.9055 2225.79 58 2245.2 23.5958 2257.24C15.7552 2260.03 7.88782 2262.8 0 2265.41V2281H23.5958H126.31H229.024H331.239H375V2259.19C361.415 2252.69 346.375 2247.82 331.239 2249.88Z" fill="white"/>
</g>
<defs>
<linearGradient id="paint0_linear_4021_1553" x1="-5.80005e-06" y1="-614.115" x2="541.424" y2="-588.465" gradientUnits="userSpaceOnUse">
<stop stop-color="#D06D00"/>
<stop offset="1" stop-color="#F3C55B"/>
</linearGradient>
<clipPath id="clip0_4021_1553">
<rect width="375" height="2281" fill="white"/>
</clipPath>
</defs>
</svg>
