<svg width="1440" height="80" viewBox="0 0 1440 80" fill="none" xmlns="http://www.w3.org/2000/svg">
<path fill-rule="evenodd" clip-rule="evenodd" d="M-243 20.1944L-203.262 28.3688C-162.356 36.5432 -82.8812 53.476 -2.23749 45.3015C77.2375 36.5432 157.881 3.26163 237.356 11.4361C318 20.1944 398.644 70.4087 478.119 78.5831C558.763 87.3414 638.238 53.476 718.881 32.456C798.356 11.4361 879 3.26163 959.644 3.26163C1039.12 3.26163 1119.76 11.4361 1199.24 20.1944C1279.88 28.3688 1359.36 36.5432 1400.26 41.2143L1440 45.3015V-9H1400.26C1359.36 -9 1279.88 -9 1199.24 -9C1119.76 -9 1039.12 -9 959.644 -9C879 -9 798.356 -9 718.881 -9C638.238 -9 558.763 -9 478.119 -9C398.644 -9 318 -9 237.356 -9C157.881 -9 77.2375 -9 -2.23749 -9C-82.8812 -9 -162.356 -9 -203.262 -9H-243V20.1944Z" fill="white"/>
</svg>
